<svg width="26" height="25" viewBox="0 0 26 25" fill="none" xmlns="http://www.w3.org/2000/svg">
<path d="M15.1267 23.5417H7.33333C3.075 23.5417 0.625 21.0917 0.625 16.8334V6.91671C0.625 2.65837 3.075 0.208374 7.33333 0.208374H16.6667C20.925 0.208374 23.375 2.65837 23.375 6.91671V12.9017C23.375 13.24 23.1766 13.5434 22.885 13.695C22.5816 13.835 22.22 13.8 21.9633 13.59C20.12 12.12 17.285 12.12 15.4417 13.625C14.1817 14.6167 13.47 16.0984 13.47 17.7201C13.47 18.6767 13.7267 19.6101 14.2283 20.4151C14.6133 21.045 15.0917 21.5701 15.6517 21.9667C15.955 22.1884 16.095 22.585 15.9783 22.9467C15.8383 23.2967 15.5117 23.5417 15.1267 23.5417ZM7.33333 1.95837C3.99667 1.95837 2.375 3.58004 2.375 6.91671V16.8334C2.375 20.17 3.99667 21.7917 7.33333 21.7917H13.0384C12.9217 21.64 12.8167 21.4767 12.7233 21.3134C12.0583 20.2401 11.7083 18.9917 11.7083 17.7084C11.7083 15.55 12.665 13.5667 14.345 12.2484C16.34 10.6267 19.2917 10.2767 21.625 11.35V6.91671C21.625 3.58004 20.0033 1.95837 16.6667 1.95837H7.33333Z" fill="#0C0C0C"/>
<path d="M13.1666 10.7084H6.16663C5.68829 10.7084 5.29163 10.3117 5.29163 9.83337C5.29163 9.35504 5.68829 8.95837 6.16663 8.95837H13.1666C13.645 8.95837 14.0416 9.35504 14.0416 9.83337C14.0416 10.3117 13.645 10.7084 13.1666 10.7084Z" fill="#0C0C0C"/>
<path d="M21.6923 18.5834H16.3077C15.8662 18.5834 15.5 18.1867 15.5 17.7084C15.5 17.23 15.8662 16.8334 16.3077 16.8334H21.6923C22.1338 16.8334 22.5 17.23 22.5 17.7084C22.5 18.1867 22.1338 18.5834 21.6923 18.5834Z" fill="#0C0C0C"/>
<path d="M19.875 15.0161V20.4007C19.875 20.8422 19.4783 21.2084 19 21.2084C18.5217 21.2084 18.125 20.8422 18.125 20.4007V15.0161C18.125 14.5745 18.5217 14.2084 19 14.2084C19.4783 14.2084 19.875 14.5745 19.875 15.0161Z" fill="#0C0C0C"/>
<path d="M9.22329 16.5417H6.16663C5.68829 16.5417 5.29163 16.145 5.29163 15.6667C5.29163 15.1884 5.68829 14.7917 6.16663 14.7917H9.22329C9.70162 14.7917 10.0983 15.1884 10.0983 15.6667C10.0983 16.145 9.71329 16.5417 9.22329 16.5417Z" fill="#0C0C0C"/>
<path d="M18.7084 24.7083C17.215 24.7083 15.8034 24.2416 14.6134 23.3783C13.8667 22.8417 13.225 22.1417 12.7233 21.3134C12.0583 20.2401 11.7083 18.9917 11.7083 17.7084C11.7083 15.55 12.665 13.5667 14.345 12.2484C16.7717 10.2767 20.5984 10.265 23.0484 12.2133C24.74 13.5433 25.7084 15.55 25.7084 17.7083C25.7084 18.9917 25.3584 20.24 24.6934 21.3134C24.32 21.955 23.8417 22.515 23.2934 22.97C22.045 24.09 20.4117 24.7083 18.7084 24.7083ZM18.7084 12.4583C17.5184 12.4583 16.3517 12.8667 15.43 13.6133C14.17 14.605 13.4584 16.0867 13.4584 17.7083C13.4584 18.665 13.715 19.5983 14.2167 20.4033C14.6017 21.0333 15.08 21.5583 15.64 21.955C16.5384 22.6084 17.6 22.9583 18.7084 22.9583C20.0034 22.9583 21.1934 22.5033 22.1501 21.6517C22.5701 21.3017 22.9084 20.8933 23.1884 20.415C23.69 19.5983 23.9584 18.665 23.9584 17.7083C23.9584 16.0867 23.235 14.5933 21.9633 13.59C21.03 12.8433 19.91 12.4583 18.7084 12.4583Z" fill="#0C0C0C"/>
</svg>
