<?xml version="1.0" encoding="utf-8"?>
<!-- Generator: Adobe Illustrator 26.0.1, SVG Export Plug-In . SVG Version: 6.00 Build 0)  -->
<svg version="1.1" id="Layer_1" xmlns="http://www.w3.org/2000/svg" xmlns:xlink="http://www.w3.org/1999/xlink" x="0px" y="0px"
	 viewBox="0 0 28 28" style="enable-background:new 0 0 28 28;" xml:space="preserve">
<style type="text/css">
	.st0{fill:#868686;}
</style>
<g>
	<path class="st0" d="M14.2,13.5h-0.4c-3.2-0.1-5.8-2.7-5.8-6c0-3.3,2.6-6,6-6c3.3,0,6,2.6,6,6C20,10.7,17.4,13.3,14.2,13.5
		C14.2,13.5,14.2,13.5,14.2,13.5z M14,3c-2.5,0-4.5,2-4.5,4.5c0,2.4,1.9,4.4,4.3,4.5l0.4,0c2.4-0.1,4.3-2,4.3-4.5
		C18.5,5,16.5,3,14,3z"/>
</g>
<g>
	<path class="st0" d="M14.2,26.1c-2.3,0-4.5-0.6-6.3-1.7c-1.5-1-2.4-2.4-2.4-3.9c0-1.6,0.9-3,2.4-4.1c0,0,0,0,0,0
		c3.5-2.3,9-2.3,12.5,0c1.5,1,2.4,2.4,2.4,3.9c0,1.6-0.9,3-2.4,4.1C18.8,25.6,16.5,26.1,14.2,26.1z M8.8,17.6
		c-1.2,0.8-1.8,1.8-1.8,2.8c0,1,0.6,2,1.8,2.7c3,1.9,7.9,1.9,10.9,0c1.1-0.8,1.8-1.8,1.8-2.8c0-1-0.6-2-1.8-2.7
		C16.6,15.7,11.8,15.7,8.8,17.6z"/>
</g>
</svg>
