<svg width="17" height="17" viewBox="0 0 17 17" fill="none" xmlns="http://www.w3.org/2000/svg">
<path d="M12.5624 4.99501C12.5399 4.99501 12.5249 4.99501 12.5024 4.99501H12.4649C11.0474 4.95001 9.98987 3.85501 9.98987 2.50501C9.98987 1.12501 11.1149 0.00750732 12.4874 0.00750732C13.8599 0.00750732 14.9849 1.13251 14.9849 2.50501C14.9774 3.86251 13.9199 4.95751 12.5699 5.00251C12.5699 4.99501 12.5699 4.99501 12.5624 4.99501ZM12.4874 1.12501C11.7299 1.12501 11.1149 1.74001 11.1149 2.49751C11.1149 3.24001 11.6924 3.84001 12.4349 3.87001C12.4424 3.86251 12.5024 3.86251 12.5699 3.87001C13.2974 3.83251 13.8599 3.23251 13.8674 2.49751C13.8674 1.74001 13.2524 1.12501 12.4874 1.12501Z" fill="#0C0C0C"/>
<path d="M12.57 10.5225C12.2775 10.5225 11.985 10.5 11.6925 10.4475C11.385 10.395 11.1825 10.1025 11.235 9.79502C11.2875 9.48752 11.58 9.28502 11.8875 9.33752C12.81 9.49502 13.785 9.32253 14.4375 8.88753C14.79 8.65503 14.9775 8.36252 14.9775 8.07002C14.9775 7.77752 14.7825 7.49252 14.4375 7.26002C13.785 6.82502 12.795 6.65252 11.865 6.81752C11.5575 6.87752 11.265 6.66752 11.2125 6.36002C11.16 6.05252 11.3625 5.76002 11.67 5.70752C12.8925 5.49002 14.16 5.72252 15.06 6.32252C15.72 6.76502 16.1025 7.39502 16.1025 8.07002C16.1025 8.73752 15.7275 9.37503 15.06 9.82503C14.3775 10.275 13.4925 10.5225 12.57 10.5225Z" fill="#0C0C0C"/>
<path d="M3.53999 4.995C3.53249 4.995 3.52499 4.995 3.52499 4.995C2.17499 4.95 1.11749 3.855 1.10999 2.505C1.10999 1.125 2.23499 0 3.60749 0C4.97999 0 6.10499 1.125 6.10499 2.4975C6.10499 3.855 5.04749 4.95 3.69749 4.995L3.53999 4.4325L3.59249 4.995C3.57749 4.995 3.55499 4.995 3.53999 4.995ZM3.61499 3.87C3.65999 3.87 3.69749 3.87 3.74249 3.8775C4.40999 3.8475 4.99499 3.2475 4.99499 2.505C4.99499 1.7475 4.37999 1.1325 3.62249 1.1325C2.86499 1.1325 2.24999 1.7475 2.24999 2.505C2.24999 3.24 2.81999 3.8325 3.54749 3.8775C3.55499 3.87 3.58499 3.87 3.61499 3.87Z" fill="#0C0C0C"/>
<path d="M3.5325 10.5225C2.61 10.5225 1.725 10.275 1.0425 9.82503C0.3825 9.38253 0 8.74502 0 8.07002C0 7.40252 0.3825 6.76502 1.0425 6.32252C1.9425 5.72252 3.21 5.49002 4.4325 5.70752C4.74 5.76002 4.9425 6.05252 4.89 6.36002C4.8375 6.66752 4.545 6.87752 4.2375 6.81752C3.3075 6.65252 2.325 6.82502 1.665 7.26002C1.3125 7.49252 1.125 7.77752 1.125 8.07002C1.125 8.36252 1.32 8.65503 1.665 8.88753C2.3175 9.32253 3.2925 9.49502 4.215 9.33752C4.5225 9.28502 4.815 9.49502 4.8675 9.79502C4.92 10.1025 4.7175 10.395 4.41 10.4475C4.1175 10.5 3.825 10.5225 3.5325 10.5225Z" fill="#0C0C0C"/>
<path d="M8.06237 10.5975C8.03987 10.5975 8.02487 10.5975 8.00237 10.5975H7.96487C6.54737 10.5525 5.48987 9.45749 5.48987 8.10749C5.48987 6.72749 6.61487 5.60999 7.98737 5.60999C9.35987 5.60999 10.4849 6.73499 10.4849 8.10749C10.4774 9.46499 9.41987 10.56 8.06987 10.605C8.06987 10.5975 8.06987 10.5975 8.06237 10.5975ZM7.98737 6.72749C7.22987 6.72749 6.61487 7.34249 6.61487 8.09999C6.61487 8.84249 7.19237 9.44249 7.93487 9.47249C7.94237 9.46499 8.00237 9.46499 8.06987 9.47249C8.79737 9.43499 9.35987 8.83499 9.36737 8.09999C9.36737 7.34999 8.75237 6.72749 7.98737 6.72749Z" fill="#0C0C0C"/>
<path d="M8.06234 16.1325C7.16234 16.1325 6.26234 15.9 5.56484 15.4275C4.90484 14.985 4.52234 14.355 4.52234 13.68C4.52234 13.0125 4.89734 12.3675 5.56484 11.925C6.96734 10.995 9.16484 10.995 10.5598 11.925C11.2198 12.3675 11.6023 12.9975 11.6023 13.6725C11.6023 14.34 11.2273 14.985 10.5598 15.4275C9.86234 15.8925 8.96234 16.1325 8.06234 16.1325ZM6.18734 12.87C5.83484 13.1025 5.64734 13.395 5.64734 13.6875C5.64734 13.98 5.84234 14.265 6.18734 14.4975C7.19984 15.18 8.91734 15.18 9.92984 14.4975C10.2823 14.265 10.4698 13.9725 10.4698 13.68C10.4698 13.3875 10.2748 13.1025 9.92984 12.87C8.92484 12.1875 7.20734 12.195 6.18734 12.87Z" fill="#0C0C0C"/>
</svg>
