<svg width="20" height="21" viewBox="0 0 20 21" fill="none" xmlns="http://www.w3.org/2000/svg">
<path d="M14.1971 0.188156H5.8129C2.17108 0.188156 0 2.35816 0 5.99816V14.3682C0 18.0182 2.17108 20.1882 5.8129 20.1882H14.1871C17.8289 20.1882 20 18.0182 20 14.3782V5.99816C20.01 2.35816 17.8389 0.188156 14.1971 0.188156ZM14.007 10.9382H10.7554V14.1882C10.7554 14.5982 10.4152 14.9382 10.005 14.9382C9.59478 14.9382 9.25461 14.5982 9.25461 14.1882V10.9382H6.00299C5.59279 10.9382 5.25262 10.5982 5.25262 10.1882C5.25262 9.77816 5.59279 9.43816 6.00299 9.43816H9.25461V6.18816C9.25461 5.77816 9.59478 5.43816 10.005 5.43816C10.4152 5.43816 10.7554 5.77816 10.7554 6.18816V9.43816H14.007C14.4172 9.43816 14.7574 9.77816 14.7574 10.1882C14.7574 10.5982 14.4172 10.9382 14.007 10.9382Z" fill="#FF471F"/>
</svg>
