<svg width="18" height="25" viewBox="0 0 18 25" fill="none" xmlns="http://www.w3.org/2000/svg">
<path d="M8.95077 11.3483C8.83411 11.3367 8.69411 11.3367 8.56577 11.3483C5.78911 11.255 3.58411 8.98 3.58411 6.18C3.58411 3.32167 5.89411 1 8.76411 1C11.6224 1 13.9441 3.32167 13.9441 6.18C13.9324 8.98 11.7274 11.255 8.95077 11.3483Z" stroke="#0C0C0C" stroke-width="1.5" stroke-linecap="round" stroke-linejoin="round"/>
<path d="M3.1175 15.6533C0.294167 17.5433 0.294167 20.6233 3.1175 22.5016C6.32583 24.6483 11.5875 24.6483 14.7958 22.5016C17.6192 20.6116 17.6192 17.5316 14.7958 15.6533C11.5992 13.5183 6.3375 13.5183 3.1175 15.6533Z" stroke="#0C0C0C" stroke-width="1.5" stroke-linecap="round" stroke-linejoin="round"/>
</svg>
