<svg width="20" height="14" viewBox="0 0 20 14" fill="none" xmlns="http://www.w3.org/2000/svg">
<path d="M7.57 13.82C7.76 13.82 7.95 13.75 8.1 13.6C8.39 13.31 8.39 12.83 8.1 12.54L2.56 7L8.1 1.46C8.39 1.17 8.39 0.689995 8.1 0.399995C7.81 0.109995 7.33 0.109995 7.04 0.399995L0.970002 6.47C0.680002 6.76 0.680002 7.24 0.970002 7.52999L7.04 13.6C7.19 13.75 7.38 13.82 7.57 13.82Z" fill="#0C0C0C"/>
<path d="M1.67 7.75H18.5C18.91 7.75 19.25 7.41 19.25 7C19.25 6.59 18.91 6.25 18.5 6.25H1.67C1.26 6.25 0.920004 6.59 0.920004 7C0.920004 7.41 1.26 7.75 1.67 7.75Z" fill="#0C0C0C"/>
</svg>
