<svg width="42" height="42" viewBox="0 0 42 42" fill="none" xmlns="http://www.w3.org/2000/svg">
<rect width="42" height="42" rx="21" fill="white"/>
<rect x="0.5" y="0.5" width="41" height="41" rx="20.5" stroke="#0C0C0C" stroke-opacity="0.3"/>
<g opacity="0.5">
<path d="M18.57 27.82C18.76 27.82 18.95 27.75 19.1 27.6C19.39 27.31 19.39 26.83 19.1 26.54L13.56 21L19.1 15.46C19.39 15.17 19.39 14.69 19.1 14.4C18.81 14.11 18.33 14.11 18.04 14.4L11.97 20.47C11.68 20.76 11.68 21.24 11.97 21.53L18.04 27.6C18.19 27.75 18.38 27.82 18.57 27.82Z" fill="#0C0C0C"/>
<path d="M12.67 21.75H29.5C29.91 21.75 30.25 21.41 30.25 21C30.25 20.59 29.91 20.25 29.5 20.25H12.67C12.26 20.25 11.92 20.59 11.92 21C11.92 21.41 12.26 21.75 12.67 21.75Z" fill="#0C0C0C"/>
</g>
</svg>
