<svg width="15" height="16" viewBox="0 0 15 16" fill="none" xmlns="http://www.w3.org/2000/svg">
<path d="M10.2695 0.237306C10.5879 0.236558 10.8397 0.483935 10.8404 0.813769L10.8411 1.37599C12.9071 1.53791 14.2719 2.9457 14.2741 5.10462L14.2822 11.424C14.2852 13.7778 12.8064 15.2261 10.4361 15.2298L4.64614 15.2373C2.29063 15.2403 0.793344 13.7575 0.790382 11.397L0.782232 5.15185C0.779275 2.97869 2.09588 1.57464 4.16186 1.38498L4.16112 0.822765C4.16038 0.49293 4.40474 0.244804 4.73056 0.244804C5.05638 0.244055 5.30074 0.491431 5.30148 0.821266L5.30222 1.346L9.70077 1.34001L9.70003 0.815269C9.69929 0.485434 9.94365 0.238058 10.2695 0.237306ZM10.5716 10.8812H10.5642C10.2236 10.8895 9.95032 11.1751 9.95772 11.5199C9.95846 11.8647 10.2332 12.1488 10.5738 12.1563C10.9211 12.1556 11.2025 11.87 11.2018 11.5177C11.2018 11.1653 10.9196 10.8812 10.5716 10.8812ZM4.46991 10.882C4.12928 10.897 3.8627 11.1826 3.86344 11.5274C3.87899 11.8722 4.16038 12.1421 4.50101 12.1264C4.83497 12.1114 5.10081 11.8258 5.08526 11.4809C5.07785 11.1436 4.80313 10.8812 4.46991 10.882ZM7.52075 10.8782C7.18012 10.894 6.91428 11.1788 6.91428 11.5237C6.92983 11.8685 7.21122 12.1376 7.55185 12.1226C7.88507 12.1069 8.15165 11.822 8.1361 11.4764C8.1287 11.1398 7.85397 10.8775 7.52075 10.8782ZM4.4662 8.18333C4.12558 8.19832 3.85974 8.48393 3.86048 8.82875C3.87529 9.17358 4.15742 9.44345 4.49805 9.42771C4.83127 9.41271 5.09711 9.12711 5.08156 8.78228C5.07415 8.44495 4.80017 8.18258 4.4662 8.18333ZM7.51779 8.15709C7.17716 8.17208 6.91058 8.45769 6.91132 8.80252C6.92613 9.14735 7.20826 9.41646 7.54889 9.40147C7.88211 9.38573 8.14795 9.10087 8.13314 8.75604C8.12499 8.41871 7.85101 8.15634 7.51779 8.15709ZM10.5686 8.16084C10.228 8.16834 9.96142 8.4457 9.96216 8.79052V8.79877C9.96957 9.1436 10.251 9.40522 10.5923 9.39772C10.9255 9.38947 11.1914 9.10387 11.184 8.75904C11.1684 8.42921 10.9011 8.16009 10.5686 8.16084ZM9.70225 2.49443L5.3037 2.50042L5.30445 3.10687C5.30445 3.42996 5.06082 3.68483 4.735 3.68483C4.40919 3.68558 4.16408 3.43146 4.16408 3.10837L4.16334 2.53116C2.71937 2.67584 1.92038 3.52441 1.9226 5.15035L1.92334 5.38348L13.1344 5.36849V5.10612C13.1026 3.49443 12.294 2.64885 10.8426 2.52291L10.8434 3.10012C10.8434 3.42246 10.5923 3.67808 10.2739 3.67808C9.9481 3.67883 9.70299 3.42396 9.70299 3.10162L9.70225 2.49443Z" fill="#0C0C0C"/>
</svg>
