<svg width="20" height="20" viewBox="0 0 20 20" fill="none" xmlns="http://www.w3.org/2000/svg">
<path d="M14 10.9V15.1C14 18.6 12.6 20 9.1 20H4.9C1.4 20 0 18.6 0 15.1V10.9C0 7.4 1.4 6 4.9 6H9.1C12.6 6 14 7.4 14 10.9Z" fill="#0C0C0C"/>
<path d="M15.1 0H10.9C7.81693 0 6.37099 1.09409 6.06975 3.73901C6.00673 4.29235 6.465 4.75 7.02191 4.75H9.10001C13.3 4.75 15.25 6.7 15.25 10.9V12.9781C15.25 13.535 15.7077 13.9933 16.261 13.9303C18.9059 13.629 20 12.1831 20 9.1V4.9C20 1.4 18.6 0 15.1 0Z" fill="#0C0C0C"/>
</svg>
