<svg width="24" height="24" viewBox="0 0 24 24" fill="none" xmlns="http://www.w3.org/2000/svg">
<path d="M14.488 4.07159C13.9326 3.969 13.4226 4.32342 13.3168 4.86555C13.2111 5.40768 13.5667 5.93698 14.1069 6.04307C15.7336 6.36019 16.9896 7.61933 17.3079 9.25154C17.3985 9.72138 17.8122 10.0641 18.2886 10.0641C18.3525 10.0641 18.4164 10.0583 18.4814 10.0467C19.0217 9.93823 19.3772 9.41009 19.2715 8.8668C18.7963 6.42898 16.9199 4.5461 14.488 4.07159Z" fill="#FF471F"/>
<path d="M14.4154 0.00925139C14.1551 -0.0280563 13.8937 0.0488908 13.6857 0.214444C13.472 0.382329 13.3383 0.624829 13.3093 0.896475C13.2477 1.4456 13.6439 1.94226 14.1923 2.00405C17.9743 2.42609 20.9138 5.37224 21.3391 9.16596C21.396 9.67428 21.8224 10.0579 22.3313 10.0579C22.3697 10.0579 22.4069 10.0555 22.4452 10.0509C22.7113 10.0217 22.9483 9.88997 23.1156 9.68011C23.2818 9.47025 23.3573 9.2091 23.3271 8.94212C22.7972 4.2087 19.1338 0.535057 14.4154 0.00925139Z" fill="#FF471F"/>
<path fill-rule="evenodd" clip-rule="evenodd" d="M10.537 12.8011C15.191 17.4538 16.2467 12.0712 19.2099 15.0323C22.0667 17.8882 23.7086 18.4604 20.0891 22.0788C19.6357 22.4432 16.7552 26.8266 6.63204 16.7063C-3.49239 6.58467 0.888516 3.70118 1.25296 3.24794C4.88118 -0.380513 5.44351 1.27095 8.30024 4.12688C11.2634 7.08924 5.8831 8.14848 10.537 12.8011Z" fill="#FF471F"/>
</svg>
