<svg width="16" height="16" viewBox="0 0 16 16" fill="none" xmlns="http://www.w3.org/2000/svg">
<path d="M5.21729 3.85861C4.90229 3.85861 4.65479 3.60361 4.65479 3.29611V1.20361C4.65479 0.896113 4.90229 0.641113 5.21729 0.641113C5.53229 0.641113 5.77979 0.896113 5.77979 1.20361V3.28861C5.77979 3.60361 5.53229 3.85861 5.21729 3.85861Z" fill="#0C0C0C"/>
<path d="M10.7827 3.85861C10.4677 3.85861 10.2202 3.60361 10.2202 3.29611V1.20361C10.2202 0.888613 10.4752 0.641113 10.7827 0.641113C11.0977 0.641113 11.3452 0.896113 11.3452 1.20361V3.28861C11.3452 3.60361 11.0977 3.85861 10.7827 3.85861Z" fill="#0C0C0C"/>
<path d="M15.1251 11.0061C15.1251 11.1186 15.0876 11.2311 14.9901 11.3286C13.9026 12.4236 11.9676 14.3736 10.8576 15.4911C10.7601 15.5961 10.6326 15.6411 10.5051 15.6411C10.2576 15.6411 10.0176 15.4461 10.0176 15.1611V12.5361C10.0176 11.4411 10.9476 10.5336 12.0876 10.5336C12.8001 10.5261 13.7901 10.5261 14.6376 10.5261C14.9301 10.5261 15.1251 10.7586 15.1251 11.0061Z" fill="#0C0C0C"/>
<path d="M15.1251 11.0061C15.1251 11.1186 15.0876 11.2311 14.9901 11.3286C13.9026 12.4236 11.9676 14.3736 10.8576 15.4911C10.7601 15.5961 10.6326 15.6411 10.5051 15.6411C10.2576 15.6411 10.0176 15.4461 10.0176 15.1611V12.5361C10.0176 11.4411 10.9476 10.5336 12.0876 10.5336C12.8001 10.5261 13.7901 10.5261 14.6376 10.5261C14.9301 10.5261 15.1251 10.7586 15.1251 11.0061Z" fill="#0C0C0C"/>
<path d="M13.6775 2.51611C13.1825 2.14861 12.47 2.50111 12.47 3.12361V3.19861C12.47 4.07611 11.84 4.88611 10.9625 4.97611C9.95 5.08111 9.095 4.28611 9.095 3.29611V2.51611C9.095 2.10361 8.7575 1.76611 8.345 1.76611H7.655C7.2425 1.76611 6.905 2.10361 6.905 2.51611V3.19861C6.905 3.85861 6.5525 4.47361 6.005 4.77361C5.975 4.79611 5.945 4.81111 5.915 4.82611C5.9075 4.82611 5.9075 4.83361 5.9 4.83361C5.8475 4.85611 5.795 4.87861 5.735 4.90111C5.72 4.90861 5.705 4.90861 5.69 4.91611C5.6 4.94611 5.5025 4.96861 5.3975 4.97611H5.39C5.2775 4.99111 5.1575 4.99111 5.045 4.97611H5.0375C4.9325 4.96861 4.835 4.94611 4.745 4.91611C4.67 4.89361 4.595 4.86361 4.52 4.82611C3.935 4.56361 3.53 3.97861 3.53 3.29611V3.12361C3.53 2.54611 2.915 2.20111 2.4275 2.44861C2.42 2.45611 2.4125 2.45611 2.405 2.46361H2.3975C2.345 2.50111 2.3 2.53861 2.2475 2.57611C2.165 2.64361 2.0825 2.71111 2.0075 2.78611C1.955 2.83861 1.9025 2.89111 1.8575 2.94361C1.7975 3.00361 1.745 3.06361 1.6925 3.13111C1.655 3.17611 1.61 3.22111 1.58 3.27361C1.5425 3.31861 1.5125 3.37111 1.4825 3.41611C1.475 3.42361 1.4675 3.43111 1.46 3.44611C1.3925 3.54361 1.3325 3.65611 1.28 3.76111C1.265 3.77611 1.2575 3.78361 1.2575 3.79861C1.2125 3.88861 1.1675 3.97861 1.1375 4.07611C1.115 4.11361 1.1075 4.14361 1.0925 4.18111C1.0775 4.21111 1.07 4.24861 1.055 4.27861C1.0325 4.35361 1.01 4.43611 0.9875 4.51861C0.9575 4.62361 0.935 4.73611 0.92 4.84861C0.905 4.93111 0.8975 5.01361 0.89 5.10361C0.8825 5.20861 0.875 5.31361 0.875 5.41861V11.9886C0.875 14.0061 2.51 15.6411 4.5275 15.6411H8.1425C8.555 15.6411 8.8925 15.3036 8.8925 14.8911V12.5361C8.8925 10.8111 10.325 9.40861 12.0875 9.40861C12.485 9.40111 13.4525 9.40111 14.375 9.40111C14.7875 9.40111 15.125 9.06361 15.125 8.65111V5.41861C15.125 4.22611 14.555 3.18361 13.6775 2.51611ZM7.3475 11.0736C7.28 11.2986 7.07 11.4561 6.8225 11.4561H4.0925C4.055 11.4561 4.025 11.4561 3.995 11.4411C3.725 11.4036 3.53 11.1711 3.53 10.8936C3.53 10.5786 3.7775 10.3236 4.0925 10.3236H6.8225C7.13 10.3236 7.385 10.5786 7.385 10.8936C7.385 10.9536 7.3775 11.0211 7.3475 11.0736ZM9.4325 8.29111C9.365 8.51611 9.155 8.67361 8.9075 8.67361H4.0925C4.055 8.67361 4.025 8.67361 3.995 8.65861C3.725 8.62111 3.53 8.38861 3.53 8.11111C3.53 7.79611 3.7775 7.54111 4.0925 7.54111H8.9075C9.2225 7.54111 9.47 7.79611 9.47 8.11111C9.47 8.17111 9.4625 8.23861 9.4325 8.29111Z" fill="#0C0C0C"/>
</svg>
