<svg width="17" height="14" viewBox="0 0 17 14" fill="none" xmlns="http://www.w3.org/2000/svg">
<path d="M11.8125 13.875H4.3125C1.575 13.875 0 12.3 0 9.5625V4.3125C0 1.575 1.575 0 4.3125 0H11.8125C14.55 0 16.125 1.575 16.125 4.3125V9.5625C16.125 12.3 14.55 13.875 11.8125 13.875ZM4.3125 1.125C2.1675 1.125 1.125 2.1675 1.125 4.3125V9.5625C1.125 11.7075 2.1675 12.75 4.3125 12.75H11.8125C13.9575 12.75 15 11.7075 15 9.5625V4.3125C15 2.1675 13.9575 1.125 11.8125 1.125H4.3125Z" fill="#0C0C0C"/>
<path d="M8.06233 7.58997C7.43233 7.58997 6.79484 7.39498 6.30734 6.99748L3.95983 5.12248C3.71983 4.92748 3.67484 4.57498 3.86984 4.33498C4.06484 4.09498 4.41734 4.04998 4.65734 4.24498L7.00483 6.11998C7.57483 6.57748 8.54233 6.57748 9.11233 6.11998L11.4598 4.24498C11.6998 4.04998 12.0598 4.08748 12.2473 4.33498C12.4423 4.57498 12.4048 4.93498 12.1573 5.12248L9.80983 6.99748C9.32983 7.39498 8.69233 7.58997 8.06233 7.58997Z" fill="#0C0C0C"/>
</svg>
