<svg width="16" height="14" viewBox="0 0 16 14" fill="none" xmlns="http://www.w3.org/2000/svg">
<path d="M14.9375 4.8625C13.205 2.14 10.67 0.5725 8 0.5725C6.665 0.5725 5.3675 0.9625 4.1825 1.69C2.9975 2.425 1.9325 3.4975 1.0625 4.8625C0.3125 6.04 0.3125 7.9525 1.0625 9.13C2.795 11.86 5.33 13.42 8 13.42C9.335 13.42 10.6325 13.03 11.8175 12.3025C13.0025 11.5675 14.0675 10.495 14.9375 9.13C15.6875 7.96 15.6875 6.04 14.9375 4.8625ZM8 10.03C6.32 10.03 4.97 8.6725 4.97 7C4.97 5.3275 6.32 3.97 8 3.97C9.68 3.97 11.03 5.3275 11.03 7C11.03 8.6725 9.68 10.03 8 10.03Z" fill="#0C0C0C"/>
<path d="M8 4.855C6.8225 4.855 5.8625 5.815 5.8625 7C5.8625 8.1775 6.8225 9.1375 8 9.1375C9.1775 9.1375 10.145 8.1775 10.145 7C10.145 5.8225 9.1775 4.855 8 4.855Z" fill="#0C0C0C"/>
</svg>
