<svg width="16" height="16" viewBox="0 0 16 16" fill="none" xmlns="http://www.w3.org/2000/svg">
<path d="M14.9525 5.885C14.735 5.54 14.5025 5.2175 14.2625 4.9175C13.985 4.565 13.46 4.535 13.145 4.85L10.895 7.1C11.06 7.595 11.09 8.165 10.94 8.7575C10.6775 9.815 9.8225 10.67 8.765 10.9325C8.1725 11.0825 7.6025 11.0525 7.1075 10.8875C7.1075 10.8875 6.035 11.96 5.2625 12.7325C4.8875 13.1075 5.0075 13.7675 5.51 13.9625C6.3125 14.27 7.145 14.4275 8 14.4275C9.335 14.4275 10.6325 14.0375 11.8175 13.31C13.025 12.56 14.1125 11.4575 14.99 10.055C15.7025 8.9225 15.665 7.0175 14.9525 5.885Z" fill="#0C0C0C"/>
<path d="M9.515 6.485L6.485 9.515C6.1025 9.125 5.855 8.585 5.855 8C5.855 6.8225 6.815 5.855 8 5.855C8.585 5.855 9.125 6.1025 9.515 6.485Z" fill="#0C0C0C"/>
<path d="M12.6875 3.3125L10.145 5.855C9.5975 5.3 8.84 4.97 8 4.97C6.32 4.97 4.97 6.3275 4.97 8C4.97 8.84 5.3075 9.5975 5.855 10.145L3.32 12.6875H3.3125C2.48 12.0125 1.715 11.15 1.0625 10.13C0.3125 8.9525 0.3125 7.04 1.0625 5.8625C1.9325 4.4975 2.9975 3.425 4.1825 2.69C5.3675 1.97 6.665 1.5725 8 1.5725C9.6725 1.5725 11.2925 2.1875 12.6875 3.3125Z" fill="#0C0C0C"/>
<path d="M10.145 8C10.145 9.1775 9.185 10.145 8 10.145C7.955 10.145 7.9175 10.145 7.8725 10.13L10.13 7.8725C10.145 7.9175 10.145 7.955 10.145 8Z" fill="#0C0C0C"/>
<path d="M15.3275 0.6725C15.1025 0.4475 14.735 0.4475 14.51 0.6725L0.6725 14.5175C0.4475 14.7425 0.4475 15.11 0.6725 15.335C0.785 15.44 0.9275 15.5 1.0775 15.5C1.2275 15.5 1.37 15.44 1.4825 15.3275L15.3275 1.4825C15.56 1.2575 15.56 0.8975 15.3275 0.6725Z" fill="#0C0C0C"/>
</svg>
