<svg width="17" height="12" viewBox="0 0 17 12" fill="none" xmlns="http://www.w3.org/2000/svg">
<path fill-rule="evenodd" clip-rule="evenodd" d="M5.625 5C7.00575 5 8.125 3.88071 8.125 2.5C8.125 1.11929 7.00575 0 5.625 0C4.4601 0 3.48129 0.796733 3.20376 1.875H0.625C0.279825 1.875 0 2.15483 0 2.5C0 2.84518 0.279825 3.125 0.625 3.125H3.20376C3.48129 4.20325 4.4601 5 5.625 5ZM10 2.5C10 2.15483 10.2798 1.875 10.625 1.875H15.625C15.9702 1.875 16.25 2.15483 16.25 2.5C16.25 2.84518 15.9702 3.125 15.625 3.125H10.625C10.2798 3.125 10 2.84518 10 2.5ZM13.0463 9.79167C12.7688 10.8699 11.7899 11.6667 10.625 11.6667C9.24425 11.6667 8.125 10.5474 8.125 9.16667C8.125 7.78592 9.24425 6.66667 10.625 6.66667C11.7899 6.66667 12.7688 7.46342 13.0463 8.54167H15.625C15.9702 8.54167 16.25 8.8215 16.25 9.16667C16.25 9.51183 15.9702 9.79167 15.625 9.79167H13.0463ZM0 9.16667C0 8.8215 0.279825 8.54167 0.625 8.54167H5.625C5.97017 8.54167 6.25 8.8215 6.25 9.16667C6.25 9.51183 5.97017 9.79167 5.625 9.79167H0.625C0.279825 9.79167 0 9.51183 0 9.16667Z" fill="#0C0C0C"/>
</svg>
