<?xml version="1.0" encoding="utf-8"?>
<!-- Generator: Adobe Illustrator 26.0.1, SVG Export Plug-In . SVG Version: 6.00 Build 0)  -->
<svg version="1.1" id="Layer_1" xmlns="http://www.w3.org/2000/svg" xmlns:xlink="http://www.w3.org/1999/xlink" x="0px" y="0px"
	 viewBox="0 0 28 28" style="enable-background:new 0 0 28 28;" xml:space="preserve">
<style type="text/css">
	.st0{fill:#FF471F;}
</style>
<path class="st0" d="M23.5,8.2l-7.2-5.1c-1.6-1.1-4.2-1-5.8,0.2L4.2,8.2c-1,0.8-1.9,2.6-1.9,3.9v8.6c0,2.7,2.2,4.9,4.9,4.9h13.5
	c2.7,0,4.9-2.2,4.9-4.9v-8.5C25.6,10.8,24.7,9,23.5,8.2z M14.8,21c0,0.4-0.3,0.8-0.8,0.8s-0.8-0.3-0.8-0.8v-3.5
	c0-0.4,0.3-0.8,0.8-0.8s0.8,0.3,0.8,0.8V21z"/>
</svg>
