<?xml version="1.0" encoding="utf-8"?>
<!-- Generator: Adobe Illustrator 26.0.1, SVG Export Plug-In . SVG Version: 6.00 Build 0)  -->
<svg version="1.1" id="Layer_1" xmlns="http://www.w3.org/2000/svg" xmlns:xlink="http://www.w3.org/1999/xlink" x="0px" y="0px"
	 viewBox="0 0 28 28" style="enable-background:new 0 0 28 28;" xml:space="preserve">
<style type="text/css">
	.st0{fill:#868686;}
</style>
<g>
	<g>
		<path class="st0" d="M20.7,26.3H7.2c-3.1,0-5.7-2.5-5.7-5.6v-8.6c0-1.5,1-3.5,2.2-4.5L10,2.7c0,0,0,0,0,0c1.9-1.4,4.8-1.5,6.7-0.2
			l7.2,5.1c1.3,0.9,2.4,2.9,2.4,4.6v8.5C26.3,23.8,23.8,26.3,20.7,26.3z M11,3.9L4.7,8.8C3.8,9.5,3,11,3,12.1v8.6
			c0,2.3,1.9,4.1,4.2,4.1h13.5c2.3,0,4.1-1.9,4.1-4.1v-8.5c0-1.2-0.8-2.7-1.8-3.4l-7.2-5.1C14.6,2.8,12.3,2.9,11,3.9z"/>
	</g>
	<g>
		<path class="st0" d="M14,21.8c-0.4,0-0.8-0.3-0.8-0.8v-3.5c0-0.4,0.3-0.8,0.8-0.8s0.8,0.3,0.8,0.8V21C14.8,21.4,14.4,21.8,14,21.8
			z"/>
	</g>
</g>
</svg>
