<svg width="512" height="512" viewBox="0 0 512 512" fill="none" xmlns="http://www.w3.org/2000/svg">
<path d="M462.3 322.3L256 440.3V308.4L320 272.4L347.4 282L399.1 300.2L462.3 322.3Z" fill="#CE3117"/>
<path d="M462.3 136.9V190.8L460.8 193.3L256 308.4V256L415.6 163.8L462.3 136.9Z" fill="#FF471F"/>
<path d="M49.7 136.9L96.1999 163.7L96.0999 163.8V401.9L49.7 375.1V136.9Z" fill="black"/>
<path d="M123.8 179.7L169.2 205.9V444L123.7 417.8V179.7H123.8Z" fill="black"/>
<path d="M256 256V494.2L232.7 480.7L196.8 460V221.8L256 256Z" fill="black"/>
<path d="M368.7 245.1L347.4 282L320 272.4L368.7 245.1Z" fill="#A52413"/>
<path d="M462.3 322.3V375.1L302.6 467.3L256 494.2V440.3L257.8 437.2L347.4 282L368.7 245.1L460.8 193.3L399.1 300.2L349.9 385.4L462.3 322.3Z" fill="#FF471F"/>
<path d="M276.2 91.8L123.8 179.7L96.2 163.7L248.6 75.9L276.2 91.8Z" fill="#B2B2B2"/>
<path d="M123.8 179.7H123.7V390L96.1 401.9L96.2 163.7L123.8 179.7Z" fill="#565555"/>
<path d="M349.2 131.5L196.9 221.9L169.2 205.9L321.6 115.6L349.2 131.5Z" fill="#B2B2B2"/>
<path d="M196.9 221.9H196.8V432.6L169.2 444V205.9L196.9 221.9Z" fill="#565555"/>
<path d="M462.3 136.9L415.6 163.8L256 256L196.8 221.8L347 132.7L319.3 116.7L318 117.5L169.2 205.8V205.9L123.8 179.7L276.2 91.8L248.6 75.9L96.1999 163.7L49.7 136.9L256 17.8L438.9 123.4L461.7 136.6L462.3 136.9Z" fill="#595959"/>
</svg>
