<svg width="15" height="15" viewBox="0 0 15 15" fill="none" xmlns="http://www.w3.org/2000/svg">
<path d="M12.21 5.6475V4.71C12.21 2.685 11.7225 0 7.5 0C3.2775 0 2.79 2.685 2.79 4.71V5.6475C0.69 5.91 0 6.975 0 9.5925V10.9875C0 14.0625 0.9375 15 4.0125 15H10.9875C14.0625 15 15 14.0625 15 10.9875V9.5925C15 6.975 14.31 5.91 12.21 5.6475ZM7.5 12.555C6.2475 12.555 5.235 11.535 5.235 10.29C5.235 9.0375 6.255 8.025 7.5 8.025C8.745 8.025 9.765 9.045 9.765 10.29C9.765 11.5425 8.7525 12.555 7.5 12.555ZM4.0125 5.58C3.9525 5.58 3.9 5.58 3.84 5.58V4.71C3.84 2.5125 4.4625 1.05 7.5 1.05C10.5375 1.05 11.16 2.5125 11.16 4.71V5.5875C11.1 5.5875 11.0475 5.5875 10.9875 5.5875H4.0125V5.58Z" fill="#0C0C0C"/>
</svg>
