<svg width="94" height="101" viewBox="0 0 94 101" fill="none" xmlns="http://www.w3.org/2000/svg">
<path d="M93.8976 27.4149V37.587L46.9616 65.9199L39.7111 61.7329V22.149L20.3936 33.2459L26.8242 37.4586L27.7978 38.075L26.5168 53.6414L0 37.4072V27.4149L46.9616 0.237915L54.1865 4.42492V43.7776L65.0238 37.5099L73.1197 32.8349L66.4585 28.9047L69.2767 13.1585L93.8976 27.4149Z" fill="#FF471F"/>
<path d="M39.2243 70.8518L25.3126 79.3542L13.6555 72.2389V95.871L12.9381 95.46L0 87.497V46.3719L39.2243 70.8518Z" fill="#0C0C0C"/>
<path d="M72.8636 91.4272L59.1824 100.212L46.9617 92.6859L34.664 100.238L20.9829 91.4529L46.9617 75.5782L72.8636 91.4272Z" fill="#0C0C0C"/>
<path d="M93.9999 46.3719V87.497L93.7949 87.5998L80.2419 95.871V72.2389L80.1907 72.2646L68.5848 79.3799L54.6731 70.8518L93.9999 46.3719Z" fill="#0C0C0C"/>
</svg>
