<svg width="18" height="18" viewBox="0 0 18 18" fill="none" xmlns="http://www.w3.org/2000/svg">
<path d="M9.09 10.1475C9.075 10.1475 9.0525 10.1475 9.0375 10.1475C9.015 10.1475 8.985 10.1475 8.9625 10.1475C7.26 10.095 5.985 8.7675 5.985 7.1325C5.985 5.4675 7.3425 4.11 9.0075 4.11C10.6725 4.11 12.03 5.4675 12.03 7.1325C12.0225 8.775 10.74 10.095 9.1125 10.1475C9.0975 10.1475 9.0975 10.1475 9.09 10.1475ZM9 5.2275C7.95 5.2275 7.1025 6.0825 7.1025 7.125C7.1025 8.1525 7.905 8.985 8.925 9.0225C8.9475 9.015 9.0225 9.015 9.0975 9.0225C10.1025 8.97 10.89 8.145 10.8975 7.125C10.8975 6.0825 10.05 5.2275 9 5.2275Z" fill="#0C0C0C"/>
<path d="M9 17.0625C6.9825 17.0625 5.055 16.3125 3.5625 14.9475C3.4275 14.8275 3.3675 14.6475 3.3825 14.475C3.48 13.5825 4.035 12.75 4.9575 12.135C7.1925 10.65 10.815 10.65 13.0425 12.135C13.965 12.7575 14.52 13.5825 14.6175 14.475C14.64 14.655 14.5725 14.8275 14.4375 14.9475C12.945 16.3125 11.0175 17.0625 9 17.0625ZM4.56 14.325C5.805 15.3675 7.3725 15.9375 9 15.9375C10.6275 15.9375 12.195 15.3675 13.44 14.325C13.305 13.8675 12.945 13.425 12.4125 13.065C10.5675 11.835 7.44 11.835 5.58 13.065C5.0475 13.425 4.695 13.8675 4.56 14.325Z" fill="#0C0C0C"/>
<path d="M9 17.0625C4.5525 17.0625 0.9375 13.4475 0.9375 9C0.9375 4.5525 4.5525 0.9375 9 0.9375C13.4475 0.9375 17.0625 4.5525 17.0625 9C17.0625 13.4475 13.4475 17.0625 9 17.0625ZM9 2.0625C5.175 2.0625 2.0625 5.175 2.0625 9C2.0625 12.825 5.175 15.9375 9 15.9375C12.825 15.9375 15.9375 12.825 15.9375 9C15.9375 5.175 12.825 2.0625 9 2.0625Z" fill="#0C0C0C"/>
</svg>
