<svg width="12" height="14" viewBox="0 0 12 14" fill="none" xmlns="http://www.w3.org/2000/svg">
<path d="M6.00005 8.266C4.75755 8.266 3.74255 7.25684 3.74255 6.0085C3.74255 4.76017 4.75755 3.75684 6.00005 3.75684C7.24255 3.75684 8.25755 4.766 8.25755 6.01434C8.25755 7.26267 7.24255 8.266 6.00005 8.266ZM6.00005 4.63184C5.24172 4.63184 4.61755 5.25017 4.61755 6.01434C4.61755 6.7785 5.23589 7.39684 6.00005 7.39684C6.76422 7.39684 7.38255 6.7785 7.38255 6.01434C7.38255 5.25017 6.75839 4.63184 6.00005 4.63184Z" fill="#0C0C0C"/>
<path d="M5.99998 13.2765C5.13665 13.2765 4.26748 12.9498 3.59081 12.3023C1.86998 10.6457 -0.0316859 8.00317 0.685814 4.859C1.33331 2.0065 3.82415 0.729004 5.99998 0.729004C5.99998 0.729004 5.99998 0.729004 6.00581 0.729004C8.18165 0.729004 10.6725 2.0065 11.32 4.86484C12.0316 8.009 10.13 10.6457 8.40915 12.3023C7.73248 12.9498 6.86331 13.2765 5.99998 13.2765ZM5.99998 1.604C4.30248 1.604 2.12081 2.50817 1.54331 5.0515C0.913314 7.799 2.63998 10.1673 4.20331 11.6665C5.21248 12.6407 6.79331 12.6407 7.80248 11.6665C9.35998 10.1673 11.0866 7.799 10.4683 5.0515C9.88498 2.50817 7.69748 1.604 5.99998 1.604Z" fill="#0C0C0C"/>
</svg>
