<svg width="17" height="17" viewBox="0 0 17 17" fill="none" xmlns="http://www.w3.org/2000/svg">
<path d="M10.155 13.635C10.0725 13.635 9.98249 13.6125 9.90749 13.575C9.62999 13.4325 9.51748 13.095 9.65248 12.8175L11.2575 9.61501C11.355 9.42751 11.55 9.30753 11.76 9.30753C11.97 9.30753 12.165 9.42751 12.2625 9.62251L13.8675 12.825C14.01 13.1025 13.8975 13.44 13.6125 13.5825C13.335 13.725 12.9975 13.6125 12.855 13.3275L11.76 11.13L10.665 13.3275C10.56 13.5225 10.3575 13.635 10.155 13.635Z" fill="#0C0C0C"/>
<path d="M13.0726 13.0649H10.4326C10.1251 13.0649 9.87012 12.8099 9.87012 12.5024C9.87012 12.1949 10.1251 11.9399 10.4326 11.9399H13.0726C13.3801 11.9399 13.6351 12.1949 13.6351 12.5024C13.6351 12.8099 13.3876 13.0649 13.0726 13.0649Z" fill="#0C0C0C"/>
<path d="M11.7524 16.1326C9.34488 16.1326 7.37988 14.175 7.37988 11.76C7.37988 9.34504 9.33738 7.38757 11.7524 7.38757C14.1599 7.38757 16.1249 9.34504 16.1249 11.76C16.1249 14.175 14.1674 16.1326 11.7524 16.1326ZM11.7524 8.52003C9.95988 8.52003 8.50488 9.97505 8.50488 11.7675C8.50488 13.56 9.95988 15.0151 11.7524 15.0151C13.5374 15.0151 14.9999 13.56 14.9999 11.7675C14.9999 9.97505 13.5449 8.52003 11.7524 8.52003Z" fill="#0C0C0C"/>
<path d="M2.7075 8.59502C1.875 8.59502 1.215 8.36249 0.75 7.91249C0.255 7.43249 0 6.705 0 5.7675V2.82751C0 1.00501 1.005 0 2.8275 0H5.7675C6.705 0 7.425 0.2475 7.9125 0.75C8.385 1.2375 8.61751 1.94253 8.59501 2.84253V5.7675C8.61751 6.6825 8.385 7.40251 7.8975 7.89001C7.41 8.37751 6.68999 8.60251 5.75999 8.58751H2.835C2.7825 8.59501 2.745 8.59502 2.7075 8.59502ZM2.8275 1.13251C1.62 1.13251 1.125 1.62752 1.125 2.83502V5.77501C1.125 6.39751 1.25999 6.84749 1.52999 7.10999C1.7925 7.36499 2.2125 7.47752 2.805 7.47002H5.75999C6.38999 7.48502 6.825 7.35752 7.0875 7.09502C7.35 6.83252 7.47 6.39002 7.455 5.78252V2.82751C7.47 2.22751 7.35001 1.79999 7.09501 1.53749C6.83251 1.26749 6.38249 1.13251 5.75999 1.13251H2.8275Z" fill="#0C0C0C"/>
<path d="M5.81245 4.0199H2.76746C2.45996 4.0199 2.20496 3.7649 2.20496 3.4574C2.20496 3.1499 2.45996 2.8949 2.76746 2.8949H5.81245C6.11995 2.8949 6.37495 3.1499 6.37495 3.4574C6.37495 3.7649 6.12745 4.0199 5.81245 4.0199Z" fill="#0C0C0C"/>
<path d="M4.29749 4.01994C3.98999 4.01994 3.73499 3.76494 3.73499 3.45744V2.94745C3.73499 2.63995 3.98999 2.38495 4.29749 2.38495C4.60499 2.38495 4.85999 2.63995 4.85999 2.94745V3.45744C4.85999 3.76494 4.60499 4.01994 4.29749 4.01994Z" fill="#0C0C0C"/>
<path d="M2.76746 6.38997C2.45996 6.38997 2.20496 6.13497 2.20496 5.82747C2.20496 5.51997 2.45996 5.26497 2.76746 5.26497C3.71996 5.26497 4.49246 4.45498 4.49246 3.44998C4.49246 3.14248 4.74746 2.88748 5.05496 2.88748C5.36246 2.88748 5.61746 3.14248 5.61746 3.44998C5.61746 5.06998 4.34246 6.38997 2.76746 6.38997Z" fill="#0C0C0C"/>
<path d="M5.81995 6.38997C5.12245 6.38997 4.45495 6.03747 3.98245 5.41497C3.79495 5.16747 3.84746 4.81494 4.09496 4.62744C4.34246 4.43994 4.69495 4.49246 4.88245 4.73996C5.13745 5.08496 5.47495 5.27247 5.81995 5.27247C6.12745 5.27247 6.38245 5.52747 6.38245 5.83497C6.38245 6.14247 6.12745 6.38997 5.81995 6.38997Z" fill="#0C0C0C"/>
<path d="M5.8125 16.1325C2.61 16.1325 0 13.5225 0 10.32C0 10.0125 0.255 9.75751 0.5625 9.75751C0.87 9.75751 1.125 10.0125 1.125 10.32C1.125 12.54 2.67 14.4 4.7475 14.8875L4.545 14.55C4.3875 14.28 4.47001 13.935 4.74001 13.7775C5.00251 13.62 5.355 13.7025 5.5125 13.9725L6.3 15.285C6.405 15.4575 6.405 15.675 6.3075 15.8475C6.2025 16.02 6.015 16.1325 5.8125 16.1325Z" fill="#0C0C0C"/>
<path d="M15.5625 6.38251C15.255 6.38251 15 6.12751 15 5.82001C15 3.60001 13.455 1.73999 11.3775 1.25249L11.58 1.59C11.7375 1.86 11.6549 2.20502 11.3849 2.36252C11.1224 2.52002 10.7699 2.43751 10.6124 2.16751L9.82496 0.855011C9.71996 0.682511 9.71995 0.465011 9.81745 0.292511C9.91495 0.112511 10.1025 0.00750732 10.305 0.00750732C13.5075 0.00750732 16.1175 2.61751 16.1175 5.82001C16.125 6.12751 15.87 6.38251 15.5625 6.38251Z" fill="#0C0C0C"/>
</svg>
