<svg width="17" height="16" viewBox="0 0 17 16" fill="none" xmlns="http://www.w3.org/2000/svg">
<path d="M11.43 15.7025H11.3325C8.0025 15.7025 6.3975 14.39 6.12 11.45C6.09 11.1425 6.315 10.865 6.63 10.835C6.9375 10.805 7.215 11.0375 7.245 11.345C7.4625 13.7 8.5725 14.5775 11.34 14.5775H11.4375C14.49 14.5775 15.57 13.4975 15.57 10.445V5.55499C15.57 2.50249 14.49 1.42249 11.4375 1.42249H11.34C8.5575 1.42249 7.4475 2.31499 7.245 4.71499C7.2075 5.02249 6.9525 5.25499 6.63 5.22499C6.315 5.20249 6.09 4.92498 6.1125 4.61749C6.3675 1.63249 7.98 0.297485 11.3325 0.297485H11.43C15.1125 0.297485 16.6875 1.87249 16.6875 5.55499V10.445C16.6875 14.1275 15.1125 15.7025 11.43 15.7025Z" fill="#0C0C0C"/>
<path d="M11.16 8.56249H1.5C1.1925 8.56249 0.9375 8.30749 0.9375 7.99999C0.9375 7.69249 1.1925 7.43749 1.5 7.43749H11.16C11.4675 7.43749 11.7225 7.69249 11.7225 7.99999C11.7225 8.30749 11.475 8.56249 11.16 8.56249Z" fill="#0C0C0C"/>
<path d="M9.4875 11.075C9.345 11.075 9.2025 11.0225 9.09 10.91C8.8725 10.6925 8.8725 10.3325 9.09 10.115L11.205 7.99999L9.09 5.88499C8.8725 5.66749 8.8725 5.30748 9.09 5.08998C9.3075 4.87248 9.6675 4.87248 9.885 5.08998L12.3975 7.60249C12.615 7.81999 12.615 8.17998 12.3975 8.39748L9.885 10.91C9.7725 11.0225 9.63 11.075 9.4875 11.075Z" fill="#0C0C0C"/>
</svg>
