<svg width="20" height="15" viewBox="0 0 20 15" fill="none" xmlns="http://www.w3.org/2000/svg">
<path d="M1.24997 1.5H10.72C11.13 1.5 11.47 1.16 11.47 0.75C11.47 0.34 11.13 0 10.72 0H1.24997C0.83997 0 0.49997 0.34 0.49997 0.75C0.49997 1.16 0.83997 1.5 1.24997 1.5Z" fill="#0C0C0C"/>
<path d="M1.25 8H19.25C19.66 8 20 7.66 20 7.25C20 6.84 19.66 6.5 19.25 6.5H1.25C0.84 6.5 0.5 6.84 0.5 7.25C0.5 7.66 0.84 8 1.25 8Z" fill="#0C0C0C"/>
<path d="M1.24997 14.5H10.72C11.13 14.5 11.47 14.16 11.47 13.75C11.47 13.34 11.13 13 10.72 13H1.24997C0.83997 13 0.49997 13.34 0.49997 13.75C0.49997 14.16 0.83997 14.5 1.24997 14.5Z" fill="#0C0C0C"/>
</svg>
