<svg width="12" height="15" viewBox="0 0 12 15" fill="none" xmlns="http://www.w3.org/2000/svg">
<path d="M10.17 2.6175V3.1725L7.51502 1.635C6.51002 1.0575 5.10752 1.0575 4.11002 1.635L1.45502 3.18V2.6175C1.45502 0.93 2.37752 0 4.06502 0H7.56002C9.24752 0 10.17 0.93 10.17 2.6175Z" fill="#0C0C0C"/>
<path d="M10.1925 4.47743L10.0875 4.42493L9.0675 3.83993L6.9525 2.61743C6.3075 2.24243 5.3175 2.24243 4.6725 2.61743L2.5575 3.83243L1.5375 4.43243L1.4025 4.49993C0.0899999 5.38493 0 5.54993 0 6.96743V10.3574C0 11.7749 0.0899999 11.9399 1.4325 12.8474L4.6725 14.7149C4.995 14.9099 5.4 14.9924 5.8125 14.9924C6.2175 14.9924 6.63 14.9024 6.9525 14.7149L10.2225 12.8249C11.5425 11.9399 11.625 11.7824 11.625 10.3574V6.96743C11.625 5.54993 11.535 5.38493 10.1925 4.47743ZM7.905 8.62493L7.4475 9.18743C7.3725 9.26993 7.32 9.42743 7.3275 9.53993L7.3725 10.2599C7.4025 10.7024 7.0875 10.9274 6.675 10.7699L6.0075 10.4999C5.9025 10.4624 5.73 10.4624 5.625 10.4999L4.9575 10.7624C4.545 10.9274 4.23 10.6949 4.26 10.2524L4.305 9.53243C4.3125 9.41993 4.26 9.26243 4.185 9.17993L3.72 8.62493C3.435 8.28743 3.5625 7.91243 3.99 7.79993L4.6875 7.61993C4.8 7.58993 4.9275 7.48493 4.9875 7.39493L5.3775 6.79493C5.6175 6.41993 6 6.41993 6.2475 6.79493L6.6375 7.39493C6.6975 7.49243 6.8325 7.58993 6.9375 7.61993L7.635 7.79993C8.0625 7.91243 8.19 8.28743 7.905 8.62493Z" fill="#0C0C0C"/>
</svg>
