<svg width="18" height="22" viewBox="0 0 18 22" fill="none" xmlns="http://www.w3.org/2000/svg">
<path d="M9.01999 19.5301C6.68999 19.5301 4.35999 19.1601 2.14999 18.4201C1.30999 18.1301 0.669991 17.5401 0.389991 16.7701C0.0999912 16.0001 0.199991 15.1501 0.659991 14.3901L1.80999 12.4801C2.04999 12.0801 2.26999 11.2801 2.26999 10.8101V7.92005C2.26999 4.20005 5.29999 1.17005 9.01999 1.17005C12.74 1.17005 15.77 4.20005 15.77 7.92005V10.8101C15.77 11.2701 15.99 12.0801 16.23 12.4901L17.37 14.3901C17.8 15.1101 17.88 15.9801 17.59 16.7701C17.3 17.5601 16.67 18.1601 15.88 18.4201C13.68 19.1601 11.35 19.5301 9.01999 19.5301ZM9.01999 2.67005C6.12999 2.67005 3.76999 5.02005 3.76999 7.92005V10.8101C3.76999 11.5401 3.46999 12.6201 3.09999 13.2501L1.94999 15.1601C1.72999 15.5301 1.66999 15.9201 1.79999 16.2501C1.91999 16.5901 2.21999 16.8501 2.62999 16.9901C6.80999 18.3901 11.24 18.3901 15.42 16.9901C15.78 16.8701 16.06 16.6001 16.19 16.2401C16.32 15.8801 16.29 15.4901 16.09 15.1601L14.94 13.2501C14.56 12.6001 14.27 11.5301 14.27 10.8001V7.92005C14.27 5.02005 11.92 2.67005 9.01999 2.67005Z" fill="#0C0C0C"/>
<path d="M10.88 2.94005C10.81 2.94005 10.74 2.93005 10.67 2.91005C10.38 2.83005 10.1 2.77005 9.82999 2.73005C8.97999 2.62005 8.15999 2.68005 7.38999 2.91005C7.10999 3.00005 6.80999 2.91005 6.61999 2.70005C6.42999 2.49005 6.36999 2.19005 6.47999 1.92005C6.88999 0.870054 7.88999 0.180054 9.02999 0.180054C10.17 0.180054 11.17 0.860054 11.58 1.92005C11.68 2.19005 11.63 2.49005 11.44 2.70005C11.29 2.86005 11.08 2.94005 10.88 2.94005Z" fill="#0C0C0C"/>
<path d="M9.01999 21.8101C8.02999 21.8101 7.06999 21.4101 6.36999 20.7101C5.66999 20.0101 5.26999 19.0501 5.26999 18.0601H6.76999C6.76999 18.6501 7.00999 19.2301 7.42999 19.6501C7.84999 20.0701 8.42999 20.3101 9.01999 20.3101C10.26 20.3101 11.27 19.3001 11.27 18.0601H12.77C12.77 20.1301 11.09 21.8101 9.01999 21.8101Z" fill="#0C0C0C"/>
</svg>
