<svg width="375" height="383" viewBox="0 0 375 383" fill="none" xmlns="http://www.w3.org/2000/svg">
<path d="M0 0H375V383C375 383 250.14 372.737 170 373.5C103.51 374.133 0 383 0 383V0Z" fill="#CBEDF7"/>
<mask id="mask0_109_415" style="mask-type:alpha" maskUnits="userSpaceOnUse" x="0" y="0" width="375" height="383">
<path d="M0 0H375V383C375 383 250.14 372.737 170 373.5C103.51 374.133 0 383 0 383V0Z" fill="#CBEDF7"/>
</mask>
<g mask="url(#mask0_109_415)">
<path d="M237 125.284H287.508C288.183 124.116 288.569 122.76 288.569 121.313C288.569 116.924 285.01 113.365 280.62 113.365C279.294 113.365 278.046 113.691 276.947 114.265C276.457 107.962 271.187 103 264.759 103C258.007 103 252.533 108.474 252.533 115.226C252.533 116.986 252.906 118.658 253.575 120.171C248.056 121.921 242.644 124.064 237 125.284Z" fill="#0C0C0C" fill-opacity="0.2"/>
<path d="M292.838 311.254C288.754 322.84 275.591 329.879 263.713 327.179H263.708C258.079 325.899 252.741 322.429 248.798 316.222L250.338 341.824L161.581 341.304L160.744 323.235L155.989 220.843L178.464 221.166L244.698 222.118L245.057 222.123C254.999 222.263 264.036 227.409 269.296 235.535C270.409 237.252 271.351 239.109 272.1 241.076L292.333 294.423C294.674 300.588 294.575 306.332 292.838 311.254Z" fill="#FF6E4F"/>
<path d="M218.388 246.685L240.651 315.108C241.39 317.379 241.587 319.791 241.228 322.151C240.172 329.087 234.54 334.418 227.557 335.092L163.141 341.304L250.34 341.824L248.798 316.22L218.388 246.685Z" fill="#FF5D39"/>
<path d="M205.126 164.164L180.367 172.546C171.743 213.926 189.639 213.019 189.639 213.019L189.275 219.399C189.24 220.014 189.247 220.632 189.297 221.246C189.897 228.62 196.36 234.111 203.734 233.512H203.734C211.108 232.912 216.599 226.449 215.999 219.075L213.765 191.607L218.559 191.218C222.573 190.891 225.563 187.372 225.236 183.357C225.215 183.094 225.181 182.831 225.136 182.57C224.311 177.83 219.801 174.656 215.06 175.48L212.555 175.916L205.126 164.164Z" fill="#FFC1C2"/>
<path d="M172.384 163.724C172.719 160.878 175.166 158.437 178.453 157.287C178.196 156.463 175.495 147.3 180.901 141.421C183.892 138.17 187.868 137.55 189.856 137.239C202.329 135.293 213.242 145.807 215.421 147.906C218.309 150.689 217.545 150.838 224.546 158.769C225.588 159.95 227.181 161.732 228.524 164.538C228.524 164.538 229.952 167.523 230.488 171.081C231.289 176.402 226.256 188.769 214.98 201.689L214.131 191.251L218.764 190.875L218.771 190.874C222.12 190.594 224.916 188.005 225.2 184.657C225.261 183.942 225.228 183.227 225.106 182.525C224.309 177.95 219.955 174.887 215.379 175.684C213.969 175.928 212.92 177.122 212.858 178.551L212.683 182.59C212.668 182.952 212.404 183.266 212.025 183.33C211.676 183.39 211.334 183.182 211.178 182.864L206.56 173.457C206.536 173.407 206.51 173.358 206.481 173.309C205.848 172.22 204.452 171.85 203.362 172.484C199.521 174.717 188.537 176.95 181.515 174.692C177.756 173.483 175.525 170.815 174.91 170.041C173.802 168.649 172.061 166.463 172.384 163.724Z" fill="#0C0C0C"/>
<path d="M156.188 208.838C156.188 208.838 159.956 187.35 168.47 186.483C176.983 185.617 178.154 196.051 178.154 196.051L176.432 210.064L156.188 208.838Z" fill="#FFC1C2"/>
<path d="M173.714 198.685L175.216 203.655C175.445 204.39 175.562 205.156 175.562 205.926C175.562 206.773 174.896 207.471 174.05 207.51L156.188 208.838L176.432 210.065L177.964 197.594L173.714 198.685Z" fill="#EE9C9E"/>
<path d="M161.577 186.358C161.577 187.543 161.225 188.662 160.626 189.6C159.832 190.811 158.595 191.735 157.124 192.113L113.015 203.439C111.531 203.817 110.047 203.999 108.589 203.999H108.445C99.0718 203.921 91 196.292 91 186.358C91 174.849 101.858 166.413 113.015 169.29L157.124 180.617C158.426 180.955 159.546 181.71 160.327 182.726C161.121 183.741 161.577 185.004 161.577 186.358Z" fill="#77BBCB"/>
<path d="M160.626 189.6C159.832 190.811 158.595 191.735 157.124 192.113L113.015 203.439C111.531 203.817 110.047 203.999 108.589 203.999H108.445L99.0848 188.103L160.613 189.574L160.626 189.6Z" fill="#589FAD"/>
<path d="M108.762 204.007C118.44 204.007 126.286 196.161 126.286 186.483C126.286 176.805 118.44 168.96 108.762 168.96C99.0844 168.96 91.2389 176.805 91.2389 186.483C91.2389 196.161 99.0844 204.007 108.762 204.007Z" fill="#9BCFDC"/>
<path d="M108.762 200.868C116.707 200.868 123.147 194.428 123.147 186.483C123.147 178.538 116.707 172.098 108.762 172.098C100.817 172.098 94.377 178.538 94.377 186.483C94.377 194.428 100.817 200.868 108.762 200.868Z" fill="#589FAD"/>
<path d="M205.842 186.358C205.842 187.543 205.49 188.662 204.892 189.6C204.097 190.811 202.86 191.735 201.39 192.113L157.281 203.439C155.796 203.817 154.312 203.999 152.854 203.999H152.711C143.337 203.921 135.265 196.292 135.265 186.358C135.265 174.849 146.123 166.413 157.281 169.29L201.39 180.617C202.691 180.955 203.811 181.71 204.592 182.726C205.386 183.741 205.842 185.004 205.842 186.358Z" fill="#77BBCB"/>
<path d="M204.892 189.6C204.097 190.811 202.86 191.735 201.39 192.113L157.281 203.439C155.796 203.817 154.312 203.999 152.854 203.999H152.711L143.35 188.103L204.879 189.574L204.892 189.6Z" fill="#589FAD"/>
<path d="M153.027 204.007C162.705 204.007 170.551 196.161 170.551 186.483C170.551 176.805 162.705 168.96 153.027 168.96C143.35 168.96 135.504 176.805 135.504 186.483C135.504 196.161 143.35 204.007 153.027 204.007Z" fill="#9BCFDC"/>
<path d="M153.027 200.868C160.972 200.868 167.413 194.428 167.413 186.483C167.413 178.538 160.972 172.098 153.027 172.098C145.083 172.098 138.642 178.538 138.642 186.483C138.642 194.428 145.083 200.868 153.027 200.868Z" fill="#589FAD"/>
<path d="M197.174 193.619L204.126 208.849L226.127 208.311C226.127 208.311 211.945 173.319 189.266 177.507C189.266 177.507 200.405 182.891 197.174 193.619Z" fill="#FFC1C2"/>
<path d="M197.174 193.619L204.126 208.849L226.127 208.311L211.792 206.274C207.485 205.662 203.777 202.921 201.928 198.982C200.542 196.028 199.752 192.845 199.429 189.597C198.419 179.443 189.266 177.506 189.266 177.506C189.266 177.506 200.405 182.891 197.174 193.619Z" fill="#EE9C9E"/>
<path d="M229.586 207.663L204.614 208.776C203.289 208.835 202.435 210.206 202.966 211.422L212.646 233.556L242.828 232.137L231.891 209.051C231.473 208.167 230.564 207.62 229.586 207.663Z" fill="#FF6E4F"/>
<path d="M238.638 221.6L237.463 222.157L274.951 301.303L276.127 300.746L238.638 221.6Z" fill="#FF5D39"/>
<path d="M211.863 230.146L210.671 230.668L248.199 316.477L249.392 315.956L211.863 230.146Z" fill="#FF5D39"/>
<path d="M221.226 184.47C221.232 184.446 221.833 181.968 220.557 180.576C219.709 179.652 218.178 179.36 216.002 179.709L215.788 178.369C218.445 177.945 220.389 178.38 221.562 179.665C223.33 181.604 222.574 184.674 222.54 184.804L221.226 184.47Z" fill="#EE9C9E"/>
<path d="M189.269 219.482C194.5 218.612 199.266 215.95 202.75 211.952C198.778 213.645 189.637 213.018 189.637 213.018L189.269 219.482Z" fill="#EE9C9E"/>
<path d="M188.216 203.57L187.876 202.396C189.387 201.959 190.938 201.603 192.484 201.339C194.007 201.078 195.562 200.901 197.104 200.811L197.176 202.031C195.678 202.118 194.168 202.29 192.69 202.543C191.188 202.8 189.683 203.145 188.216 203.57Z" fill="#EE9C9E"/>
<path d="M215.738 191.801L216.767 191.005C208.246 179.991 198.696 175.101 189.148 176.867L189.385 178.146C200.806 176.036 210.018 184.407 215.738 191.801Z" fill="#EE9C9E"/>
<path d="M179.791 212.951L178.464 221.166L162.919 317.247C162.565 319.432 161.816 321.446 160.744 323.235C160.015 324.468 159.136 325.592 158.137 326.591C155 329.718 150.692 331.58 146.104 331.58C144.855 331.58 143.586 331.44 142.311 331.154C135.782 329.671 130.969 324.614 129.507 318.496C128.946 316.175 128.868 313.704 129.362 311.212L149.251 210.787C149.532 209.366 150.823 208.378 152.264 208.466L177.455 210.027C178.943 210.121 180.03 211.473 179.791 212.951Z" fill="#FF6E4F"/>
<path d="M149.056 211.575L148.985 212.352L179.461 215.14L179.532 214.363L149.056 211.575Z" fill="#FF5D39"/>
<path d="M233.248 211.562L203.79 212.945L203.827 213.725L233.284 212.342L233.248 211.562Z" fill="#FF5D39"/>
<path d="M158.137 326.591C155 329.718 150.692 331.58 146.104 331.58C144.855 331.58 143.586 331.44 142.311 331.154C135.782 329.671 130.969 324.614 129.507 318.496C132.624 315.697 136.749 313.99 141.265 313.99C149.246 313.99 155.989 319.307 158.137 326.591Z" fill="#FF5D39"/>
<path d="M292.838 311.254C288.754 322.84 275.591 329.879 263.714 327.179H263.708C263.558 326.253 263.479 325.301 263.479 324.328C263.479 314.609 271.351 306.738 281.069 306.738C285.591 306.738 289.721 308.444 292.838 311.254Z" fill="#FF5D39"/>
<path d="M269.296 235.535C267.095 236.519 264.655 237.07 262.09 237.07C253.272 237.07 245.967 230.582 244.698 222.118L245.057 222.123C254.999 222.263 264.036 227.409 269.296 235.535Z" fill="#FF5D39"/>
<path d="M177.88 220.733L161.889 319.581L163.174 319.789L179.164 220.941L177.88 220.733Z" fill="#FF5D39"/>
<path d="M253.159 377.727C227.61 391.457 198.824 401.368 170.199 406.903C164.955 407.923 159.711 408.792 154.498 409.505L159.945 357.021L160.023 356.267L161.578 341.304L167.353 341.34L168.914 341.346L195.9 341.507H196.633L203.272 341.548L204.833 341.559L241.043 341.772H241.36L250.34 341.824L250.85 348.291L253.159 377.727Z" fill="#00335F"/>
<path d="M161.58 341.304L250.848 348.289L250.34 341.825L161.58 341.304Z" fill="#6D6D6D"/>
<path d="M203.272 377.488V398.548C200.723 399.349 198.158 400.114 195.588 400.842L203.272 377.488Z" fill="#0C0C0C"/>
<path d="M204.05 374.514H202.489V398.578H204.05V374.514Z" fill="#6D6D6D"/>
<path d="M204.83 341.523H203.269V357.139H204.83V341.523Z" fill="#6D6D6D"/>
<path d="M201.467 352.444C199.888 352.444 198.598 351.975 197.617 351.04C194.524 348.094 195.871 341.632 195.929 341.359L197.455 341.686C197.443 341.745 196.233 347.569 198.695 349.911C199.783 350.945 201.517 351.154 203.849 350.532L204.252 352.04C203.242 352.309 202.313 352.444 201.467 352.444Z" fill="#6D6D6D"/>
<path d="M250.803 358.957C248.504 358.957 246.594 358.182 245.114 356.648C240.666 352.035 241.769 342.153 241.817 341.734L243.368 341.915C243.357 342.011 242.302 351.487 246.239 355.565C247.581 356.957 249.322 357.545 251.554 357.365L251.679 358.92C251.381 358.945 251.089 358.957 250.803 358.957Z" fill="#6D6D6D"/>
<path d="M161.257 357.153C160.81 357.153 160.348 357.103 159.87 357.003L160.189 355.475C161.59 355.767 162.752 355.509 163.74 354.687C167.554 351.509 167.355 341.424 167.352 341.323L168.913 341.285C168.924 341.73 169.126 352.23 164.738 355.886C163.728 356.729 162.56 357.153 161.257 357.153Z" fill="#6D6D6D"/>
<path d="M6.08139 134.721C2.18732 134.721 -0.980347 137.889 -0.980347 141.784C-0.980347 145.678 2.18732 148.846 6.08139 148.846C9.97545 148.846 13.1436 145.678 13.1436 141.784C13.1431 137.889 9.97545 134.721 6.08139 134.721ZM6.08139 145.709C3.91344 145.709 2.15643 143.951 2.15643 141.784C2.15643 139.616 3.91391 137.859 6.08139 137.859C8.24934 137.859 10.0068 139.616 10.0068 141.784C10.0068 143.951 8.24934 145.709 6.08139 145.709Z" fill="#0C0C0C" fill-opacity="0.15"/>
<path d="M17.8226 145.425L14.698 142.754C14.7336 142.435 14.7523 142.112 14.7523 141.783C14.7523 141.455 14.7336 141.132 14.698 140.813L17.8226 138.142C18.1788 137.837 18.2672 137.323 18.0327 136.917L16.2715 133.866C16.0375 133.46 15.547 133.28 15.1052 133.436L11.2298 134.807C10.7103 134.423 10.1473 134.096 9.54865 133.835L8.79838 129.795C8.71273 129.334 8.31116 129 7.84265 129H4.32021C3.8517 129 3.45013 129.334 3.36448 129.795L2.61422 133.835C2.0156 134.096 1.45208 134.423 0.933026 134.807L-2.94278 133.436C-3.38414 133.28 -3.87465 133.46 -4.10866 133.866L-5.86989 136.917C-6.10391 137.323 -6.01545 137.837 -5.65927 138.142L-2.53419 140.813C-2.56976 141.132 -2.58848 141.456 -2.58848 141.783C-2.58848 142.112 -2.56976 142.435 -2.53419 142.754L-5.65927 145.425C-6.01545 145.729 -6.10391 146.244 -5.86989 146.65L-4.10866 149.701C-3.87465 150.107 -3.38414 150.287 -2.94278 150.131L0.933026 148.761C1.45208 149.144 2.0156 149.471 2.61422 149.733L3.36448 153.773C3.45013 154.233 3.8517 154.567 4.32021 154.567H7.84265C8.31116 154.567 8.71273 154.233 8.79838 153.773L9.54865 149.733C10.1473 149.471 10.7108 149.144 11.2298 148.761L15.1052 150.131C15.547 150.288 16.037 150.107 16.2715 149.701L18.0327 146.65C18.2672 146.244 18.1788 145.729 17.8226 145.425ZM6.08143 149.173C2.00717 149.173 -1.30746 145.858 -1.30746 141.784C-1.30746 137.71 2.00717 134.395 6.08143 134.395C10.1557 134.395 13.4703 137.71 13.4703 141.784C13.4703 145.858 10.1557 149.173 6.08143 149.173Z" fill="#0C0C0C" fill-opacity="0.15"/>
<path d="M103.081 345.722C99.1868 345.722 96.0192 348.89 96.0192 352.784C96.0192 356.678 99.1868 359.846 103.081 359.846C106.975 359.846 110.143 356.678 110.143 352.784C110.143 348.89 106.975 345.722 103.081 345.722ZM103.081 356.709C100.913 356.709 99.1555 354.952 99.1555 352.784C99.1555 350.616 100.913 348.859 103.081 348.859C105.249 348.859 107.006 350.617 107.006 352.784C107.006 354.952 105.249 356.709 103.081 356.709Z" fill="#0C0C0C" fill-opacity="0.15"/>
<path d="M114.823 356.426L111.698 353.755C111.733 353.436 111.752 353.112 111.752 352.784C111.752 352.456 111.733 352.132 111.698 351.813L114.823 349.142C115.179 348.837 115.267 348.323 115.033 347.917L113.272 344.866C113.038 344.46 112.547 344.28 112.105 344.436L108.23 345.807C107.711 345.423 107.147 345.096 106.549 344.835L105.798 340.795C105.713 340.334 105.311 340 104.843 340H101.32C100.852 340 100.45 340.334 100.364 340.795L99.6142 344.835C99.0156 345.096 98.4521 345.423 97.933 345.807L94.0572 344.436C93.6159 344.28 93.1254 344.461 92.8913 344.866L91.1301 347.917C90.8961 348.323 90.9846 348.837 91.3407 349.142L94.4658 351.813C94.4302 352.132 94.4115 352.456 94.4115 352.784C94.4115 353.112 94.4302 353.436 94.4658 353.755L91.3407 356.426C90.9846 356.73 90.8961 357.245 91.1301 357.651L92.8913 360.701C93.1254 361.107 93.6159 361.288 94.0572 361.132L97.933 359.761C98.4521 360.145 99.0156 360.471 99.6142 360.733L100.364 364.773C100.45 365.234 100.852 365.568 101.32 365.568H104.843C105.311 365.568 105.713 365.234 105.798 364.773L106.549 360.733C107.147 360.471 107.711 360.145 108.23 359.761L112.105 361.132C112.547 361.288 113.037 361.107 113.272 360.701L115.033 357.651C115.267 357.245 115.179 356.73 114.823 356.426ZM103.081 360.173C99.0067 360.173 95.6921 356.859 95.6921 352.784C95.6921 348.71 99.0067 345.396 103.081 345.396C107.155 345.396 110.47 348.71 110.47 352.784C110.47 356.858 107.156 360.173 103.081 360.173Z" fill="#0C0C0C" fill-opacity="0.15"/>
<path d="M346.081 94.7218C342.187 94.7218 339.02 97.8899 339.02 101.784C339.02 105.678 342.187 108.846 346.081 108.846C349.975 108.846 353.143 105.678 353.143 101.784C353.143 97.8899 349.975 94.7218 346.081 94.7218ZM346.081 105.709C343.913 105.709 342.156 103.952 342.156 101.784C342.156 99.6161 343.914 97.8591 346.081 97.8591C348.249 97.8591 350.007 99.6165 350.007 101.784C350.007 103.952 348.249 105.709 346.081 105.709Z" fill="#0C0C0C" fill-opacity="0.15"/>
<path d="M357.823 105.425L354.698 102.754C354.733 102.435 354.752 102.112 354.752 101.783C354.752 101.455 354.733 101.132 354.698 100.813L357.823 98.1422C358.179 97.8375 358.267 97.3226 358.033 96.9168L356.272 93.8662C356.038 93.4604 355.547 93.2797 355.105 93.4361L351.23 94.8069C350.711 94.4231 350.147 94.096 349.549 93.8348L348.798 89.7947C348.713 89.3342 348.311 89 347.843 89H344.32C343.852 89 343.45 89.3342 343.364 89.7947L342.614 93.8348C342.016 94.096 341.452 94.4231 340.933 94.8069L337.057 93.4361C336.616 93.2797 336.125 93.4609 335.891 93.8662L334.13 96.9168C333.896 97.3226 333.985 97.8375 334.341 98.1422L337.466 100.813C337.43 101.132 337.412 101.456 337.412 101.783C337.412 102.112 337.43 102.435 337.466 102.754L334.341 105.425C333.985 105.73 333.896 106.244 334.13 106.65L335.891 109.701C336.125 110.107 336.616 110.287 337.057 110.131L340.933 108.761C341.452 109.144 342.016 109.471 342.614 109.733L343.364 113.773C343.45 114.233 343.852 114.567 344.32 114.567H347.843C348.311 114.567 348.713 114.233 348.798 113.773L349.549 109.733C350.147 109.471 350.711 109.144 351.23 108.761L355.105 110.131C355.547 110.288 356.037 110.107 356.272 109.701L358.033 106.65C358.268 106.245 358.179 105.73 357.823 105.425ZM346.081 109.173C342.007 109.173 338.693 105.858 338.693 101.784C338.693 97.7097 342.007 94.3951 346.081 94.3951C350.156 94.3951 353.47 97.7097 353.47 101.784C353.471 105.858 350.156 109.173 346.081 109.173Z" fill="#0C0C0C" fill-opacity="0.15"/>
<path d="M148.081 20.7214C144.187 20.7214 141.019 23.8896 141.019 27.7836C141.019 31.6777 144.187 34.8458 148.081 34.8458C151.975 34.8458 155.143 31.6777 155.143 27.7836C155.143 23.8891 151.975 20.7214 148.081 20.7214ZM148.081 31.7086C145.913 31.7086 144.156 29.9511 144.156 27.7832C144.156 25.6152 145.913 23.8582 148.081 23.8582C150.249 23.8582 152.006 25.6157 152.006 27.7832C152.006 29.9516 150.249 31.7086 148.081 31.7086Z" fill="#0C0C0C" fill-opacity="0.15"/>
<path d="M159.823 31.4248L156.698 28.7542C156.733 28.4355 156.752 28.1116 156.752 27.7835C156.752 27.4554 156.733 27.132 156.698 26.8132L159.823 24.1422C160.179 23.8375 160.267 23.3226 160.033 22.9168L158.272 19.8662C158.038 19.4604 157.547 19.2797 157.105 19.4361L153.23 20.8069C152.711 20.4231 152.147 20.096 151.549 19.8348L150.798 15.7947C150.713 15.3342 150.311 15 149.843 15H146.32C145.852 15 145.45 15.3342 145.364 15.7947L144.614 19.8348C144.016 20.096 143.452 20.4231 142.933 20.8069L139.057 19.4361C138.616 19.2797 138.125 19.4609 137.891 19.8662L136.13 22.9168C135.896 23.3226 135.985 23.8375 136.341 24.1422L139.465 26.8132C139.43 27.132 139.411 27.4559 139.411 27.7835C139.411 28.1116 139.43 28.4355 139.465 28.7542L136.341 31.4248C135.985 31.729 135.896 32.2439 136.13 32.6497L137.891 35.7003C138.125 36.1061 138.616 36.2868 139.057 36.1309L142.933 34.76C143.452 35.1438 144.016 35.4705 144.614 35.7322L145.364 39.7722C145.45 40.2328 145.852 40.567 146.32 40.567H149.843C150.311 40.567 150.713 40.2328 150.798 39.7722L151.549 35.7322C152.147 35.4705 152.711 35.1438 153.23 34.76L157.105 36.1309C157.547 36.2872 158.038 36.1061 158.272 35.7003L160.033 32.6497C160.267 32.2439 160.179 31.729 159.823 31.4248ZM148.081 35.1724C144.007 35.1724 140.692 31.8577 140.692 27.7835C140.692 23.7092 144.007 20.3946 148.081 20.3946C152.155 20.3946 155.47 23.7092 155.47 27.7835C155.47 31.8577 152.156 35.1724 148.081 35.1724Z" fill="#0C0C0C" fill-opacity="0.15"/>
<path d="M55.1447 304.795V304.182H54.9659C52.7569 297.123 46.1657 292 38.3779 292C28.7805 292 21 299.78 21 309.378C21 318.975 28.7805 326.756 38.3779 326.756C47.9754 326.756 55.7559 318.975 55.7559 309.378C55.7565 307.791 55.5434 306.255 55.1447 304.795ZM38.3786 296.337C43.7337 296.337 48.3344 299.565 50.3427 304.181H26.4151C28.4228 299.565 33.0235 296.337 38.3786 296.337ZM35.5314 322.106C30.6152 321.011 26.7451 317.142 25.6502 312.225C31.1076 312.225 35.5314 316.649 35.5314 322.106ZM38.3786 312.934C36.4151 312.934 34.8226 311.341 34.8226 309.378C34.8226 307.414 36.4145 305.822 38.3786 305.822C40.3427 305.822 41.9346 307.414 41.9346 309.378C41.9346 311.341 40.3427 312.934 38.3786 312.934ZM41.2257 322.106C41.2257 316.649 45.6496 312.225 51.107 312.225C50.0121 317.141 46.1419 321.011 41.2257 322.106Z" fill="#0C0C0C" fill-opacity="0.15"/>
<path d="M40.4362 309.378C40.4362 310.514 39.5149 311.436 38.3784 311.436C37.2419 311.436 36.3206 310.514 36.3206 309.378C36.3206 308.242 37.2419 307.32 38.3784 307.32C39.5149 307.32 40.4362 308.242 40.4362 309.378Z" fill="#0C0C0C" fill-opacity="0.15"/>
<path d="M261.83 17.5627L296.606 -1.78358L302.119 -0.989322C304.031 -1.24019 305.62 -2.58626 306.184 -4.43079L308.045 -9.31289L307.899 -9.53239L302.351 -6.44522C300.907 -5.64207 299.086 -6.16113 298.283 -7.60502C297.479 -9.04891 297.999 -10.8705 299.442 -11.6737L304.576 -14.5306L304.264 -15L297.79 -14.5596C296.264 -14.4557 294.872 -13.6478 294.026 -12.3743L292.589 -7.94481L258.263 11.1516C256.06 9.81671 253.223 9.66928 250.811 11.0111C247.233 13.0017 245.946 17.5164 247.936 21.0945C249.927 24.6727 254.442 25.9598 258.02 23.9692C260.431 22.6269 261.802 20.1383 261.83 17.5627ZM294.205 -3.22513L294.7 -2.33586L262.121 15.7884L261.626 14.8991L294.205 -3.22513ZM292.503 -6.28469L293.696 -4.13968L261.117 13.9846L259.924 11.8396L292.503 -6.28469ZM256.653 21.754C256.686 21.9758 256.556 22.1902 256.344 22.2637L255.796 22.4532C255.578 22.5286 255.337 22.4331 255.23 22.2286L255.112 22.0034L255.059 22.2623C255.014 22.4823 254.819 22.639 254.594 22.6358L254.015 22.6264C253.784 22.6227 253.59 22.4504 253.559 22.2216L253.526 21.9693L253.388 22.1944C253.27 22.3858 253.033 22.4663 252.823 22.3863L252.282 22.1799C252.066 22.0975 251.943 21.8691 251.993 21.6435L252.048 21.3955L251.841 21.5597C251.665 21.6997 251.414 21.6945 251.245 21.5471L250.807 21.1675C250.633 21.0159 250.595 20.7599 250.719 20.5647L250.855 20.3503L250.604 20.4341C250.391 20.5053 250.158 20.4145 250.048 20.2184L249.766 19.7119C249.654 19.5102 249.707 19.2561 249.89 19.1152L250.091 18.9603L249.827 18.9533C249.603 18.9472 249.414 18.7824 249.378 18.5606L249.287 17.9886C249.25 17.7607 249.386 17.5398 249.606 17.47L249.849 17.3933L249.603 17.2964C249.394 17.214 249.274 16.9945 249.316 16.7741L249.425 16.2049C249.469 15.9784 249.672 15.8174 249.903 15.8268L250.157 15.8375L249.96 15.6625C249.792 15.5137 249.753 15.2661 249.868 15.0732L250.166 14.5762C250.285 14.3782 250.531 14.2963 250.744 14.3847L250.979 14.4812L250.853 14.249C250.746 14.0515 250.795 13.8058 250.969 13.664L251.419 13.2984C251.598 13.1529 251.857 13.1604 252.027 13.3162L252.216 13.4875L252.176 13.2259C252.144 13.004 252.273 12.7892 252.486 12.7162L253.033 12.5266C253.251 12.4508 253.492 12.5468 253.599 12.7513L253.717 12.9764L253.77 12.7176C253.815 12.4976 254.01 12.3404 254.235 12.3441L254.814 12.3535C255.045 12.3572 255.239 12.5295 255.27 12.7583L255.303 13.0101L255.441 12.785C255.559 12.5936 255.796 12.5126 256.006 12.5931L256.547 12.8C256.763 12.8824 256.886 13.1103 256.837 13.3363L256.782 13.5844L256.989 13.4201C257.165 13.2807 257.415 13.2858 257.585 13.4328L258.023 13.8123C258.198 13.9635 258.235 14.22 258.111 14.4152L257.975 14.6295L258.226 14.5458C258.439 14.4746 258.672 14.5654 258.781 14.7615L259.063 15.2679C259.175 15.4697 259.123 15.7238 258.94 15.8647L258.739 16.0201L259.003 16.0271C259.228 16.0332 259.416 16.1984 259.451 16.4198L259.543 16.9922C259.579 17.2201 259.444 17.4406 259.223 17.5108L258.981 17.5875L259.226 17.6844C259.435 17.7668 259.556 17.9863 259.513 18.2067L259.404 18.7759C259.36 19.0029 259.157 19.1634 258.926 19.154L258.672 19.1433L258.87 19.3183C259.038 19.4672 259.076 19.7148 258.961 19.9076L258.663 20.4046C258.544 20.6031 258.298 20.6845 258.085 20.5965L257.849 20.4996L257.976 20.7318C258.083 20.9293 258.034 21.175 257.86 21.3164L257.41 21.6819C257.231 21.8275 256.971 21.8204 256.801 21.6646L256.613 21.4933L256.653 21.754Z" fill="#0C0C0C" fill-opacity="0.15"/>
<path d="M28.1722 227.307L-11.4794 230.689L-16.1813 227.703C-18.0286 227.148 -20.0299 227.724 -21.3002 229.175L-25 232.865L-24.9569 233.125L-18.6305 232.585C-16.9844 232.444 -15.5358 233.665 -15.3954 235.311C-15.255 236.957 -16.4752 238.406 -18.1217 238.546L-23.9759 239.046L-23.8842 239.602L-17.7993 241.855C-16.3652 242.387 -14.765 242.221 -13.4704 241.406L-10.3434 237.956L28.7952 234.617C30.2569 236.738 32.7843 238.036 35.534 237.802C39.6139 237.454 42.6393 233.864 42.291 229.784C41.9428 225.704 38.3534 222.679 34.2736 223.027C31.5243 223.261 29.2539 224.969 28.1722 227.307ZM-9.88054 232.988L-9.96713 231.974L27.1795 228.806L27.2661 229.819L-9.88054 232.988ZM-9.58334 236.477L-9.79208 234.031L27.3546 230.863L27.5633 233.308L-9.58334 236.477ZM34.6124 225.607C34.6733 225.391 34.8792 225.249 35.1034 225.269L35.6805 225.321C35.9108 225.341 36.091 225.527 36.105 225.758L36.12 226.011L36.2744 225.797C36.4055 225.615 36.6479 225.552 36.8515 225.647L37.3762 225.894C37.5854 225.992 37.6912 226.228 37.6256 226.449L37.5526 226.693L37.7712 226.544C37.957 226.418 38.206 226.442 38.3647 226.601L38.7737 227.011C38.9366 227.175 38.9553 227.433 38.8177 227.619L38.6661 227.823L38.9221 227.758C39.1397 227.703 39.3663 227.81 39.4608 228.014L39.7047 228.539C39.802 228.749 39.7313 228.998 39.538 229.125L39.326 229.265L39.5891 229.291C39.8123 229.314 39.9883 229.493 40.0075 229.716L40.0566 230.294C40.0763 230.524 39.9246 230.734 39.6995 230.787L39.4524 230.846L39.6902 230.961C39.8923 231.058 39.9967 231.286 39.9382 231.503L39.787 232.062C39.7267 232.286 39.5123 232.431 39.283 232.404L39.0307 232.374L39.2151 232.564C39.3724 232.725 39.392 232.975 39.2628 233.158L38.9296 233.633C38.7967 233.821 38.5453 233.884 38.3389 233.781L38.1115 233.668L38.2201 233.908C38.3123 234.113 38.2458 234.355 38.0614 234.483L37.5859 234.814C37.3968 234.946 37.1384 234.92 36.9798 234.752L36.8052 234.568L36.8248 234.831C36.8417 235.055 36.6966 235.259 36.4794 235.317L35.9192 235.466C35.6959 235.525 35.4628 235.412 35.3711 235.2L35.27 234.966L35.1984 235.221C35.1376 235.437 34.9312 235.58 34.7074 235.559L34.1303 235.507C33.9001 235.487 33.7199 235.301 33.7063 235.07L33.6913 234.817L33.5369 235.031C33.4058 235.214 33.1634 235.276 32.9598 235.181L32.4351 234.935C32.2259 234.837 32.1201 234.6 32.1861 234.379L32.2587 234.136L32.0406 234.285C31.8548 234.411 31.6053 234.387 31.4471 234.228L31.038 233.817C30.8752 233.654 30.8564 233.395 30.994 233.21L31.1457 233.006L30.8897 233.071C30.672 233.126 30.446 233.018 30.3514 232.815L30.1076 232.289C30.0107 232.08 30.0814 231.831 30.2742 231.703L30.4862 231.563L30.2232 231.537C29.9995 231.515 29.8239 231.336 29.8048 231.112L29.7556 230.535C29.736 230.305 29.8876 230.095 30.1123 230.041L30.3598 229.982L30.1216 229.868C29.9194 229.77 29.8151 229.542 29.8736 229.325L30.0247 228.766C30.0851 228.543 30.2995 228.398 30.5288 228.424L30.7815 228.453L30.5971 228.264C30.4403 228.103 30.4207 227.854 30.5499 227.67L30.8831 227.196C31.016 227.007 31.2674 226.944 31.4738 227.047L31.7012 227.161L31.5927 226.92C31.5005 226.715 31.5674 226.474 31.7513 226.345L32.2264 226.014C32.4159 225.882 32.6738 225.908 32.8325 226.076L33.0075 226.261L32.9879 225.997C32.9715 225.773 33.1166 225.569 33.3338 225.512L33.8935 225.363C34.1168 225.303 34.3503 225.417 34.4416 225.629L34.5422 225.862L34.6124 225.607Z" fill="#0C0C0C" fill-opacity="0.15"/>
<path d="M69.0003 57.8309C60.6231 57.8309 53.8314 64.6226 53.8314 72.9992C53.8314 81.3765 60.6225 88.1681 69.0003 88.1681C77.3776 88.1681 84.1692 81.3765 84.1692 72.9992C84.1692 64.6226 77.3776 57.8309 69.0003 57.8309ZM79.8064 68.7915L75.5125 69.644C74.3941 69.8662 73.2517 69.5474 72.3642 68.8315C72.238 68.7294 72.1063 68.6327 71.9708 68.5422C71.0063 67.8984 70.3576 66.8791 70.2209 65.7275L69.71 61.4268C74.3215 61.7056 78.203 64.678 79.8064 68.7915ZM71.5788 72.9998C71.5788 74.4235 70.424 75.5783 69.0003 75.5783C67.5766 75.5783 66.4219 74.4235 66.4219 72.9998C66.4219 71.5761 67.576 70.4214 69.0003 70.4214C70.4246 70.4214 71.5788 71.5761 71.5788 72.9998ZM68.2906 61.4268L67.7797 65.7275C67.6431 66.8791 66.9944 67.8984 66.0298 68.5422C65.8944 68.6327 65.7633 68.7287 65.6365 68.8315C64.7495 69.5474 63.6065 69.8662 62.4881 69.644L58.1942 68.7915C59.7977 64.678 63.6791 61.7056 68.2906 61.4268ZM57.4039 72.9998C57.4039 72.0169 57.5276 71.0628 57.7578 70.1512L61.7009 71.9701C62.7392 72.4496 63.5376 73.347 63.8478 74.4482C63.8915 74.6039 63.9451 74.767 64.0091 74.9338C64.4184 75.9974 64.307 77.1922 63.7506 78.1868L61.6393 81.9594C59.0529 79.8327 57.4039 76.6093 57.4039 72.9998ZM69.0003 84.5963C66.7229 84.5963 64.6006 83.9377 62.8088 82.8033C62.8088 82.8033 64.4966 80.9813 65.7824 79.5939C66.5598 78.755 67.6653 78.3093 68.8083 78.3475C68.9462 78.3518 69.0834 78.3512 69.2188 78.3463C70.352 78.3007 71.4458 78.7617 72.2177 79.5933C73.5041 80.9807 75.1919 82.8033 75.1919 82.8033C73.4001 83.9377 71.2778 84.5963 69.0003 84.5963ZM76.3626 81.9594L74.2507 78.1856C73.6931 77.1891 73.586 75.9931 73.9941 74.9264C74.0556 74.767 74.1061 74.6107 74.1485 74.4611C74.4637 73.3507 75.27 72.4453 76.3183 71.9615L80.2428 70.1506C80.473 71.0622 80.5968 72.0162 80.5968 72.9992C80.5968 76.6093 78.9478 79.8327 76.3626 81.9594Z" fill="#0C0C0C" fill-opacity="0.15"/>
<path d="M69.0004 74.5836C69.875 74.5836 70.5841 73.8745 70.5841 72.9999C70.5841 72.1252 69.875 71.4161 69.0004 71.4161C68.1257 71.4161 67.4172 72.1252 67.4172 72.9999C67.4172 73.8745 68.1257 74.5836 69.0004 74.5836Z" fill="#0C0C0C" fill-opacity="0.15"/>
<path d="M69.0003 55C59.075 55 51 63.075 51 72.9997C51 82.925 59.0744 90.9994 69.0003 90.9994C78.925 90.9994 87 82.925 87 72.9997C87 63.0744 78.9256 55 69.0003 55ZM69.0003 89.7019C59.7903 89.7019 52.2975 82.2091 52.2975 72.9997C52.2975 63.7903 59.7903 56.2975 69.0003 56.2975C78.2097 56.2975 85.7025 63.7903 85.7025 72.9997C85.7025 82.2097 78.2103 89.7019 69.0003 89.7019Z" fill="#0C0C0C" fill-opacity="0.15"/>
<path d="M161.109 72L164.142 83.0742L175.217 86.108L164.142 89.1418L161.109 100.216L158.075 89.1418L147 86.108L158.075 83.0742L161.109 72Z" fill="#0C0C0C" fill-opacity="0.15"/>
<path d="M104.946 261L107.515 270.377L116.892 272.946L107.515 275.515L104.946 284.892L102.377 275.515L93 272.946L102.377 270.377L104.946 261Z" fill="#0C0C0C" fill-opacity="0.15"/>
<path d="M46.5784 165.493L48.8479 173.777L57.1322 176.046L48.8479 178.316L46.5784 186.6L44.3094 178.316L36.0251 176.046L44.3094 173.777L46.5784 165.493Z" fill="#0C0C0C" fill-opacity="0.15"/>
<path d="M96.5698 118.736L97.4918 122.1L100.856 123.021L97.4918 123.942L96.5698 127.307L95.6482 123.942L92.2844 123.021L95.6482 122.1L96.5698 118.736Z" fill="#0C0C0C" fill-opacity="0.15"/>
<path d="M242.319 62.8547L243.241 66.2185L246.605 67.1401L243.241 68.0616L242.319 71.4254L241.398 68.0616L238.034 67.1401L241.398 66.2185L242.319 62.8547Z" fill="#0C0C0C" fill-opacity="0.15"/>
<path d="M297.907 66.0518L299.424 71.5886L304.961 73.1055L299.424 74.6224L297.907 80.1598L296.39 74.6224L290.853 73.1055L296.39 71.5886L297.907 66.0518Z" fill="#0C0C0C" fill-opacity="0.15"/>
<path d="M387.245 350.338L351.197 333.478L348.613 328.544C347.29 327.141 345.268 326.641 343.443 327.265L338.395 328.615L338.302 328.862L344.054 331.551C345.551 332.251 346.197 334.032 345.497 335.528C344.797 337.025 343.016 337.671 341.52 336.971L336.198 334.482L336 335.009L340.148 339.999C341.126 341.175 342.595 341.83 344.124 341.77L348.556 340.341L384.137 356.983C384.345 359.55 385.887 361.937 388.387 363.106C392.096 364.841 396.509 363.24 398.244 359.531C399.978 355.822 398.378 351.409 394.669 349.674C392.169 348.506 389.349 348.852 387.245 350.338ZM351.435 336.268L351.866 335.346L385.637 351.141L385.206 352.063L351.435 336.268ZM349.952 339.439L350.991 337.216L384.761 353.011L383.722 355.234L349.952 339.439ZM393.674 352.08C393.834 351.923 394.084 351.902 394.268 352.031L394.742 352.364C394.931 352.497 394.995 352.748 394.892 352.955L394.778 353.182L395.019 353.073C395.223 352.98 395.465 353.047 395.594 353.231L395.926 353.706C396.058 353.896 396.032 354.153 395.864 354.313L395.679 354.488L395.943 354.467C396.167 354.451 396.371 354.596 396.429 354.812L396.578 355.372C396.638 355.595 396.525 355.828 396.313 355.921L396.08 356.022L396.335 356.093C396.551 356.154 396.693 356.36 396.673 356.584L396.622 357.161C396.602 357.391 396.417 357.571 396.186 357.586L395.932 357.601L396.146 357.755C396.329 357.886 396.392 358.128 396.297 358.332L396.051 358.857C395.954 359.066 395.717 359.172 395.496 359.106L395.252 359.034L395.401 359.252C395.527 359.438 395.504 359.687 395.345 359.846L394.935 360.255C394.772 360.418 394.514 360.437 394.328 360.299L394.124 360.148L394.189 360.404C394.245 360.622 394.137 360.848 393.934 360.943L393.408 361.187C393.198 361.284 392.949 361.214 392.822 361.021L392.682 360.809L392.656 361.072C392.633 361.296 392.456 361.472 392.232 361.491L391.654 361.54C391.424 361.561 391.214 361.409 391.16 361.184L391.101 360.937L390.987 361.175C390.889 361.378 390.662 361.482 390.445 361.424L389.886 361.273C389.662 361.213 389.517 360.999 389.543 360.77L389.572 360.517L389.383 360.702C389.222 360.858 388.972 360.879 388.789 360.75L388.315 360.417C388.126 360.284 388.062 360.033 388.165 359.826L388.279 359.599L388.038 359.708C387.833 359.8 387.592 359.734 387.463 359.549L387.131 359.074C386.999 358.885 387.025 358.627 387.193 358.468L387.378 358.293L387.114 358.313C386.89 358.33 386.686 358.185 386.628 357.968L386.479 357.409C386.419 357.185 386.532 356.952 386.744 356.86L386.977 356.759L386.723 356.687C386.507 356.626 386.364 356.421 386.384 356.197L386.435 355.62C386.456 355.389 386.641 355.209 386.872 355.195L387.126 355.18L386.911 355.026C386.729 354.895 386.665 354.652 386.761 354.449L387.006 353.924C387.104 353.715 387.34 353.609 387.562 353.674L387.806 353.747L387.657 353.529C387.53 353.343 387.553 353.094 387.712 352.935L388.122 352.526C388.286 352.363 388.544 352.343 388.73 352.481L388.934 352.632L388.869 352.376C388.813 352.159 388.92 351.933 389.125 351.838L389.65 351.593C389.859 351.496 390.109 351.567 390.236 351.759L390.376 351.971L390.402 351.708C390.425 351.485 390.603 351.309 390.827 351.289L391.404 351.239C391.635 351.219 391.845 351.37 391.898 351.596L391.958 351.843L392.072 351.604C392.169 351.402 392.397 351.298 392.614 351.356L393.173 351.507C393.396 351.567 393.542 351.781 393.515 352.011L393.486 352.263L393.674 352.08Z" fill="#0C0C0C" fill-opacity="0.15"/>
<path d="M344.942 249.068C344.899 248.891 344.822 248.725 344.734 248.566L334.288 229.75C333.962 228.979 333.204 228.478 332.364 228.478H328.245C327.83 228.478 327.493 228.143 327.493 227.73V227.708C327.493 227.512 327.333 227.352 327.135 227.352H326.897V226.595C326.897 226.089 326.488 225.68 325.981 225.674V224.726C325.981 224.325 325.654 224 325.252 224H319.921C319.518 224 319.192 224.325 319.192 224.726V225.674C318.685 225.68 318.276 226.089 318.276 226.595V227.352H318.016C317.819 227.352 317.658 227.512 317.658 227.708V227.996C317.658 228.291 317.476 228.547 317.206 228.671C316.494 229.002 316 229.72 316 230.554V267.923C316 269.07 316.935 270 318.088 270H342.912C344.065 270 345 269.07 345 267.923V249.558C345.001 249.392 344.981 249.228 344.942 249.068ZM326.505 265.464C315.61 265.464 326.505 250.394 326.505 250.394C326.505 250.394 337.405 265.464 326.505 265.464ZM339.66 247.776H335.006C333.665 247.776 332.578 246.695 332.578 245.361V236.339C332.578 235.462 333.746 235.152 334.185 235.913L340.349 246.594C340.652 247.119 340.271 247.776 339.66 247.776Z" fill="#0C0C0C" fill-opacity="0.15"/>
<path d="M303.248 174.359L342.762 169.626L347.563 172.449C349.428 172.941 351.409 172.298 352.628 170.804L356.2 166.99L356.148 166.732L349.844 167.488C348.204 167.684 346.715 166.514 346.518 164.873C346.321 163.233 347.492 161.744 349.132 161.547L354.966 160.848L354.855 160.296L348.697 158.251C347.245 157.769 345.652 157.989 344.386 158.847L341.378 162.402L302.377 167.074C300.843 165.004 298.273 163.793 295.533 164.121C291.468 164.608 288.566 168.298 289.053 172.364C289.54 176.429 293.231 179.331 297.296 178.843C300.036 178.516 302.247 176.732 303.248 174.359ZM341.086 167.383L341.206 168.393L304.19 172.827L304.069 171.817L341.086 167.383ZM340.669 163.906L340.961 166.343L303.944 170.777L303.652 168.34L340.669 163.906ZM296.87 176.277C296.817 176.495 296.615 176.644 296.391 176.631L295.812 176.6C295.582 176.587 295.395 176.407 295.373 176.177L295.349 175.924L295.202 176.144C295.077 176.33 294.837 176.402 294.631 176.314L294.098 176.086C293.886 175.994 293.772 175.762 293.831 175.539L293.895 175.292L293.682 175.448C293.501 175.581 293.25 175.566 293.087 175.412L292.664 175.016C292.496 174.858 292.468 174.6 292.6 174.41L292.744 174.201L292.491 174.275C292.275 174.338 292.045 174.238 291.944 174.037L291.682 173.52C291.578 173.313 291.64 173.063 291.829 172.929L292.036 172.782L291.773 172.764C291.549 172.75 291.366 172.577 291.34 172.354L291.271 171.779C291.244 171.549 291.388 171.334 291.611 171.273L291.856 171.206L291.614 171.099C291.409 171.009 291.297 170.785 291.348 170.566L291.48 170.001C291.533 169.776 291.742 169.623 291.973 169.642L292.226 169.663L292.035 169.48C291.872 169.324 291.844 169.075 291.967 168.887L292.284 168.402C292.41 168.209 292.659 168.137 292.869 168.233L293.1 168.34L292.983 168.103C292.884 167.901 292.942 167.658 293.123 167.523L293.586 167.176C293.771 167.037 294.03 167.055 294.194 167.217L294.375 167.396L294.346 167.133C294.322 166.91 294.46 166.701 294.675 166.636L295.23 166.468C295.451 166.401 295.688 166.506 295.787 166.715L295.896 166.944L295.959 166.688C296.012 166.47 296.213 166.321 296.438 166.333L297.016 166.365C297.247 166.378 297.434 166.557 297.455 166.788L297.479 167.041L297.626 166.821C297.751 166.635 297.991 166.563 298.197 166.652L298.73 166.88C298.943 166.971 299.056 167.203 298.998 167.427L298.934 167.673L299.147 167.517C299.328 167.384 299.579 167.399 299.742 167.553L300.165 167.949C300.333 168.108 300.361 168.365 300.229 168.555L300.085 168.764L300.338 168.69C300.554 168.628 300.784 168.727 300.885 168.928L301.147 169.445C301.251 169.651 301.189 169.902 301.001 170.036L300.793 170.183L301.057 170.2C301.281 170.215 301.463 170.387 301.489 170.611L301.558 171.186C301.586 171.415 301.441 171.63 301.218 171.692L300.973 171.759L301.215 171.865C301.421 171.956 301.533 172.18 301.482 172.399L301.35 172.963C301.297 173.188 301.088 173.341 300.857 173.322L300.604 173.302L300.795 173.485C300.957 173.64 300.986 173.889 300.862 174.077L300.546 174.562C300.419 174.755 300.17 174.827 299.961 174.731L299.729 174.624L299.846 174.862C299.946 175.063 299.887 175.307 299.707 175.442L299.243 175.789C299.059 175.927 298.8 175.91 298.636 175.747L298.455 175.569L298.484 175.832C298.508 176.055 298.37 176.264 298.155 176.329L297.6 176.497C297.379 176.564 297.142 176.459 297.043 176.249L296.935 176.02L296.87 176.277Z" fill="#0C0C0C" fill-opacity="0.15"/>
</g>
</svg>
