<svg width="375" height="446" viewBox="0 0 375 446" fill="none" xmlns="http://www.w3.org/2000/svg">
<mask id="mask0_109_650" style="mask-type:alpha" maskUnits="userSpaceOnUse" x="0" y="0" width="375" height="446">
<path d="M0 0H375V435.5C375 435.5 253.2 444.87 175 445.5C106.633 446.051 0 440.5 0 440.5V0Z" fill="#FFDAD2"/>
</mask>
<g mask="url(#mask0_109_650)">
<path d="M0 0H375V435.5C375 435.5 253.2 444.87 175 445.5C106.633 446.051 0 440.5 0 440.5V0Z" fill="#C8EFF8"/>
<mask id="mask1_109_650" style="mask-type:alpha" maskUnits="userSpaceOnUse" x="0" y="0" width="375" height="446">
<path d="M0 0H375V435.5C375 435.5 253.2 444.87 175 445.5C106.633 446.051 0 440.5 0 440.5V0Z" fill="#FFDAD2"/>
</mask>
<g mask="url(#mask1_109_650)">
<mask id="mask2_109_650" style="mask-type:luminance" maskUnits="userSpaceOnUse" x="-63" y="-2" width="460" height="448">
<path d="M387.149 -2H-53.2108C-58.6157 -2 -63 2.38433 -63 7.7892V435.816C-63 441.224 -58.6157 445.605 -53.2108 445.605H50.5146L68.5514 446L90.7906 445.605H387.146C392.554 445.605 396.935 441.221 396.935 435.816V7.7892C396.938 2.38433 392.554 -2 387.149 -2Z" fill="white"/>
</mask>
<g mask="url(#mask2_109_650)">
<g opacity="0.3">
<path d="M83.3294 165.86L104.523 153.73L127.133 105.426L79.8577 108.509L83.3294 165.86Z" fill="#51CDE6"/>
<path d="M172.582 302.538L181.508 260.15L199.354 101.747L250.668 106.208L245.09 177.6L213.857 320.387L172.582 302.538Z" fill="#51CDE6"/>
<path d="M141.349 427.476L164.773 323.735L182.621 331.542L188.199 318.155L211.625 328.197L177.044 430.824L141.349 427.476Z" fill="#51CDE6"/>
<path d="M259.593 56.0106L258.477 167.561L338.795 195.449L390.109 111.786L417.997 45.9717L345.489 53.7783L314.253 42.6233L259.593 56.0106Z" fill="#51CDE6"/>
<path d="M249.552 1.35161L255.132 51.5494L312.02 35.9298L347.718 48.201L421.342 38.1621L430.268 19.1972L317.598 -34.3458L249.552 1.35161Z" fill="#51CDE6"/>
<path d="M241.745 6.92895L249.551 97.2825L89.5081 89.2446L124.108 65.7628L159.947 10.154L243.977 -50.3972L241.745 6.92895Z" fill="#51CDE6"/>
<path d="M257.361 175.371L238.396 250.111L298.636 273.534L333.218 204.375L257.361 175.371Z" fill="#51CDE6"/>
<path d="M238.396 259.034C249.552 262.379 294.172 279.112 294.172 279.112L254.013 351.62L219.432 339.349L238.396 259.034Z" fill="#51CDE6"/>
<path d="M217.202 346.046L250.668 359.43L212.741 435.286L190.431 433.054L217.202 346.046Z" fill="#51CDE6"/>
<path d="M225.012 431.937L260.71 363.894L341.024 394.011L317.598 457.596L276.326 441.979L225.012 431.937Z" fill="#51CDE6"/>
<path d="M152.504 103.976L190.431 105.092L179.276 193.22L170.35 266.844L123.5 256.802L152.504 103.976Z" fill="#51CDE6"/>
<path d="M135.772 102.863H146.927L117.923 255.689L68.8384 246.763L81.1096 185.41L108.997 157.522L135.772 102.863Z" fill="#51CDE6"/>
<path d="M73.0284 261.442L167.005 278.415L142.388 384.058L54.1838 350.211L73.0284 261.442Z" fill="#51CDE6"/>
<path d="M32.0278 373.933L46.5282 366.123L90.0354 381.74L88.9193 421.898L33.144 416.321L32.0278 373.933Z" fill="#51CDE6"/>
<path d="M97.842 385.088L100.074 423.015L135.772 426.36V395.127L97.842 385.088Z" fill="#51CDE6"/>
<path d="M84.9941 90.0089H157.965L158.991 78.7027L183.657 62.26L188.797 29.3713L241.211 -4.54401L87.0506 -8.65393L84.9941 90.0089Z" fill="#51CDE6"/>
<path d="M66.4949 -9.6803L65.4682 94.1191L-72.2496 98.2321L-81.4993 -0.430664L66.4949 -9.6803Z" fill="#51CDE6"/>
<path d="M66.4949 107.482L71.6346 171.199L-11.6121 189.699L-84.5825 184.562L-77.3863 106.452L66.4949 107.482Z" fill="#51CDE6"/>
<path d="M-5.4457 195.866L72.6613 181.479L62.385 244.17L-7.5022 246.227L-5.4457 195.866Z" fill="#51CDE6"/>
<path d="M268.96 358.249C268.96 358.249 302.876 286.308 305.959 285.278C309.042 284.252 375.846 316.11 375.846 316.11L339.874 388.054L268.96 358.249Z" fill="#51CDE6"/>
<path d="M334.734 450.745C334.734 450.745 380.983 324.334 384.066 324.334C387.149 324.334 411.815 324.334 411.815 324.334L410.788 444.579L405.648 465.135L334.734 450.745Z" fill="#51CDE6"/>
<path d="M315.208 277.059L386.122 313.027L415.928 315.084L427.231 209.228L342.957 206.145L315.208 277.059Z" fill="#51CDE6"/>
<path d="M409.761 109.535L351.18 197.921L412.844 192.782L409.761 109.535Z" fill="#51CDE6"/>
<path d="M-68.1366 259.586L54.1621 254.446L35.1356 353.695L-74.303 347.972L-68.1366 259.586Z" fill="#51CDE6"/>
<path d="M-17.7786 367.498L-8.52893 414.773H26.4131L27.4429 370.582L17.1635 361.332L-17.7786 367.498Z" fill="#51CDE6"/>
<path d="M-87.3174 432.502L-13.3974 426.816H21.8592L24.1315 470.03L-71.3957 472.306L-87.3174 432.502Z" fill="#51CDE6"/>
<path d="M33.0942 446L34.3679 429.089L134.446 437.049V447.542L73.1765 446H33.0942Z" fill="#51CDE6"/>
</g>
</g>
<mask id="mask3_109_650" style="mask-type:luminance" maskUnits="userSpaceOnUse" x="-63" y="-2" width="460" height="448">
<path d="M387.149 -2H-53.2108C-58.6157 -2 -63 2.38433 -63 7.7892V435.816C-63 441.224 -58.6157 445.605 -53.2108 445.605H50.5146H67.0098H90.7906H387.146C392.554 445.605 396.935 441.221 396.935 435.816V7.7892C396.938 2.38433 392.554 -2 387.149 -2Z" fill="white"/>
</mask>
<g mask="url(#mask3_109_650)">
<path opacity="0.3" d="M142.407 437.049L138.997 509.835L198.133 501.874L208.369 447.286L142.407 437.049Z" fill="#51CDE6"/>
</g>
</g>
<path opacity="0.15" d="M37.8752 401C50.5088 401 60.7504 390.758 60.7504 378.125C60.7504 365.491 50.5088 355.25 37.8752 355.25C25.2416 355.25 15 365.491 15 378.125C15 390.758 25.2416 401 37.8752 401Z" fill="#0C0C0C"/>
<path opacity="0.41" d="M41.1351 392.547C49.102 390.747 54.1012 382.829 52.301 374.862C50.5008 366.895 42.5829 361.896 34.6159 363.696C26.6489 365.496 21.6498 373.414 23.45 381.381C25.2502 389.348 33.1681 394.347 41.1351 392.547Z" fill="#0C0C0C"/>
<path d="M41.9021 378.125C41.9021 375.901 40.0993 374.099 37.876 374.099C35.6527 374.099 33.8499 375.901 33.8499 378.125C33.8499 380.348 35.6527 382.151 37.876 382.151C40.0993 382.151 41.9021 380.348 41.9021 378.125Z" fill="#0C0C0C"/>
<path d="M47.9717 361.537H47.9608C47.9671 361.391 47.9717 361.244 47.9717 361.097C47.9717 355.521 43.4517 351 37.8752 351C32.2994 351 27.7786 355.52 27.7786 361.097C27.7786 361.244 27.7832 361.391 27.7895 361.537H27.7786L27.7903 361.569C27.9685 365.449 30.7739 368.461 32.9566 371.432C34.5758 373.634 37.8744 378.124 37.8744 378.124C37.8744 378.124 41.9763 372.367 44.1019 369.542C45.9798 367.047 47.81 364.839 47.9592 361.564L47.9717 361.537Z" fill="#FF471F"/>
<path d="M42.3764 360.513C42.3764 363.066 40.3071 365.135 37.754 365.135C35.2009 365.135 33.1316 363.066 33.1316 360.513C33.1316 357.96 35.2009 355.89 37.754 355.89C40.3071 355.89 42.3764 357.96 42.3764 360.513Z" fill="white"/>
<path opacity="0.15" d="M309.875 317C322.509 317 332.75 306.758 332.75 294.125C332.75 281.491 322.509 271.25 309.875 271.25C297.242 271.25 287 281.491 287 294.125C287 306.758 297.242 317 309.875 317Z" fill="#0C0C0C"/>
<path opacity="0.41" d="M313.135 308.547C321.102 306.747 326.101 298.829 324.301 290.862C322.501 282.895 314.583 277.896 306.616 279.696C298.649 281.496 293.65 289.414 295.45 297.381C297.25 305.348 305.168 310.347 313.135 308.547Z" fill="#0C0C0C"/>
<path d="M313.902 294.125C313.902 291.901 312.099 290.099 309.876 290.099C307.653 290.099 305.85 291.901 305.85 294.125C305.85 296.348 307.653 298.151 309.876 298.151C312.099 298.151 313.902 296.348 313.902 294.125Z" fill="#0C0C0C"/>
<path d="M319.972 277.537H319.961C319.967 277.391 319.972 277.244 319.972 277.097C319.972 271.521 315.452 267 309.875 267C304.299 267 299.779 271.52 299.779 277.097C299.779 277.244 299.783 277.391 299.789 277.537H299.779L299.79 277.569C299.968 281.449 302.774 284.461 304.957 287.432C306.576 289.634 309.874 294.124 309.874 294.124C309.874 294.124 313.976 288.367 316.102 285.542C317.98 283.047 319.81 280.839 319.959 277.564L319.972 277.537Z" fill="#FF471F"/>
<path d="M314.376 276.513C314.376 279.066 312.307 281.135 309.754 281.135C307.201 281.135 305.132 279.066 305.132 276.513C305.132 273.96 307.201 271.891 309.754 271.891C312.307 271.891 314.376 273.96 314.376 276.513Z" fill="white"/>
<path opacity="0.15" d="M108.875 137C121.509 137 131.75 126.758 131.75 114.125C131.75 101.491 121.509 91.2496 108.875 91.2496C96.2416 91.2496 86 101.491 86 114.125C86 126.758 96.2416 137 108.875 137Z" fill="#0C0C0C"/>
<path opacity="0.41" d="M112.135 128.547C120.102 126.747 125.101 118.829 123.301 110.862C121.501 102.895 113.583 97.8959 105.616 99.6961C97.6489 101.496 92.6498 109.414 94.45 117.381C96.2502 125.348 104.168 130.347 112.135 128.547Z" fill="#0C0C0C"/>
<path d="M112.902 114.125C112.902 111.901 111.099 110.099 108.876 110.099C106.653 110.099 104.85 111.901 104.85 114.125C104.85 116.348 106.653 118.151 108.876 118.151C111.099 118.151 112.902 116.348 112.902 114.125Z" fill="#0C0C0C"/>
<path d="M118.972 97.5373H118.961C118.967 97.3912 118.972 97.2443 118.972 97.0966C118.972 91.5208 114.452 87 108.875 87C103.299 87 98.7786 91.52 98.7786 97.0966C98.7786 97.2443 98.7832 97.3912 98.7895 97.5373H98.7786L98.7903 97.5686C98.9685 101.449 101.774 104.461 103.957 107.432C105.576 109.634 108.874 114.124 108.874 114.124C108.874 114.124 112.976 108.367 115.102 105.542C116.98 103.047 118.81 100.839 118.959 97.5639L118.972 97.5373Z" fill="#FF471F"/>
<path d="M113.376 96.5129C113.376 99.066 111.307 101.135 108.754 101.135C106.201 101.135 104.132 99.066 104.132 96.5129C104.132 93.9598 106.201 91.8905 108.754 91.8905C111.307 91.8905 113.376 93.9598 113.376 96.5129Z" fill="white"/>
<path opacity="0.15" d="M163.875 281C176.509 281 186.75 270.758 186.75 258.125C186.75 245.491 176.509 235.25 163.875 235.25C151.242 235.25 141 245.491 141 258.125C141 270.758 151.242 281 163.875 281Z" fill="#0C0C0C"/>
<path opacity="0.41" d="M167.135 272.547C175.102 270.747 180.101 262.829 178.301 254.862C176.501 246.895 168.583 241.896 160.616 243.696C152.649 245.496 147.65 253.414 149.45 261.381C151.25 269.348 159.168 274.347 167.135 272.547Z" fill="#0C0C0C"/>
<path d="M167.902 258.125C167.902 255.901 166.099 254.099 163.876 254.099C161.653 254.099 159.85 255.901 159.85 258.125C159.85 260.348 161.653 262.151 163.876 262.151C166.099 262.151 167.902 260.348 167.902 258.125Z" fill="#0C0C0C"/>
<path d="M173.972 241.537H173.961C173.967 241.391 173.972 241.244 173.972 241.097C173.972 235.521 169.452 231 163.875 231C158.299 231 153.779 235.52 153.779 241.097C153.779 241.244 153.783 241.391 153.789 241.537H153.779L153.79 241.569C153.968 245.449 156.774 248.461 158.957 251.432C160.576 253.634 163.874 258.124 163.874 258.124C163.874 258.124 167.976 252.367 170.102 249.542C171.98 247.047 173.81 244.839 173.959 241.564L173.972 241.537Z" fill="#FF471F"/>
<path d="M168.376 240.513C168.376 243.066 166.307 245.135 163.754 245.135C161.201 245.135 159.132 243.066 159.132 240.513C159.132 237.96 161.201 235.891 163.754 235.891C166.307 235.891 168.376 237.96 168.376 240.513Z" fill="white"/>
<path d="M276.591 200.988C286.564 200.988 295.959 201.87 304.203 203.426C304.638 202.805 305.115 202.196 305.641 201.604C310.37 196.268 316.925 194.356 320.283 197.332C322.215 199.045 322.665 202.001 321.8 205.222C322.296 205.115 322.802 205.023 323.32 204.951C328.912 204.176 333.972 205.777 336.146 208.681C339.868 204.934 344.815 201.715 350.622 199.561C355.44 197.773 360.287 196.928 364.805 196.928C359.443 175.964 365.45 156.314 378.687 152.464C389.097 149.436 400.972 157.053 408.838 170.445C412.682 168.157 416.67 167.615 419.74 169.39C424.999 172.427 425.729 181.178 421.71 189.628C423.736 189.433 425.812 189.333 427.925 189.333C450.553 189.333 468.896 200.876 468.896 215.116C468.896 215.83 468.848 216.536 468.759 217.235H414.841H374.066H334.492H334.182H330.236H312.666H311.11H303.961H219C225.168 207.921 248.609 200.988 276.591 200.988Z" fill="white"/>
<path d="M220.999 392.907C225.848 392.907 230.414 393.335 234.422 394.091C234.634 393.789 234.865 393.495 235.121 393.206C237.42 390.612 240.605 389.682 242.238 391.13C243.177 391.963 243.396 393.401 242.974 394.965C243.217 394.913 243.461 394.869 243.713 394.834C246.431 394.458 248.891 395.236 249.946 396.648C251.756 394.825 254.159 393.261 256.985 392.214C259.327 391.344 261.682 390.934 263.878 390.934C261.272 380.745 264.193 371.192 270.626 369.321C275.684 367.849 281.459 371.552 285.283 378.062C287.151 376.949 289.089 376.687 290.582 377.548C293.138 379.023 293.492 383.277 291.539 387.385C292.524 387.291 293.534 387.241 294.558 387.241C305.558 387.241 314.475 392.852 314.475 399.774C314.475 400.122 314.451 400.465 314.407 400.803H288.198H268.377H249.14H248.989H247.071H238.53H237.774H234.299H193C196.002 396.276 207.397 392.907 220.999 392.907Z" fill="white"/>
<path d="M117.058 184.248C116.898 180.299 103.034 177.376 86.017 177.712C85.9711 177.715 85.9274 177.715 85.8815 177.717C85.9536 176.928 85.9864 176.128 85.9711 175.32C85.7351 163.42 75.898 153.965 64.0005 154.201C57.4039 154.332 51.5611 157.418 47.7001 162.166C46.5858 161.755 45.3774 161.537 44.1167 161.563C41.1341 161.622 38.4902 163.009 36.7356 165.151C34.6467 163.466 32.2366 162.887 30.3793 163.89C28.8629 164.709 28.0304 166.416 27.9146 168.465C26.8789 168.17 25.7842 168.022 24.6501 168.044C19.8037 168.14 15.7461 171.328 14.3193 175.689C12.7045 174.601 10.7533 173.978 8.65784 174.02C3.77647 174.116 -0.198121 177.767 -0.849263 182.454C-1.8369 182.214 -2.90757 182.087 -4.02849 182.109C-8.83558 182.205 -12.6812 184.912 -12.6179 188.157C-12.6157 188.31 -12.596 188.461 -12.5742 188.611H139.786C139.701 186.315 130.094 184.573 117.058 184.248Z" fill="white"/>
<path d="M285.393 90.251C285.611 82.8612 304.619 77.3877 327.949 78.0169C328.01 78.0191 328.073 78.0213 328.135 78.0235C328.036 76.5486 327.993 75.0519 328.014 73.5354C328.338 51.2633 341.824 33.5667 358.135 34.0081C367.179 34.2528 375.189 40.0257 380.482 48.9144C382.011 48.1431 383.667 47.7367 385.396 47.7848C389.486 47.894 393.111 50.4942 395.517 54.4994C398.379 51.3442 401.685 50.2604 404.231 52.1395C406.309 53.6712 407.451 56.8658 407.609 60.7049C409.029 60.1521 410.53 59.8746 412.084 59.9161C418.728 60.0953 424.292 66.0648 426.247 74.2259C428.461 72.1873 431.137 71.0248 434.008 71.1035C440.699 71.2848 446.148 78.1175 447.042 86.8882C448.397 86.4381 449.863 86.1999 451.399 86.2414C457.989 86.4184 463.262 91.4877 463.174 97.5621C463.17 97.8506 463.144 98.1324 463.115 98.4143H254.23C254.348 94.1207 267.522 90.8628 285.393 90.251Z" fill="white"/>
<path d="M-9.62171 315.832C-9.53462 312.964 -1.98451 310.839 7.283 311.084C7.3073 311.085 7.33262 311.086 7.35692 311.087C7.31844 310.514 7.30022 309.933 7.30933 309.345C7.43793 300.701 12.7947 293.832 19.2745 294.003C22.8673 294.098 26.0489 296.339 28.1511 299.788C28.7587 299.489 29.4169 299.331 30.1035 299.35C31.7287 299.393 33.1676 300.402 34.1236 301.956C35.2607 300.731 36.5731 300.312 37.5847 301.04C38.41 301.635 38.8647 302.874 38.9264 304.364C39.4905 304.15 40.0869 304.042 40.7046 304.058C43.3445 304.127 45.553 306.444 46.3307 309.611C47.2097 308.821 48.2729 308.37 49.4142 308.399C52.0723 308.47 54.2373 311.121 54.5917 314.526C55.1304 314.351 55.7127 314.259 56.3223 314.275C58.9409 314.345 61.035 316.312 60.9996 318.67C60.9975 318.781 60.9874 318.891 60.9763 319H-22C-21.9524 317.334 -16.7202 316.069 -9.62171 315.832Z" fill="white"/>
</g>
</svg>
