<svg width="375" height="432" viewBox="0 0 375 432" fill="none" xmlns="http://www.w3.org/2000/svg">
<path d="M0 0H375V432L167 409L0 394V0Z" fill="#C8EFF8"/>
<mask id="mask0_109_567" style="mask-type:alpha" maskUnits="userSpaceOnUse" x="0" y="0" width="375" height="432">
<path d="M0 0H375V432L167 409L0 394V0Z" fill="#C8EFF8"/>
</mask>
<g mask="url(#mask0_109_567)">
<path d="M16.0883 79.3768C19.0072 78.1394 22.3523 78.4789 25.4291 79.2406C28.7684 80.0676 32.2951 81.6444 33.7043 84.7804C35.1213 81.0938 38.5513 78.3407 42.3879 77.3993C46.2245 76.4579 50.3808 77.2335 53.8208 79.1735C55.8614 80.3241 57.6949 81.8931 58.9481 83.8726C61.4288 87.796 61.3578 92.7536 61.2058 97.3915C64.6576 95.6074 69.5106 97.9224 70.298 101.727C73.4162 99.0354 77.7877 97.8612 81.8354 98.6269C85.8832 99.3927 89.5244 102.083 91.4447 105.728C91.8138 106.428 92.1354 107.178 92.7038 107.729C93.3551 108.359 94.2511 108.651 95.0326 109.11C96.7654 110.129 97.9535 112.055 98.0443 114.064H-3C-2.65265 109.093 1.58853 104.848 6.48493 103.922C4.4719 99.7815 5.00081 94.5239 7.79932 90.8689C8.7111 89.6768 9.84985 89.3058 10.9235 88.4216C12.5674 87.0658 11.8175 88.4572 11.6951 86.2823C11.5215 83.2332 13.1832 80.6103 16.0883 79.3768Z" fill="white" fill-opacity="0.7"/>
<path d="M348.071 71.2537C348.397 70.4756 348.22 69.5138 347.638 68.9027C347.055 68.2915 346.099 68.0661 345.303 68.3533C345.283 66.61 345.103 64.8684 344.768 63.1568C344.528 61.9262 344.195 60.6838 343.491 59.6452C342.61 58.3461 341.212 57.4695 339.749 56.8917C335.207 55.0983 329.688 56.0651 326.034 59.2962C322.379 62.5273 320.761 67.8707 322.01 72.5746C320.906 72.3007 319.744 72.259 318.622 72.4527C318.927 71.4975 318.299 70.3537 317.328 70.0916C317.734 68.6538 316.304 67.1861 314.807 67.0976C313.31 67.0108 311.923 67.9275 310.917 69.0346C310.42 67.9625 308.931 67.6386 307.843 68.1095C306.755 68.5787 306.026 69.624 305.534 70.6977C305.015 71.8332 304.691 73.0905 304.847 74.3279C304.032 73.9572 303.174 73.5798 302.282 73.6516C301.39 73.7234 300.483 74.423 300.519 75.3131C299.814 74.6718 298.577 75.2429 298.227 76.1263C297.876 77.0096 297.975 78.0849 298.23 79H355.915C356.171 78.0983 355.834 77.0547 355.12 76.4435C354.384 75.814 353.386 75.7405 352.496 76.0294C352.225 75.4717 351.668 75.1978 351.361 74.6769C351.058 74.1609 351.095 73.6466 350.941 73.0872C350.801 72.5946 348.724 69.6975 348.071 71.2537Z" fill="white" fill-opacity="0.6"/>
<path d="M159.046 53.2529C158.683 51.9168 158.32 50.5807 157.957 49.2426C157.704 48.315 157.444 47.3697 156.905 46.5743C155.942 45.1554 154.089 44.4054 152.409 44.7527C150.73 45.1021 149.33 46.5309 149.013 48.2144C148.742 46.3 146.938 44.9422 145.091 44.3719C142.863 43.6831 140.238 43.9041 138.478 45.4317C136.717 46.9592 136.218 49.9393 137.777 51.674C134.225 50.7682 130.163 53.0338 129.07 56.5329C127.572 56.8171 126.542 58.5716 127.023 60.0182C126.125 59.0867 124.523 59.213 123.455 59.9452C122.387 60.6774 121.622 61.8142 121 62.949H174.343C174.43 61.1491 174.215 59.3334 173.734 57.5967C173.321 56.1066 172.652 54.6087 171.422 53.6713C170.033 52.6115 168.01 52.4634 166.481 53.3101C164.951 54.1568 164.002 55.9468 164.162 57.6875C163.99 55.8007 161.188 52.499 159.046 53.2529Z" fill="white" fill-opacity="0.6"/>
<path d="M48 325C58.4934 325 67 316.493 67 306C67 295.507 58.4934 287 48 287C37.5066 287 29 295.507 29 306C29 316.493 37.5066 325 48 325Z" fill="#0C0C0C" fill-opacity="0.1"/>
<path d="M50.2196 312.102C47.3451 312.151 44.4351 312.19 41.7928 312.007C40.9562 311.949 40.2324 310.62 41.2487 310.201C40.8207 309.981 40.3873 309.769 40.2013 309.29C40.0238 308.836 40.2367 308.22 40.7099 308.102C39.713 308.349 39.3205 306.767 40.098 306.257C39.6861 305.906 39.3442 305.443 39.2571 304.91C39.17 304.376 39.3883 303.774 39.8636 303.515C40.1744 303.346 40.5454 303.338 40.8992 303.336C42.095 303.328 43.2898 303.318 44.4845 303.309C44.1608 301.439 44.063 299.4 45.0136 297.757C45.2997 297.263 46.0697 296.669 46.6794 297.05C47.2515 297.407 47.0934 298.294 47.0644 298.853C46.945 301.18 48.2688 303.52 50.3239 304.616C50.3261 304.617 50.1895 309.574 50.2196 312.102Z" fill="white"/>
<path d="M51.2622 312.094H55.6057V304.617H51.2622V312.094Z" fill="white"/>
<path d="M330.594 390.991L323.424 391C321.542 391.003 320.012 389.539 320.009 387.734L320 381.283C319.997 379.476 321.524 378.012 323.406 378.009L330.576 378C332.461 377.997 333.988 379.458 333.991 381.266L334 387.717C334.003 389.522 332.476 390.988 330.594 390.991Z" fill="#589FAD" fill-opacity="0.3"/>
<rect x="62" y="141" width="48" height="54" rx="3" fill="#51CDE6"/>
<path d="M88.1774 183.292H74.8325C74.372 183.292 74 182.923 74 182.468C74 182.012 74.3734 181.644 74.8325 181.644H88.1759C88.6364 181.644 89.0084 182.014 89.0084 182.468C89.0099 182.923 88.6364 183.292 88.1774 183.292Z" fill="white" fill-opacity="0.8"/>
<path d="M95.1774 153.648H74.8325C74.372 153.648 74 153.279 74 152.824C74 152.368 74.3734 152 74.8325 152H95.1759C95.6364 152 96.0084 152.37 96.0084 152.824C96.0099 153.28 95.6364 153.648 95.1774 153.648Z" fill="white" fill-opacity="0.8"/>
<path d="M95.1774 158.292H74.8325C74.372 158.292 74 157.923 74 157.468C74 157.012 74.3734 156.644 74.8325 156.644H95.1759C95.6364 156.644 96.0084 157.014 96.0084 157.468C96.0099 157.924 95.6364 158.292 95.1774 158.292Z" fill="white" fill-opacity="0.8"/>
<path d="M95.1774 163.292H74.8325C74.372 163.292 74 162.923 74 162.468C74 162.012 74.3734 161.644 74.8325 161.644H95.1759C95.6364 161.644 96.0084 162.014 96.0084 162.468C96.0099 162.924 95.6364 163.292 95.1774 163.292Z" fill="white" fill-opacity="0.8"/>
<path d="M95.1774 168.292H74.8325C74.372 168.292 74 167.923 74 167.468C74 167.012 74.3734 166.644 74.8325 166.644H95.1759C95.6364 166.644 96.0084 167.014 96.0084 167.468C96.0099 167.924 95.6364 168.292 95.1774 168.292Z" fill="white" fill-opacity="0.8"/>
<path d="M95.1774 173.292H74.8325C74.372 173.292 74 172.923 74 172.468C74 172.012 74.3734 171.644 74.8325 171.644H95.1759C95.6364 171.644 96.0084 172.014 96.0084 172.468C96.0099 172.924 95.6364 173.292 95.1774 173.292Z" fill="white" fill-opacity="0.8"/>
<path d="M95.1774 178.292H74.8325C74.372 178.292 74 177.923 74 177.468C74 177.012 74.3734 176.644 74.8325 176.644H95.1759C95.6364 176.644 96.0084 177.014 96.0084 177.468C96.0099 177.924 95.6364 178.292 95.1774 178.292Z" fill="white" fill-opacity="0.8"/>
<rect width="112" height="36" rx="3" transform="matrix(-1 0 0 1 338 97)" fill="#FC8166"/>
<path d="M234 133V149L252 133H234Z" fill="#FC8166"/>
<rect width="79" height="2" rx="1" transform="matrix(-1 0 0 1 320 106)" fill="white" fill-opacity="0.5"/>
<rect width="79" height="2" rx="1" transform="matrix(-1 0 0 1 320 113)" fill="white" fill-opacity="0.5"/>
<rect width="58" height="2" rx="1" transform="matrix(-1 0 0 1 299 120)" fill="white" fill-opacity="0.5"/>
<rect x="298.5" y="212.5" width="27" height="27" rx="3.5" stroke="#5EB4C5" stroke-opacity="0.8"/>
<path d="M308 226.8L310.2 229L315.8 223" stroke="#5EB4C5" stroke-opacity="0.8" stroke-width="2" stroke-linecap="round" stroke-linejoin="round"/>
<path d="M236.898 375.799L251.014 587.364L205.507 586.74L184.001 361.089L236.898 375.799Z" fill="#00335F"/>
<path d="M154.176 376.288L144.091 587.364H190.668L198.406 371.227L154.176 376.288Z" fill="#00335F"/>
<path d="M194.785 474.227L190.025 424.29L178.559 417.629L194.225 489.103L194.785 474.227Z" fill="black"/>
<path d="M159.197 179.9C159.197 179.9 146.559 187.096 158.336 200.046L167.744 182.915L159.197 179.9Z" fill="#0C0C0C"/>
<path d="M212.337 200.987C209.267 216.509 199.532 229.646 183.709 229.658C167.886 229.671 155.05 216.853 155.038 201.03C155.026 185.207 167.852 172.947 183.666 172.359C204.233 171.596 215.885 183.041 212.337 200.987Z" fill="#0C0C0C"/>
<path d="M197.366 214.472L204.23 256.013L177.257 257.816L176.774 224.923L197.366 214.472Z" fill="#FFC1C2"/>
<path d="M177.048 243.439L196.013 222.514L176.827 227.991L177.048 243.439Z" fill="#0C0C0C" fill-opacity="0.2"/>
<path d="M166.138 213.7C164.812 217.964 160.28 220.345 156.016 219.022C151.752 217.696 149.367 213.164 150.694 208.9C152.02 204.636 156.551 202.255 160.816 203.578C165.08 204.904 167.461 209.436 166.138 213.7Z" fill="#FFC1C2"/>
<path d="M180.842 176.525C168.597 175.057 157.45 184.084 155.281 196.224C153.813 204.448 153.663 214.06 155.715 220.361C158.231 228.092 163.037 232.769 170.91 234.23C177.568 235.467 184.543 233.732 190.001 229.72C194.536 226.385 199.628 221.484 201.058 212.143C204.455 189.979 193.739 178.069 180.842 176.525Z" fill="#FFC1C2"/>
<path d="M191.308 181.177L193.708 210.823L208.642 202.239L203.956 188.253L191.308 181.177Z" fill="#0C0C0C"/>
<path d="M210.694 214.854C209.276 219.419 204.421 221.97 199.855 220.552C195.289 219.133 192.739 214.281 194.157 209.712C195.576 205.147 200.431 202.596 204.996 204.015C209.562 205.436 212.113 210.288 210.694 214.854Z" fill="#FFC1C2"/>
<path d="M201.4 183.955C201.4 183.955 179.614 197.394 158.416 187.918C151.441 184.798 149.801 176.088 153.881 169.627C153.939 169.531 154.001 169.439 154.062 169.344C160.293 159.862 177.211 164.178 182.949 174.737L201.4 183.955Z" fill="#0C0C0C"/>
<path d="M117.807 347.964L143.257 283.45C145.691 276.466 153.456 272.919 160.33 275.654C166.892 278.266 171.046 285.905 168.584 292.526L138.858 371.796L117.807 347.964Z" fill="#FFC1C2"/>
<path d="M166.381 255.453C166.381 255.453 139.104 264.2 130.295 302.439L164.209 326.133L166.381 255.453Z" fill="#FF6E4F"/>
<path d="M153.945 318.441V290.791L148.34 315.044L153.945 318.441Z" fill="#FF5D39"/>
<path d="M112.349 272.005L96.3723 269.172L111.257 365.889C112.371 375.39 122.032 381.383 131.037 378.165C138.525 375.488 142.584 367.394 140.248 359.794L112.349 272.005Z" fill="#FFC1C2"/>
<path d="M128.246 322.028L133.55 338.716" stroke="#FF5D39" stroke-width="0.3015" stroke-miterlimit="10" stroke-linecap="round" stroke-linejoin="round"/>
<path d="M104.085 226.114C104.519 235.618 105.661 263.369 105.996 271.501C106.048 272.814 107.042 273.891 108.347 274.057L131.188 277.017C132.874 277.236 134.338 275.863 134.227 274.165L131.298 228.655C131.215 227.366 130.231 226.317 128.951 226.151L107.131 223.323C105.464 223.108 104.009 224.437 104.085 226.114Z" fill="#005397"/>
<path d="M96.1293 266.895C97.083 276.485 98.9413 289.068 110.894 285.875C115.927 284.53 117.807 282.392 119.41 272.984C120.019 269.412 126.843 262.554 126.779 255.794C126.69 246.158 112.694 244.521 107.178 246.404C99.5628 249.004 95.1755 257.305 96.1293 266.895Z" fill="#FFC1C2"/>
<path d="M204.23 249.943L222.389 256.416C235.729 263.215 243.562 279.343 240.848 294.068C240.719 294.766 240.572 296.705 240.399 297.421L236.898 375.799L154.176 376.288L153.946 276.549C154.262 270.802 161.24 258.043 166.381 255.453L177.257 251.746L204.23 249.943Z" fill="#FF6E4F"/>
<path d="M203.163 249.564L212.968 253.059C212.968 253.059 206.248 270.452 186.419 269.175C166.59 267.895 172.738 253.29 172.738 253.29L177.26 251.749L203.163 249.564Z" fill="#FFC1C2"/>
<path d="M239.203 324.176L219.297 306.916L238.553 338.716L239.203 324.176Z" fill="#FF5D39"/>
<path d="M270.157 342.248L230.653 302.43C225.081 297.566 231.089 289.514 236.19 284.158C241.061 279.042 249.128 278.755 254.349 283.512L300.12 331.609L270.157 342.248Z" fill="#FFC1C2"/>
<path d="M222.389 256.416C222.389 256.416 249.835 266.535 274.313 297.563L242.981 327.449L210.722 299.477L222.389 256.416Z" fill="#FF6E4F"/>
<path d="M225.779 374.473L231.065 386.247L295.536 355.225C304.166 351.1 306.716 340.021 300.757 332.538C295.803 326.317 286.832 325.093 280.393 329.76L225.779 374.473Z" fill="#FFC1C2"/>
<path d="M267.911 339.984L279.023 330.886" stroke="#FF5D39" stroke-width="0.3015" stroke-miterlimit="10" stroke-linecap="round" stroke-linejoin="round"/>
<path d="M193.133 379.374L209.027 370.286L205.968 365.852C205.23 364.655 205.384 363.111 206.344 362.08C207.334 361.019 208.928 360.779 210.19 361.505L229.296 373.381L238.553 381.961C230.92 390.484 225.281 391.142 221.844 390.145C221.481 390.321 221.127 390.508 220.758 390.671L208.011 396.237C206.858 396.929 205.362 396.603 204.602 395.493C204.052 394.686 203.713 393.32 206.092 391.687L203.713 393.32C202.492 394.053 200.91 393.687 200.135 392.49C199.415 391.438 199.917 389.856 201.286 388.681L199.437 389.708C198.105 390.508 196.348 390.035 195.619 388.604C194.988 387.367 195.483 385.844 196.628 385.06L199.255 383.26L196.016 384.515C194.548 385.266 192.72 384.669 192 383.121C191.379 381.792 191.927 380.205 193.133 379.374Z" fill="#FFC1C2"/>
</g>
</svg>
