<svg fill="none" height="512" viewBox="0 0 24 24" width="512" xmlns="http://www.w3.org/2000/svg"><g fill="rgb(0,0,0)"><path d="m20.0984 6.94c0 .54-.29 1.03-.75 1.28l-1.74.94-1.48.79-3.07 1.66c-.33.18-.69.27-1.06.27s-.73-.09-1.06-.27l-6.28996-3.39c-.46-.25-.75-.74-.75-1.28s.29-1.03.75-1.28l1.97-1.06 1.57-.85 2.74996-1.48c.66-.36 1.46-.36 2.12 0l6.29 3.39c.46.25.75.74.75 1.28z"/><path d="m9.89875 12.7901-5.85-2.91996c-.45-.23-.97-.2-1.4.06-.43.25996-.68.71996-.68 1.21996v5.53c0 .96.53 1.82 1.39 2.25l5.85 2.92c.2.1.42.15.64.15.26005 0 .52005-.07.75005-.22.43-.26.6799-.72.6799-1.22v-5.53c.01-.95-.52-1.81-1.37995-2.24z"/><path d="m22.0309 11.1496v5.53c0 .95-.53 1.81-1.39 2.24l-5.85 2.93c-.2.1-.42.15-.64.15-.26 0-.52-.07-.76-.22-.42-.26-.68-.72-.68-1.22v-5.52c0-.96.53-1.82 1.39-2.25l2.15-1.07 1.5-.75 2.2-1.09996c.45-.23.97-.21 1.4.06.42.25996.68.71996.68 1.21996z"/><path d="m17.6111 9.16-1.48.79-9.51001-5.35 1.57-.85 9.18001 5.18c.1.06.18.14.24.23z"/><path d="m17.75 10.9688v2.2699c0 .41-.34.75-.75.75s-.75-.34-.75-.75v-1.5199z"/></g></svg>