<svg width="16" height="16" viewBox="0 0 16 16" fill="none" xmlns="http://www.w3.org/2000/svg">
<path d="M12.71 6.1475V5.21C12.71 3.185 12.2225 0.5 8 0.5C3.7775 0.5 3.29 3.185 3.29 5.21V6.1475C1.19 6.41 0.5 7.475 0.5 10.0925V11.4875C0.5 14.5625 1.4375 15.5 4.5125 15.5H11.4875C14.5625 15.5 15.5 14.5625 15.5 11.4875V10.0925C15.5 7.475 14.81 6.41 12.71 6.1475ZM8 13.055C6.7475 13.055 5.735 12.035 5.735 10.79C5.735 9.5375 6.755 8.525 8 8.525C9.245 8.525 10.265 9.545 10.265 10.79C10.265 12.0425 9.2525 13.055 8 13.055ZM4.5125 6.08C4.4525 6.08 4.4 6.08 4.34 6.08V5.21C4.34 3.0125 4.9625 1.55 8 1.55C11.0375 1.55 11.66 3.0125 11.66 5.21V6.0875C11.6 6.0875 11.5475 6.0875 11.4875 6.0875H4.5125V6.08Z" fill="#0C0C0C"/>
</svg>
