<svg width="15" height="17" viewBox="0 0 15 17" fill="none" xmlns="http://www.w3.org/2000/svg">
<path d="M7.0125 16.1306C6.195 16.1306 5.385 15.8906 4.7475 15.4181L1.5225 13.0106C0.6675 12.3731 0 11.0456 0 9.98063V4.40062C0 3.24563 0.8475 2.01562 1.935 1.61063L5.6775 0.208125C6.42 -0.069375 7.59 -0.069375 8.3325 0.208125L12.0825 1.61063C13.17 2.01562 14.0175 3.24563 14.0175 4.40062V9.97313C14.0175 11.0381 13.35 12.3656 12.495 13.0031L9.27 15.4106C8.64 15.8906 7.83 16.1306 7.0125 16.1306ZM6.075 1.26563L2.3325 2.66812C1.6875 2.90812 1.125 3.71813 1.125 4.40812V9.98063C1.125 10.6931 1.6275 11.6906 2.19 12.1106L5.415 14.5181C6.2775 15.1631 7.74 15.1631 8.6025 14.5181L11.8275 12.1106C12.3975 11.6831 12.8925 10.6856 12.8925 9.98063V4.40062C12.8925 3.71812 12.33 2.90813 11.685 2.66062L7.9425 1.25813C7.4475 1.07813 6.5775 1.07813 6.075 1.26563Z" fill="#0C0C0C"/>
<path d="M7.0125 8.99813C5.8725 8.99813 4.95 8.07562 4.95 6.93563C4.95 5.79563 5.8725 4.87313 7.0125 4.87313C8.1525 4.87313 9.075 5.79563 9.075 6.93563C9.075 8.07562 8.1525 8.99813 7.0125 8.99813ZM7.0125 5.99813C6.495 5.99813 6.075 6.41813 6.075 6.93563C6.075 7.45312 6.495 7.87313 7.0125 7.87313C7.53 7.87313 7.95 7.45312 7.95 6.93563C7.95 6.41813 7.53 5.99813 7.0125 5.99813Z" fill="#0C0C0C"/>
<path d="M7.0125 11.2481C6.705 11.2481 6.45 10.9931 6.45 10.6856V8.43563C6.45 8.12813 6.705 7.87313 7.0125 7.87313C7.32 7.87313 7.575 8.12813 7.575 8.43563V10.6856C7.575 10.9931 7.32 11.2481 7.0125 11.2481Z" fill="#0C0C0C"/>
</svg>
