<svg width="26" height="25" viewBox="0 0 26 25" fill="none" xmlns="http://www.w3.org/2000/svg">
<path d="M14.5017 23.3333H6.70833C2.45 23.3333 0 20.8833 0 16.625V6.70833C0 2.45 2.45 0 6.70833 0H16.0417C20.3 0 22.75 2.45 22.75 6.70833V12.6933C22.75 13.0317 22.5516 13.335 22.26 13.4867C21.9566 13.6267 21.595 13.5916 21.3383 13.3816C19.495 11.9116 16.66 11.9117 14.8167 13.4167C13.5567 14.4083 12.845 15.89 12.845 17.5117C12.845 18.4683 13.1017 19.4017 13.6033 20.2067C13.9883 20.8367 14.4667 21.3617 15.0267 21.7584C15.33 21.98 15.47 22.3767 15.3533 22.7383C15.2133 23.0883 14.8867 23.3333 14.5017 23.3333ZM6.70833 1.75C3.37167 1.75 1.75 3.37167 1.75 6.70833V16.625C1.75 19.9617 3.37167 21.5833 6.70833 21.5833H12.4134C12.2967 21.4317 12.1917 21.2684 12.0983 21.105C11.4333 20.0317 11.0833 18.7833 11.0833 17.5C11.0833 15.3417 12.04 13.3583 13.72 12.04C15.715 10.4183 18.6667 10.0683 21 11.1417V6.70833C21 3.37167 19.3783 1.75 16.0417 1.75H6.70833Z" fill="#0C0C0C"/>
<path d="M12.5416 10.5H5.54163C5.06329 10.5 4.66663 10.1033 4.66663 9.625C4.66663 9.14667 5.06329 8.75 5.54163 8.75H12.5416C13.02 8.75 13.4166 9.14667 13.4166 9.625C13.4166 10.1033 13.02 10.5 12.5416 10.5Z" fill="#0C0C0C"/>
<path d="M21.0673 18.375H15.6827C15.2412 18.375 14.875 17.9783 14.875 17.5C14.875 17.0217 15.2412 16.625 15.6827 16.625H21.0673C21.5088 16.625 21.875 17.0217 21.875 17.5C21.875 17.9783 21.5088 18.375 21.0673 18.375Z" fill="#0C0C0C"/>
<path d="M19.25 14.8077V20.1923C19.25 20.6338 18.8533 21 18.375 21C17.8967 21 17.5 20.6338 17.5 20.1923V14.8077C17.5 14.3662 17.8967 14 18.375 14C18.8533 14 19.25 14.3662 19.25 14.8077Z" fill="#0C0C0C"/>
<path d="M8.59829 16.3333H5.54163C5.06329 16.3333 4.66663 15.9366 4.66663 15.4583C4.66663 14.98 5.06329 14.5833 5.54163 14.5833H8.59829C9.07662 14.5833 9.47329 14.98 9.47329 15.4583C9.47329 15.9366 9.08829 16.3333 8.59829 16.3333Z" fill="#0C0C0C"/>
<path d="M18.0834 24.5C16.59 24.5 15.1784 24.0333 13.9884 23.1699C13.2417 22.6333 12.6 21.9334 12.0983 21.105C11.4333 20.0317 11.0833 18.7833 11.0833 17.5C11.0833 15.3417 12.04 13.3583 13.72 12.04C16.1467 10.0683 19.9734 10.0566 22.4234 12.0049C24.115 13.3349 25.0834 15.3416 25.0834 17.5C25.0834 18.7833 24.7334 20.0317 24.0684 21.105C23.695 21.7467 23.2167 22.3066 22.6684 22.7616C21.42 23.8816 19.7867 24.5 18.0834 24.5ZM18.0834 12.25C16.8934 12.25 15.7267 12.6583 14.805 13.4049C13.545 14.3966 12.8334 15.8783 12.8334 17.5C12.8334 18.4566 13.09 19.39 13.5917 20.195C13.9767 20.825 14.455 21.35 15.015 21.7466C15.9134 22.4 16.975 22.75 18.0834 22.75C19.3784 22.75 20.5684 22.295 21.5251 21.4433C21.9451 21.0933 22.2834 20.685 22.5634 20.2066C23.065 19.39 23.3334 18.4566 23.3334 17.5C23.3334 15.8783 22.61 14.385 21.3383 13.3816C20.405 12.635 19.285 12.25 18.0834 12.25Z" fill="#0C0C0C"/>
</svg>
