<svg width="17" height="17" viewBox="0 0 17 17" fill="none" xmlns="http://www.w3.org/2000/svg">
<path d="M12.3076 16.0125C11.9101 16.0125 11.4001 15.885 10.7626 15.51L8.52009 14.1825C8.28759 14.0475 7.83759 14.0475 7.61259 14.1825L5.36259 15.51C4.03509 16.2975 3.25509 15.9825 2.90259 15.7275C2.55759 15.4725 2.01759 14.82 2.37009 13.32L2.90259 11.0175C2.96259 10.7775 2.84259 10.365 2.66259 10.185L0.802588 8.325C-0.127412 7.395 -0.0524116 6.6 0.0750884 6.21C0.202588 5.82 0.607588 5.13 1.89759 4.9125L4.29009 4.515C4.51509 4.4775 4.83759 4.2375 4.93509 4.035L6.26259 1.3875C6.86259 0.18 7.65009 0 8.06259 0C8.47509 0 9.26259 0.18 9.86259 1.3875L11.1826 4.0275C11.2876 4.23 11.6101 4.47 11.8351 4.5075L14.2276 4.905C15.5251 5.1225 15.9301 5.8125 16.0501 6.2025C16.1701 6.5925 16.2451 7.3875 15.3226 8.3175L13.4626 10.185C13.2826 10.365 13.1701 10.77 13.2226 11.0175L13.7551 13.32C14.1001 14.82 13.5676 15.4725 13.2226 15.7275C13.0351 15.8625 12.7351 16.0125 12.3076 16.0125ZM8.06259 12.9525C8.43009 12.9525 8.79759 13.0425 9.09009 13.215L11.3326 14.5425C11.9851 14.9325 12.3976 14.9325 12.5551 14.82C12.7126 14.7075 12.8251 14.31 12.6601 13.575L12.1276 11.2725C11.9851 10.65 12.2176 9.8475 12.6676 9.39L14.5276 7.53C14.8951 7.1625 15.0601 6.8025 14.9851 6.555C14.9026 6.3075 14.5576 6.105 14.0476 6.0225L11.6551 5.625C11.0776 5.5275 10.4476 5.0625 10.1851 4.5375L8.86509 1.8975C8.62509 1.4175 8.32509 1.1325 8.06259 1.1325C7.80009 1.1325 7.50009 1.4175 7.26759 1.8975L5.94009 4.5375C5.67759 5.0625 5.04759 5.5275 4.47009 5.625L2.08509 6.0225C1.57509 6.105 1.23009 6.3075 1.14759 6.555C1.06509 6.8025 1.23759 7.17 1.60509 7.53L3.46509 9.39C3.91509 9.84 4.14759 10.65 4.00509 11.2725L3.47259 13.575C3.30009 14.3175 3.42009 14.7075 3.57759 14.82C3.73509 14.9325 4.14009 14.925 4.80009 14.5425L7.04259 13.215C7.32759 13.0425 7.69509 12.9525 8.06259 12.9525Z" fill="#0C0C0C"/>
</svg>
