<svg width="18" height="18" viewBox="0 0 18 18" fill="none" xmlns="http://www.w3.org/2000/svg">
<path d="M15 4.3125H10.5C10.1925 4.3125 9.9375 4.0575 9.9375 3.75C9.9375 3.4425 10.1925 3.1875 10.5 3.1875H15C15.3075 3.1875 15.5625 3.4425 15.5625 3.75C15.5625 4.0575 15.3075 4.3125 15 4.3125Z" fill="#0C0C0C"/>
<path d="M12.75 6.5625H10.5C10.1925 6.5625 9.9375 6.3075 9.9375 6C9.9375 5.6925 10.1925 5.4375 10.5 5.4375H12.75C13.0575 5.4375 13.3125 5.6925 13.3125 6C13.3125 6.3075 13.0575 6.5625 12.75 6.5625Z" fill="#0C0C0C"/>
<path d="M8.625 16.3125C4.3875 16.3125 0.9375 12.8625 0.9375 8.625C0.9375 4.3875 4.3875 0.9375 8.625 0.9375C8.9325 0.9375 9.1875 1.1925 9.1875 1.5C9.1875 1.8075 8.9325 2.0625 8.625 2.0625C5.0025 2.0625 2.0625 5.01 2.0625 8.625C2.0625 12.24 5.0025 15.1875 8.625 15.1875C12.2475 15.1875 15.1875 12.24 15.1875 8.625C15.1875 8.3175 15.4425 8.0625 15.75 8.0625C16.0575 8.0625 16.3125 8.3175 16.3125 8.625C16.3125 12.8625 12.8625 16.3125 8.625 16.3125Z" fill="#0C0C0C"/>
<path d="M16.5 17.0625C16.3575 17.0625 16.215 17.01 16.1025 16.8975L14.6025 15.3975C14.385 15.18 14.385 14.82 14.6025 14.6025C14.82 14.385 15.18 14.385 15.3975 14.6025L16.8975 16.1025C17.115 16.32 17.115 16.68 16.8975 16.8975C16.785 17.01 16.6425 17.0625 16.5 17.0625Z" fill="#0C0C0C"/>
</svg>
