<?xml version="1.0" encoding="utf-8"?>
<!-- Generator: Adobe Illustrator 26.0.1, SVG Export Plug-In . SVG Version: 6.00 Build 0)  -->
<svg version="1.1" id="Layer_1" xmlns="http://www.w3.org/2000/svg" xmlns:xlink="http://www.w3.org/1999/xlink" x="0px" y="0px"
	 viewBox="0 0 28 28" style="enable-background:new 0 0 28 28;" xml:space="preserve">
<style type="text/css">
	.st0{fill:#FF471F;}
	.st1{fill:#868686;}
	.st2{fill:#FF471F;stroke:#FFFFFF;stroke-width:0.5;stroke-miterlimit:10;}
	.st3{fill:#FFFFFF;}
</style>
<g>
	<path class="st0" d="M17.5,1.8H8.2c-4.3,0-6.7,2.4-6.7,6.7v9.9c0,4.3,2.4,6.7,6.7,6.7h7.6c-1.8-1.2-3-3.3-3-5.7c0-3.8,3.1-7,7-7
		c1.7,0,3.2,0.6,4.4,1.6V8.5C24.2,4.2,21.8,1.8,17.5,1.8z M10.1,18.1H7c-0.5,0-0.9-0.4-0.9-0.9s0.4-0.9,0.9-0.9h3.1
		c0.5,0,0.9,0.4,0.9,0.9C10.9,17.7,10.5,18.1,10.1,18.1z M14,12.3H7c-0.5,0-0.9-0.4-0.9-0.9s0.4-0.9,0.9-0.9h7
		c0.5,0,0.9,0.4,0.9,0.9S14.5,12.3,14,12.3z"/>
	<path class="st1" d="M15.8,25.1L15.8,25.1c0.1,0.1,0.3,0.2,0.5,0.3C16.1,25.3,15.9,25.2,15.8,25.1z"/>
</g>
<path class="st2" d="M24.2,14L24.2,14c-1.2-1-2.8-1.6-4.4-1.6c-3.9,0-7,3.1-7,7c0,2.4,1.2,4.4,3,5.7c0.2,0.1,0.3,0.2,0.5,0.3
	c1,0.5,2.1,0.8,3.2,0.8c1.7,0,3.4-0.6,4.6-1.7c0.5-0.5,1-1.1,1.4-1.7c0.6-1.1,1-2.3,1-3.6C26.5,17.2,25.7,15.3,24.2,14z"/>
<path class="st3" d="M22.6,18.4h-1.8v-1.8c0-0.4-0.4-0.8-0.8-0.8h-0.2c-0.4,0-0.8,0.4-0.8,0.8v1.8h-1.8c-0.4,0-0.8,0.4-0.8,0.8v0.2
	c0,0.4,0.4,0.8,0.8,0.8h1.8V22c0,0.4,0.4,0.8,0.8,0.8h0.2c0.4,0,0.8-0.4,0.8-0.8v-1.8h1.8c0.4,0,0.8-0.4,0.8-0.8v-0.2
	C23.4,18.7,23,18.4,22.6,18.4z"/>
</svg>
