<?xml version="1.0" encoding="utf-8"?>
<!-- Generator: Adobe Illustrator 26.0.1, SVG Export Plug-In . SVG Version: 6.00 Build 0)  -->
<svg version="1.1" id="Layer_1" xmlns="http://www.w3.org/2000/svg" xmlns:xlink="http://www.w3.org/1999/xlink" x="0px" y="0px"
	 viewBox="0 0 28 28" style="enable-background:new 0 0 28 28;" xml:space="preserve">
<style type="text/css">
	.st0{fill:#FF471F;}
	.st1{fill:#FFFFFF;}
</style>
<g>
	<path class="st0" d="M7.7,1.4h3.1L9.8,13.7c-0.9,0.8-2,1.2-3.1,1.2c-1.5,0-2.9-0.6-3.8-1.8c-0.8-0.9-1.1-2.2-1-3.4l0.3-3.3
		C2.7,2.8,4.3,1.4,7.7,1.4z"/>
	<path class="st0" d="M17.1,13.8c-0.8,0.7-1.7,1.1-2.9,1.1c-1.2,0-2.3-0.4-3.1-1.2l0.9-12.3h4.1L17.1,13.8z"/>
	<path class="st0" d="M25.3,13c-0.8,1.2-2.2,1.9-3.8,1.9c-1.1,0-2.2-0.4-3.1-1.2L17.5,1.4h2.8c3.4,0,5,1.5,5.5,5l0.3,3.2
		C26.2,10.9,25.9,12,25.3,13z"/>
	<path class="st0" d="M13.2,19.4c-1.5,0.2-2.6,1.4-2.6,2.9v3.2c0,0.3,0.3,0.6,0.6,0.6h5.6c0.3,0,0.6-0.3,0.6-0.6v-2.8
		C17.4,20.3,15.9,19.2,13.2,19.4z"/>
	<path class="st0" d="M24.9,17v3.5c0,3.2-2.6,5.8-5.8,5.8c-0.3,0-0.6-0.3-0.6-0.6v-2.8c0-1.5-0.4-2.7-1.3-3.5
		c-0.8-0.8-1.9-1.1-3.2-1.1h-0.9c-2.1,0.3-3.7,2-3.7,4.1v3.2c0,0.3-0.3,0.6-0.6,0.6c-3.2,0-5.8-2.6-5.8-5.8v-3.5
		c0-0.8,0.8-1.4,1.6-1.1C5,15.9,5.3,16,5.6,16h1c1.3,0,2.7-0.5,3.7-1.4c0,0,0,0,0,0c0,0,0,0,0,0c1,0.9,2.3,1.4,3.7,1.4
		c1.4,0,2.7-0.4,3.7-1.3c1.1,0.8,2.4,1.3,3.7,1.3h1c0.3-0.1,0.7-0.2,1-0.3C24.2,15.4,24.9,16,24.9,17z"/>
</g>
<g>
	<path class="st1" d="M10.3,14.6C10.3,14.6,10.3,14.6,10.3,14.6C10.3,14.6,10.3,14.6,10.3,14.6C10.3,14.6,10.3,14.6,10.3,14.6z"/>
</g>
</svg>
