<svg width="176" height="130" viewBox="0 0 176 130" fill="none" xmlns="http://www.w3.org/2000/svg">
<path d="M122.394 22.2717V29.7586L87.8232 50.6123L82.4829 47.5306V18.3959L68.2546 26.5634L72.991 29.6641L73.7081 30.1178L72.7646 41.5751L53.2336 29.6263V22.2717L87.8232 2.2688L93.1447 5.35053V34.315L101.127 29.7019L107.09 26.2609L102.184 23.3683L104.259 11.7787L122.394 22.2717Z" fill="#FF471F"/>
<path d="M82.1244 54.2423L71.8777 60.5004L63.2916 55.2633V72.6571L62.7632 72.3546L53.2336 66.4937V36.2246L82.1244 54.2423Z" fill="white"/>
<path d="M106.901 69.3863L96.8245 75.8523L87.8233 70.3127L78.7654 75.8712L68.6886 69.4052L87.8233 57.7211L106.901 69.3863Z" fill="white"/>
<path d="M122.469 36.2246V66.4937L122.319 66.5693L112.336 72.6571V55.2633L112.298 55.2822L103.75 60.5193L93.5033 54.2423L122.469 36.2246Z" fill="white"/>
<path d="M47.3587 124.725V127.618H46V119.828H48.9815C49.8496 119.828 50.5478 120.055 51.0573 120.509C51.5668 120.963 51.831 121.568 51.831 122.305C51.831 123.061 51.5857 123.666 51.0762 124.082C50.5667 124.498 49.8685 124.725 48.9815 124.725H47.3587ZM47.3587 123.647H48.9815C49.4533 123.647 49.8307 123.534 50.076 123.307C50.3213 123.08 50.4534 122.759 50.4534 122.324C50.4534 121.908 50.3213 121.568 50.076 121.322C49.8118 121.076 49.4722 120.944 49.0193 120.925H47.3587V123.647Z" fill="white"/>
<path d="M56.1712 127.618H54.8314V119.828H56.1712V127.618Z" fill="white"/>
<path d="M64.1346 124.139H60.9455V126.54H64.6818V127.618H59.5868V119.828H64.6252V120.925H60.9455V123.08H64.1346V124.139ZM62.8136 119.318H61.738L60.3039 117.692H61.7758L62.8136 119.318Z" fill="white"/>
<path d="M73.4566 125.084C73.3811 125.916 73.0792 126.559 72.532 127.032C72.0036 127.504 71.2865 127.731 70.3996 127.731C69.7769 127.731 69.2296 127.58 68.7579 127.296C68.2861 126.994 67.9276 126.578 67.6634 126.048C67.3992 125.5 67.2671 124.876 67.2671 124.158V123.439C67.2671 122.702 67.3992 122.059 67.6634 121.492C67.9276 120.925 68.305 120.509 68.7767 120.206C69.2674 119.904 69.8335 119.753 70.4562 119.753C71.3054 119.753 72.0036 119.98 72.532 120.452C73.0603 120.925 73.3623 121.568 73.4377 122.437H72.0979C72.0413 121.87 71.8715 121.473 71.6073 121.227C71.3431 120.982 70.9657 120.849 70.4562 120.849C69.8712 120.849 69.4183 121.057 69.0975 121.492C68.7767 121.927 68.6258 122.551 68.6069 123.383V124.082C68.6069 124.933 68.7579 125.576 69.0598 126.011C69.3617 126.446 69.7957 126.672 70.3807 126.672C70.9091 126.672 71.3054 126.559 71.5696 126.313C71.8337 126.067 72.0036 125.67 72.0791 125.122H73.4566V125.084Z" fill="white"/>
<path d="M80.9481 124.139H77.759V126.54H81.4954V127.618H76.4192V119.828H81.4576V120.925H77.759V123.08H80.9481V124.139Z" fill="white"/>
<path d="M88.4019 125.614C88.4019 125.273 88.2887 125.009 88.0434 124.82C87.7981 124.631 87.3641 124.441 86.7413 124.252C86.1186 124.063 85.6091 123.855 85.2506 123.628C84.5335 123.175 84.1938 122.608 84.1938 121.889C84.1938 121.265 84.458 120.736 84.9675 120.339C85.477 119.923 86.1375 119.734 86.9489 119.734C87.4962 119.734 87.9679 119.828 88.4019 120.036C88.8171 120.244 89.1568 120.528 89.4021 120.887C89.6474 121.265 89.7606 121.662 89.7606 122.116H88.4208C88.4208 121.7 88.2887 121.398 88.0434 121.152C87.7981 120.925 87.4207 120.811 86.9489 120.811C86.5149 120.811 86.1564 120.906 85.9299 121.095C85.6846 121.284 85.5714 121.549 85.5714 121.889C85.5714 122.173 85.7035 122.418 85.9677 122.608C86.2318 122.797 86.6659 122.986 87.2697 123.156C87.8736 123.345 88.3642 123.534 88.7227 123.78C89.0813 124.007 89.3643 124.271 89.5342 124.574C89.704 124.876 89.7984 125.217 89.7984 125.614C89.7984 126.256 89.553 126.786 89.0624 127.164C88.5718 127.542 87.8924 127.731 87.0433 127.731C86.4772 127.731 85.9677 127.618 85.4959 127.41C85.0241 127.202 84.6656 126.918 84.4014 126.54C84.1372 126.181 84.0051 125.746 84.0051 125.254H85.3638C85.3638 125.689 85.5148 126.048 85.7978 126.275C86.0809 126.521 86.5149 126.635 87.0433 126.635C87.515 126.635 87.8736 126.54 88.1 126.351C88.2887 126.181 88.4019 125.935 88.4019 125.614Z" fill="white"/>
<path d="M101.517 125.803H98.4977L97.8749 127.618H96.4785L99.4223 119.828H100.63L103.574 127.618H102.159L101.517 125.803ZM98.8751 124.725H101.121L99.9884 121.492L98.8751 124.725Z" fill="white"/>
<path d="M111.783 119.828V125.028C111.783 125.859 111.518 126.502 110.99 126.994C110.462 127.485 109.763 127.712 108.877 127.712C107.99 127.712 107.273 127.467 106.763 126.994C106.235 126.521 105.97 125.859 105.97 125.009V119.809H107.31V125.028C107.31 125.557 107.442 125.954 107.707 126.219C107.971 126.502 108.367 126.635 108.877 126.635C109.914 126.635 110.443 126.086 110.443 124.99V119.828H111.783Z" fill="white"/>
<path d="M120.595 120.925H118.18V127.618H116.84V120.925H114.443V119.828H120.614V120.925H120.595Z" fill="white"/>
<path d="M129.426 123.931C129.426 124.687 129.294 125.368 129.03 125.935C128.766 126.502 128.389 126.956 127.898 127.258C127.407 127.561 126.841 127.712 126.2 127.712C125.577 127.712 125.011 127.561 124.52 127.258C124.029 126.956 123.652 126.502 123.369 125.935C123.105 125.368 122.973 124.706 122.954 123.969V123.534C122.954 122.778 123.086 122.097 123.35 121.53C123.614 120.944 123.992 120.509 124.482 120.188C124.973 119.885 125.539 119.734 126.162 119.734C126.803 119.734 127.351 119.885 127.841 120.188C128.332 120.49 128.709 120.925 128.974 121.511C129.238 122.078 129.37 122.759 129.389 123.515V123.931H129.426ZM128.068 123.515C128.068 122.645 127.898 121.984 127.577 121.53C127.256 121.076 126.785 120.83 126.2 120.83C125.615 120.83 125.162 121.057 124.822 121.511C124.501 121.965 124.331 122.626 124.313 123.458V123.912C124.313 124.763 124.482 125.425 124.803 125.897C125.143 126.37 125.596 126.597 126.181 126.597C126.785 126.597 127.237 126.37 127.558 125.916C127.879 125.462 128.049 124.801 128.049 123.912V123.515H128.068Z" fill="white"/>
<path d="M3.07593 114.572V111.434L5.60457 110.924V94.0591L3.07593 93.5486V90.3723H5.60457H13.6057L19.8329 106.802H19.9273L25.9847 90.3723H36.4578V93.5297L33.9103 94.0401V110.905L36.4578 111.415V114.572H26.0791V111.434L28.7398 110.924V106.991L28.8341 95.8552L28.7398 95.8362L21.7011 114.421H17.5873L10.4165 96.0253L10.3033 96.0442L10.643 106.367V110.942L13.4547 111.453V114.572H3.07593Z" fill="white"/>
<path d="M37.8165 114.572V111.434L40.364 110.924V94.0591L37.8165 93.5486V90.3723H56.8191V97.1219H52.7808L52.5921 94.4561H45.6667V100.015H53.6111V104.117H45.6667V110.489H52.9507L53.1394 107.728H57.1399V114.572H37.8165Z" fill="white"/>
<path d="M71.1984 114.913C68.8773 114.913 66.8393 114.44 65.0655 113.476C63.2916 112.512 61.9141 111.15 60.9328 109.354C59.9516 107.577 59.4609 105.441 59.4609 102.945V102C59.4609 99.6553 59.9327 97.5945 60.8574 95.7984C61.782 94.0023 63.1029 92.5843 64.839 91.5634C66.5562 90.5424 68.5943 90.032 70.9719 90.032C72.6325 90.032 74.1988 90.2589 75.6707 90.7126C77.1426 91.1664 78.4824 91.9037 79.6901 92.9247V98.9558H75.7839L75.2555 95.3258C74.8781 95.08 74.4818 94.8531 74.0667 94.664C73.6515 94.475 73.1987 94.3237 72.708 94.2292C72.2174 94.1347 71.689 94.0779 71.1229 94.0779C69.8208 94.0779 68.6886 94.3993 67.7451 95.0233C66.8016 95.6472 66.0656 96.5547 65.5372 97.7269C65.0089 98.8991 64.7635 100.317 64.7635 101.962V102.945C64.7635 104.533 65.0277 105.932 65.575 107.123C66.1033 108.314 66.877 109.241 67.8583 109.884C68.8396 110.545 69.9907 110.867 71.2927 110.867C71.9721 110.867 72.6703 110.791 73.3496 110.64C74.029 110.489 74.6705 110.3 75.2744 110.054L75.8216 106.651H79.7278V112.568C78.7843 113.211 77.5766 113.759 76.1424 114.213C74.6517 114.686 73.0288 114.913 71.1984 114.913Z" fill="white"/>
<path d="M81.313 114.572V111.434L83.0302 111.188L90.484 90.3723H96.0697L103.505 111.169L105.222 111.415V114.572H96.6358V111.434L98.2587 111.131L97.3529 108.144H89.2009L88.3139 111.131L89.9368 111.434V114.572H81.313ZM90.3897 104.306H96.1452L93.5599 96.4602L93.3146 95.685H93.2203L92.9561 96.5358L90.3897 104.306Z" fill="white"/>
<path d="M107.26 114.572V112.096L119.828 92.9247H110.43L110.128 96.0442H107.505V90.3723H123.583V92.7734L110.958 112.02H121.224L121.526 108.579H124.13V114.572H107.26Z" fill="#FF471F"/>
<path d="M136.396 114.913C134.83 114.913 133.433 114.61 132.207 114.024C130.961 113.419 129.923 112.587 129.055 111.491C128.187 110.394 127.527 109.108 127.074 107.615C126.621 106.121 126.395 104.476 126.395 102.661V102.321C126.395 100.525 126.621 98.8802 127.074 97.3677C127.527 95.8741 128.187 94.5695 129.055 93.473C129.923 92.3764 130.98 91.5256 132.207 90.9395C133.452 90.3345 134.849 90.0509 136.396 90.0509C138.038 90.0509 139.491 90.3534 140.736 90.9395C141.982 91.5445 143.038 92.3764 143.887 93.473C144.737 94.5695 145.378 95.8741 145.812 97.3677C146.246 98.8613 146.454 100.525 146.454 102.321V102.661C146.454 104.476 146.246 106.121 145.812 107.615C145.378 109.108 144.737 110.413 143.887 111.491C143.038 112.587 142 113.419 140.736 114.024C139.491 114.61 138.038 114.913 136.396 114.913ZM136.396 112.19C138 112.19 139.302 111.793 140.283 110.999C141.264 110.205 142 109.09 142.472 107.653C142.944 106.216 143.17 104.552 143.17 102.661V102.283C143.17 100.393 142.944 98.7478 142.472 97.3298C142 95.9119 141.264 94.7964 140.283 93.9834C139.283 93.1894 138 92.7734 136.415 92.7734C134.962 92.7734 133.735 93.1705 132.735 93.9834C131.735 94.7964 130.961 95.9119 130.452 97.3298C129.923 98.7478 129.678 100.393 129.678 102.283V102.661C129.678 104.552 129.942 106.197 130.452 107.634C130.98 109.071 131.735 110.186 132.735 110.999C133.716 111.793 134.943 112.19 136.396 112.19Z" fill="#FF471F"/>
<path d="M148.983 114.572V112.474L151.681 112.001V92.9436L148.983 92.4709V90.3723H151.681H154.983L166.834 109.241L166.928 109.203V92.9436L163.966 92.4709V90.3723H169.929H172.627V92.4898L169.929 92.9625V114.572H166.947L154.795 95.6094L154.7 95.6472V112.02L157.663 112.493V114.572H148.983Z" fill="#FF471F"/>
</svg>
