<svg width="352" height="260" viewBox="0 0 352 260" fill="none" xmlns="http://www.w3.org/2000/svg">
<path d="M56.7 178.4V221.8H46.1V195.8L36.4 221.8H27.9L18.1 195.7V221.8H7.5V178.4H20L32.2 208.5L44.3 178.4H56.7Z" fill="black"/>
<path d="M79.8 186.9V195.7H94V203.9H79.8V213.4H95.8V221.9H69.2V178.5H95.8V187H79.8V186.9Z" fill="black"/>
<path d="M108.6 188.6C110.5 185.2 113 182.6 116.4 180.7C119.7 178.8 123.5 177.9 127.7 177.9C132.9 177.9 137.3 179.3 140.9 182C144.6 184.7 147 188.4 148.3 193.1H136.7C135.8 191.3 134.6 189.9 133 189C131.4 188.1 129.6 187.6 127.6 187.6C124.3 187.6 121.7 188.7 119.7 191C117.7 193.3 116.7 196.3 116.7 200.1C116.7 203.9 117.7 206.9 119.7 209.2C121.7 211.5 124.4 212.6 127.6 212.6C129.6 212.6 131.4 212.1 133 211.2C134.6 210.3 135.8 208.9 136.7 207.1H148.3C147.1 211.8 144.6 215.5 140.9 218.2C137.2 220.9 132.8 222.3 127.7 222.3C123.5 222.3 119.7 221.4 116.4 219.5C113.1 217.6 110.5 215 108.6 211.7C106.7 208.4 105.8 204.5 105.8 200.3C105.8 195.8 106.8 192 108.6 188.6Z" fill="black"/>
<path d="M186.8 214.2H170.6L168 221.9H156.9L172.6 178.5H184.8L200.5 221.9H189.3L186.8 214.2ZM184 206L178.6 190.1L173.3 206H184Z" fill="black"/>
<path d="M221.5 213.2H240.2V221.9H209.5V213.9L228.1 187.2H209.5V178.5H240.2V186.5L221.5 213.2Z" fill="#FF471F"/>
<path d="M261.4 219.5C258 217.6 255.3 215 253.3 211.6C251.3 208.2 250.3 204.4 250.3 200.1C250.3 195.9 251.3 192 253.3 188.7C255.3 185.3 258 182.7 261.4 180.8C264.8 178.9 268.5 178 272.6 178C276.7 178 280.4 178.9 283.8 180.8C287.2 182.7 289.9 185.3 291.8 188.7C293.8 192.1 294.7 195.9 294.7 200.1C294.7 204.3 293.7 208.2 291.7 211.6C289.7 215 287 217.7 283.7 219.5C280.3 221.4 276.6 222.3 272.5 222.3C268.6 222.3 264.8 221.4 261.4 219.5ZM281 209.2C283.1 206.9 284.1 203.8 284.1 200C284.1 196.2 283.1 193.1 281 190.8C278.9 188.5 276.1 187.4 272.7 187.4C269.2 187.4 266.4 188.5 264.3 190.8C262.2 193.1 261.2 196.1 261.2 200C261.2 203.8 262.2 206.9 264.3 209.2C266.4 211.5 269.2 212.6 272.7 212.6C276.1 212.7 278.9 211.5 281 209.2Z" fill="#FF471F"/>
<path d="M344.5 221.9H334L316.3 195.1V221.9H305.7V178.5H316.3L334 205.4V178.5H344.6V221.9H344.5Z" fill="#FF471F"/>
<path d="M74.8999 239.5C74.4999 240.3 73.7999 240.9 72.8999 241.4C71.9999 241.9 70.7999 242.1 69.4999 242.1H66.9999V248.1H62.8999V231.4H69.4999C70.7999 231.4 71.9999 231.6 72.8999 232.1C73.7999 232.6 74.4999 233.2 74.9999 234C75.4999 234.8 75.6999 235.7 75.6999 236.8C75.5999 237.8 75.2999 238.7 74.8999 239.5ZM70.7999 238.4C71.1999 238 71.3999 237.5 71.3999 236.9C71.3999 236.2 71.1999 235.7 70.7999 235.4C70.3999 235 69.7999 234.9 69.0999 234.9H66.8999V239.1H69.0999C69.8999 238.9 70.4999 238.8 70.7999 238.4Z" fill="black"/>
<path d="M89.3998 231.5V248.2H85.2998V231.5H89.3998Z" fill="black"/>
<path d="M104 234.7V238.1H109.4V241.2H104V244.9H110.2V248.2H99.8999V231.5H110.1V234.8H104V234.7ZM107.7 227.7V230.5L102 228.1V224.9L107.7 227.7Z" fill="black"/>
<path d="M120.8 235.4C121.5 234.1 122.5 233.1 123.8 232.4C125.1 231.7 126.5 231.3 128.1 231.3C130.1 231.3 131.8 231.8 133.2 232.9C134.6 233.9 135.6 235.4 136 237.2H131.5C131.2 236.5 130.7 236 130.1 235.6C129.5 235.2 128.8 235.1 128 235.1C126.7 235.1 125.7 235.5 125 236.4C124.2 237.3 123.8 238.4 123.8 239.9C123.8 241.4 124.2 242.5 125 243.4C125.8 244.3 126.8 244.7 128 244.7C128.8 244.7 129.5 244.5 130.1 244.2C130.7 243.8 131.2 243.3 131.5 242.6H136C135.5 244.4 134.6 245.8 133.2 246.9C131.8 247.9 130.1 248.5 128.1 248.5C126.5 248.5 125 248.1 123.8 247.4C122.5 246.7 121.5 245.7 120.8 244.4C120.1 243.1 119.7 241.6 119.7 240C119.7 238.1 120.1 236.7 120.8 235.4Z" fill="black"/>
<path d="M150.2 234.7V238.1H155.6V241.2H150.2V244.9H156.4V248.2H146.2V231.5H156.4V234.8H150.2V234.7Z" fill="black"/>
<path d="M169.4 247.7C168.4 247.3 167.7 246.7 167.1 245.9C166.5 245.1 166.2 244.2 166.2 243.1H170.5C170.6 243.7 170.8 244.2 171.1 244.5C171.5 244.8 171.9 245 172.5 245C173.1 245 173.6 244.9 173.9 244.6C174.2 244.3 174.4 243.9 174.4 243.4C174.4 243 174.3 242.6 174 242.4C173.7 242.1 173.4 241.9 173 241.7C172.6 241.5 172 241.3 171.3 241.1C170.2 240.8 169.3 240.4 168.7 240.1C168 239.8 167.4 239.3 166.9 238.6C166.4 237.9 166.2 237.1 166.2 236.1C166.2 234.5 166.8 233.3 167.9 232.4C169 231.5 170.5 231.1 172.3 231.1C174.1 231.1 175.6 231.5 176.7 232.4C177.8 233.3 178.4 234.5 178.5 236.1H174.1C174.1 235.6 173.9 235.1 173.5 234.8C173.1 234.5 172.7 234.3 172.1 234.3C171.6 234.3 171.2 234.4 170.9 234.7C170.6 235 170.4 235.3 170.4 235.8C170.4 236.3 170.7 236.8 171.2 237.1C171.7 237.4 172.5 237.7 173.6 238.1C174.7 238.5 175.6 238.8 176.2 239.1C176.9 239.4 177.5 239.9 177.9 240.6C178.4 241.2 178.6 242.1 178.6 243.1C178.6 244.1 178.4 244.9 177.9 245.7C177.4 246.5 176.7 247.1 175.8 247.6C174.9 248.1 173.8 248.3 172.5 248.3C171.4 248.3 170.4 248.1 169.4 247.7Z" fill="black"/>
<path d="M211.9 245.2H205.7L204.7 248.2H200.4L206.4 231.5H211.1L217.1 248.2H212.8L211.9 245.2ZM210.9 242.1L208.8 236L206.8 242.1H210.9Z" fill="black"/>
<path d="M230.7 231.5V241.5C230.7 242.5 230.9 243.3 231.4 243.8C231.9 244.3 232.6 244.6 233.6 244.6C234.6 244.6 235.3 244.3 235.8 243.8C236.3 243.3 236.6 242.5 236.6 241.5V231.5H240.7V241.5C240.7 243 240.4 244.3 239.7 245.3C239.1 246.3 238.2 247.1 237.1 247.6C236 248.1 234.8 248.4 233.5 248.4C232.2 248.4 231 248.1 230 247.6C229 247.1 228.1 246.3 227.5 245.3C226.9 244.3 226.6 243 226.6 241.5V231.5H230.7Z" fill="black"/>
<path d="M263.1 231.5V234.8H258.7V248.2H254.6V234.8H250.2V231.5H263.1Z" fill="black"/>
<path d="M276.3 247.2C275 246.5 274 245.5 273.2 244.1C272.4 242.8 272 241.3 272 239.7C272 238.1 272.4 236.6 273.2 235.3C274 234 275 233 276.3 232.3C277.6 231.6 279 231.2 280.6 231.2C282.2 231.2 283.6 231.6 284.9 232.3C286.2 233 287.2 234 288 235.3C288.8 236.6 289.1 238.1 289.1 239.7C289.1 241.3 288.7 242.8 288 244.1C287.2 245.4 286.2 246.4 284.9 247.2C283.6 247.9 282.2 248.3 280.6 248.3C279.1 248.3 277.6 248 276.3 247.2ZM283.8 243.3C284.6 242.4 285 241.2 285 239.8C285 238.3 284.6 237.1 283.8 236.3C283 235.4 281.9 235 280.6 235C279.3 235 278.2 235.4 277.4 236.3C276.6 237.2 276.2 238.4 276.2 239.8C276.2 241.3 276.6 242.5 277.4 243.3C278.2 244.2 279.3 244.6 280.6 244.6C282 244.6 283 244.2 283.8 243.3Z" fill="black"/>
<path d="M240.2 106.4L176 143.2V102.1L195.9 90.9L204.4 93.9L220.5 99.5L240.2 106.4Z" fill="#CE3117"/>
<path d="M240.2 48.7V65.5L239.7 66.3L176 102.1V85.8L225.7 57.1L240.2 48.7Z" fill="#FF471F"/>
<path d="M111.8 48.7L126.3 57.1H126.2V131.2L111.8 122.9V48.7Z" fill="black"/>
<path d="M134.9 62L149 70.2V144.3L134.8 136.2V62.1L134.9 62Z" fill="black"/>
<path d="M176 85.8V159.9L168.7 155.7L157.6 149.3V75.2L176 85.8Z" fill="black"/>
<path d="M211.1 82.4L204.4 93.9L195.9 90.9L211.1 82.4Z" fill="#A52413"/>
<path d="M240.2 106.4V122.9L190.5 151.5L176 159.9V143.2L176.6 142.2L204.4 93.9L211.1 82.4L239.7 66.3L220.5 99.5L205.2 126.1L240.2 106.4Z" fill="#FF471F"/>
<path d="M182.3 34.7L134.8 62L126.3 57.1L173.7 29.7L182.3 34.7Z" fill="#B2B2B2"/>
<path d="M134.8 62V127.5L126.2 131.2L126.3 57.1L134.8 62Z" fill="#565555"/>
<path d="M205 47.1L157.6 75.2L149 70.2L196.4 42.1L205 47.1Z" fill="#B2B2B2"/>
<path d="M157.6 75.2V140.8L149 144.3V70.2L157.6 75.2Z" fill="#565555"/>
<path d="M240.2 48.7L225.7 57.1L176 85.8L157.6 75.2L204.3 47.4L195.7 42.4L195.3 42.7L149 70.2L134.9 62L182.3 34.7L173.7 29.7L126.3 57.1L111.8 48.7L176 11.7L232.9 44.5L240 48.6L240.2 48.7Z" fill="#595959"/>
</svg>
