<svg width="25" height="26" viewBox="0 0 25 26" fill="none" xmlns="http://www.w3.org/2000/svg">
<path d="M15.3214 25.0833H9.02141C3.25808 25.0833 0.808079 22.6217 0.808079 16.87V11.6317C0.808079 11.1533 1.20475 10.7567 1.68308 10.7567C2.16141 10.7567 2.55808 11.1533 2.55808 11.6317V16.87C2.55808 21.6417 4.24975 23.3333 9.02141 23.3333H15.3097C20.0814 23.3333 21.7731 21.6417 21.7731 16.87V11.6317C21.7731 11.1533 22.1697 10.7567 22.6481 10.7567C23.1264 10.7567 23.5231 11.1533 23.5231 11.6317V16.87C23.5347 22.6217 21.0731 25.0833 15.3214 25.0833Z" fill="#0C0C0C"/>
<path d="M12.1714 13.4167C10.8881 13.4167 9.72141 12.915 8.89308 11.9933C8.06475 11.0717 7.67975 9.87 7.80808 8.58667L8.58975 0.793333C8.63641 0.35 9.00975 0 9.46475 0H14.9131C15.3681 0 15.7414 0.338333 15.7881 0.793333L16.5697 8.58667C16.6981 9.87 16.3131 11.0717 15.4847 11.9933C14.6214 12.915 13.4547 13.4167 12.1714 13.4167ZM10.2464 1.75L9.54641 8.76167C9.46475 9.54333 9.69808 10.2783 10.1881 10.815C11.1797 11.9117 13.1631 11.9117 14.1547 10.815C14.6447 10.2667 14.8781 9.53167 14.7964 8.76167L14.0964 1.75H10.2464Z" fill="#0C0C0C"/>
<path d="M19.5331 13.4167C17.1647 13.4167 15.0531 11.5033 14.8081 9.14667L13.9914 0.968333C13.9681 0.723333 14.0497 0.478333 14.2131 0.291667C14.3764 0.105 14.6097 0 14.8664 0H18.4247C21.8547 0 23.4531 1.435 23.9314 4.95833L24.2581 8.20167C24.3981 9.57833 23.9781 10.885 23.0797 11.8767C22.1814 12.8683 20.9214 13.4167 19.5331 13.4167ZM15.8347 1.75L16.5581 8.97167C16.7097 10.43 18.0631 11.6667 19.5331 11.6667C20.4197 11.6667 21.2131 11.3283 21.7847 10.71C22.3447 10.0917 22.6014 9.26333 22.5197 8.37667L22.1931 5.16833C21.8314 2.53167 20.9797 1.75 18.4247 1.75H15.8347Z" fill="#0C0C0C"/>
<path d="M4.75141 13.4167C3.36308 13.4167 2.10308 12.8683 1.20474 11.8767C0.306412 10.885 -0.113588 9.57833 0.0264117 8.20167L0.341412 4.99333C0.831412 1.435 2.42974 0 5.85975 0H9.41808C9.66308 0 9.89641 0.105 10.0714 0.291667C10.2464 0.478333 10.3164 0.723333 10.2931 0.968333L9.47641 9.14667C9.23141 11.5033 7.11974 13.4167 4.75141 13.4167ZM5.85975 1.75C3.30474 1.75 2.45308 2.52 2.07974 5.19167L1.76474 8.37667C1.67141 9.26333 1.93975 10.0917 2.49975 10.71C3.05975 11.3283 3.85308 11.6667 4.75141 11.6667C6.22141 11.6667 7.58641 10.43 7.72641 8.97167L8.44975 1.75H5.85975Z" fill="#0C0C0C"/>
<path d="M15.0881 25.0833H9.25474C8.77641 25.0833 8.37974 24.6867 8.37974 24.2083V21.2917C8.37974 18.8417 9.72141 17.5 12.1714 17.5C14.6214 17.5 15.9631 18.8417 15.9631 21.2917V24.2083C15.9631 24.6867 15.5664 25.0833 15.0881 25.0833ZM10.1297 23.3333H14.2131V21.2917C14.2131 19.8217 13.6414 19.25 12.1714 19.25C10.7014 19.25 10.1297 19.8217 10.1297 21.2917V23.3333Z" fill="#0C0C0C"/>
</svg>
