<svg width="17" height="17" viewBox="0 0 17 17" fill="none" xmlns="http://www.w3.org/2000/svg">
<path d="M8.25 13.6875C5.25 13.6875 2.8125 11.25 2.8125 8.25C2.8125 5.25 5.25 2.8125 8.25 2.8125C11.25 2.8125 13.6875 5.25 13.6875 8.25C13.6875 11.25 11.25 13.6875 8.25 13.6875ZM8.25 3.9375C5.8725 3.9375 3.9375 5.8725 3.9375 8.25C3.9375 10.6275 5.8725 12.5625 8.25 12.5625C10.6275 12.5625 12.5625 10.6275 12.5625 8.25C12.5625 5.8725 10.6275 3.9375 8.25 3.9375Z" fill="#0C0C0C"/>
<path d="M8.25 16.47C7.8375 16.47 7.5 16.1625 7.5 15.75V15.69C7.5 15.2775 7.8375 14.94 8.25 14.94C8.6625 14.94 9 15.2775 9 15.69C9 16.1025 8.6625 16.47 8.25 16.47ZM13.605 14.355C13.41 14.355 13.2225 14.28 13.0725 14.1375L12.975 14.04C12.6825 13.7475 12.6825 13.275 12.975 12.9825C13.2675 12.69 13.74 12.69 14.0325 12.9825L14.13 13.08C14.4225 13.3725 14.4225 13.845 14.13 14.1375C13.9875 14.28 13.8 14.355 13.605 14.355ZM2.895 14.355C2.7 14.355 2.5125 14.28 2.3625 14.1375C2.07 13.845 2.07 13.3725 2.3625 13.08L2.46 12.9825C2.7525 12.69 3.225 12.69 3.5175 12.9825C3.81 13.275 3.81 13.7475 3.5175 14.04L3.42 14.1375C3.2775 14.28 3.0825 14.355 2.895 14.355ZM15.75 9H15.69C15.2775 9 14.94 8.6625 14.94 8.25C14.94 7.8375 15.2775 7.5 15.69 7.5C16.1025 7.5 16.47 7.8375 16.47 8.25C16.47 8.6625 16.1625 9 15.75 9ZM0.81 9H0.75C0.3375 9 0 8.6625 0 8.25C0 7.8375 0.3375 7.5 0.75 7.5C1.1625 7.5 1.53 7.8375 1.53 8.25C1.53 8.6625 1.2225 9 0.81 9ZM13.5075 3.7425C13.3125 3.7425 13.125 3.6675 12.975 3.525C12.6825 3.2325 12.6825 2.76 12.975 2.4675L13.0725 2.37C13.365 2.0775 13.8375 2.0775 14.13 2.37C14.4225 2.6625 14.4225 3.135 14.13 3.4275L14.0325 3.525C13.89 3.6675 13.7025 3.7425 13.5075 3.7425ZM2.9925 3.7425C2.7975 3.7425 2.61 3.6675 2.46 3.525L2.3625 3.42C2.07 3.1275 2.07 2.655 2.3625 2.3625C2.655 2.07 3.1275 2.07 3.42 2.3625L3.5175 2.46C3.81 2.7525 3.81 3.225 3.5175 3.5175C3.375 3.6675 3.18 3.7425 2.9925 3.7425ZM8.25 1.53C7.8375 1.53 7.5 1.2225 7.5 0.81V0.75C7.5 0.3375 7.8375 0 8.25 0C8.6625 0 9 0.3375 9 0.75C9 1.1625 8.6625 1.53 8.25 1.53Z" fill="#0C0C0C"/>
</svg>
