<svg width="16" height="16" viewBox="0 0 16 16" fill="none" xmlns="http://www.w3.org/2000/svg">
<path d="M15.5 8C15.5 3.8675 12.1325 0.5 8 0.5C3.8675 0.5 0.5 3.8675 0.5 8C0.5 10.175 1.4375 12.1325 2.9225 13.505C2.9225 13.5125 2.9225 13.5125 2.915 13.52C2.99 13.595 3.08 13.655 3.155 13.7225C3.2 13.76 3.2375 13.7975 3.2825 13.8275C3.4175 13.94 3.5675 14.045 3.71 14.15C3.7625 14.1875 3.8075 14.2175 3.86 14.255C4.0025 14.3525 4.1525 14.4425 4.31 14.525C4.3625 14.555 4.4225 14.5925 4.475 14.6225C4.625 14.705 4.7825 14.78 4.9475 14.8475C5.0075 14.8775 5.0675 14.9075 5.1275 14.93C5.2925 14.9975 5.4575 15.0575 5.6225 15.11C5.6825 15.1325 5.7425 15.155 5.8025 15.17C5.9825 15.2225 6.1625 15.2675 6.3425 15.3125C6.395 15.3275 6.4475 15.3425 6.5075 15.35C6.7175 15.395 6.9275 15.425 7.145 15.4475C7.175 15.4475 7.205 15.455 7.235 15.4625C7.49 15.485 7.745 15.5 8 15.5C8.255 15.5 8.51 15.485 8.7575 15.4625C8.7875 15.4625 8.8175 15.455 8.8475 15.4475C9.065 15.425 9.275 15.395 9.485 15.35C9.5375 15.3425 9.59 15.32 9.65 15.3125C9.83 15.2675 10.0175 15.23 10.19 15.17C10.25 15.1475 10.31 15.125 10.37 15.11C10.535 15.05 10.7075 14.9975 10.865 14.93C10.925 14.9075 10.985 14.8775 11.045 14.8475C11.2025 14.78 11.36 14.705 11.5175 14.6225C11.5775 14.5925 11.63 14.555 11.6825 14.525C11.8325 14.435 11.9825 14.3525 12.1325 14.255C12.185 14.225 12.23 14.1875 12.2825 14.15C12.4325 14.045 12.575 13.94 12.71 13.8275C12.755 13.79 12.7925 13.7525 12.8375 13.7225C12.92 13.655 13.0025 13.5875 13.0775 13.52C13.0775 13.5125 13.0775 13.5125 13.07 13.505C14.5625 12.1325 15.5 10.175 15.5 8ZM11.705 11.7275C9.6725 10.3625 6.3425 10.3625 4.295 11.7275C3.965 11.945 3.695 12.2 3.47 12.4775C2.33 11.3225 1.625 9.74 1.625 8C1.625 4.4825 4.4825 1.625 8 1.625C11.5175 1.625 14.375 4.4825 14.375 8C14.375 9.74 13.67 11.3225 12.53 12.4775C12.3125 12.2 12.035 11.945 11.705 11.7275Z" fill="#0C0C0C"/>
<path d="M8 4.1975C6.4475 4.1975 5.1875 5.4575 5.1875 7.01C5.1875 8.5325 6.38 9.77 7.9625 9.815C7.985 9.815 8.015 9.815 8.03 9.815C8.045 9.815 8.0675 9.815 8.0825 9.815C8.09 9.815 8.0975 9.815 8.0975 9.815C9.6125 9.7625 10.805 8.5325 10.8125 7.01C10.8125 5.4575 9.5525 4.1975 8 4.1975Z" fill="#0C0C0C"/>
</svg>
