<svg width="18" height="16" viewBox="0 0 18 16" fill="none" xmlns="http://www.w3.org/2000/svg">
<path d="M9 15.2375C8.7675 15.2375 8.5425 15.2075 8.355 15.14C5.49 14.1575 0.9375 10.67 0.9375 5.51745C0.9375 2.89245 3.06 0.762451 5.67 0.762451C6.9375 0.762451 8.1225 1.25745 9 2.14245C9.8775 1.25745 11.0625 0.762451 12.33 0.762451C14.94 0.762451 17.0625 2.89995 17.0625 5.51745C17.0625 10.6775 12.51 14.1575 9.645 15.14C9.4575 15.2075 9.2325 15.2375 9 15.2375ZM5.67 1.88745C3.6825 1.88745 2.0625 3.51495 2.0625 5.51745C2.0625 10.64 6.99 13.49 8.7225 14.0825C8.8575 14.1275 9.15 14.1275 9.285 14.0825C11.01 13.49 15.945 10.6475 15.945 5.51745C15.945 3.51495 14.325 1.88745 12.3375 1.88745C11.1975 1.88745 10.14 2.41995 9.4575 3.34245C9.2475 3.62745 8.7675 3.62745 8.5575 3.34245C7.86 2.41245 6.81 1.88745 5.67 1.88745Z" fill="#0C0C0C"/>
</svg>
